[{"glyphs":{"0":{"ha":721,"x_min":0,"x_max":0,"o":"m 21 424 b 361 -21 21 157 164 -21 b 700 424 558 -21 700 157 b 361 867 700 689 558 867 b 21 424 164 867 21 689 z m 132 424 b 361 846 132 676 215 846 b 589 424 510 846 589 676 b 361 0 589 169 510 0 b 132 424 215 0 132 169 z "},"1":{"ha":267,"x_min":0,"x_max":0,"o":"m 168 867 b 28 732 168 775 103 732 b 28 708 28 732 28 711 l 28 708 b 78 708 57 708 60 708 l 78 96 b 28 7 78 63 54 26 l 28 7 l 28 0 l 239 0 l 239 7 l 239 7 b 189 96 213 26 189 63 l 189 867 z "},"2":{"ha":647,"x_min":0,"x_max":0,"o":"m 568 0 l 618 160 l 611 160 l 611 160 b 522 111 592 133 564 111 l 88 111 b 618 619 215 283 615 351 b 356 867 619 793 497 867 b 28 736 239 867 115 806 l 28 625 b 326 846 125 749 217 846 b 511 667 453 846 511 758 b 28 0 513 379 28 276 z "},"3":{"ha":656,"x_min":0,"x_max":0,"o":"m 224 438 l 224 417 l 313 417 b 522 208 457 417 522 325 b 300 0 522 86 415 0 b 28 199 194 0 115 68 l 28 88 b 297 -21 97 11 197 -21 b 635 208 469 -21 635 76 b 371 435 635 329 544 418 b 569 656 504 474 569 567 b 300 867 568 796 435 867 b 60 767 208 867 115 833 l 60 656 b 288 846 94 786 196 846 b 457 661 397 846 456 756 b 231 438 458 553 386 438 z "},"4":{"ha":636,"x_min":0,"x_max":0,"o":"m 249 915 b 28 324 249 722 182 519 l 393 324 l 393 96 b 343 7 393 63 369 26 l 343 7 l 343 0 l 554 0 l 554 7 l 554 7 b 504 96 528 26 504 63 l 504 324 l 558 324 l 608 483 l 601 483 l 601 483 b 513 435 582 457 554 435 l 504 435 l 504 846 l 483 846 l 393 708 l 393 435 l 140 435 b 360 915 249 572 360 744 z "},"5":{"ha":674,"x_min":0,"x_max":0,"o":"m 94 424 b 292 547 135 497 213 547 b 540 289 456 547 540 419 b 522 176 540 251 535 213 b 282 0 483 64 385 0 b 21 176 185 0 83 56 l 21 65 b 281 -21 88 7 183 -21 b 653 283 464 -21 653 85 b 318 568 653 425 536 568 b 97 468 225 568 142 529 l 114 735 l 535 735 l 585 894 l 578 894 l 578 894 b 489 846 558 868 531 846 l 100 846 l 74 424 l 74 421 l 94 421 z "},"6":{"ha":619,"x_min":0,"x_max":0,"o":"m 338 567 b 131 436 253 567 171 525 b 338 846 133 592 156 846 b 533 696 413 846 490 796 l 533 807 b 336 867 469 846 401 867 b 21 379 78 867 21 582 b 301 -22 21 64 161 -22 b 599 290 496 -22 599 138 b 338 567 599 431 514 567 z m 131 360 b 304 535 153 476 228 535 b 488 290 431 535 488 415 b 308 -1 488 119 421 -1 b 176 75 251 -1 207 26 b 131 360 128 154 131 267 z "},"7":{"ha":601,"x_min":0,"x_max":0,"o":"m 574 846 l 78 846 l 28 686 l 35 686 l 35 686 b 124 735 54 713 82 735 l 553 735 b 215 0 340 567 215 275 l 326 0 b 574 735 326 322 369 549 z "},"8":{"ha":672,"x_min":0,"x_max":0,"o":"m 213 463 b 22 236 82 435 22 338 b 347 -21 21 110 126 -22 b 651 235 499 -19 651 64 b 425 486 651 393 538 443 b 567 661 519 513 567 586 b 331 867 567 763 488 867 b 100 646 215 867 100 790 b 213 463 100 554 149 501 z m 382 503 b 206 685 289 539 206 579 b 329 846 206 789 267 846 b 456 674 415 846 456 760 b 382 503 456 599 431 525 z m 247 444 b 540 210 375 381 540 351 b 350 0 540 99 468 0 b 133 242 203 0 133 124 b 247 444 133 333 168 421 z "},"9":{"ha":619,"x_min":0,"x_max":0,"o":"m 282 278 b 488 407 365 278 447 319 b 218 0 474 114 354 0 b 21 149 139 0 63 53 l 21 38 b 221 -21 90 -1 157 -21 b 599 465 436 -22 599 181 b 318 867 599 781 458 867 b 21 554 124 867 21 707 b 282 278 21 414 106 278 z m 489 485 b 315 310 467 368 392 310 b 132 554 189 310 132 429 b 311 846 132 725 199 846 b 443 769 368 846 413 818 b 489 485 492 690 489 578 z "},"\u0000":{"ha":0,"x_min":0,"x_max":0,"o":""},"\r":{"ha":463,"x_min":0,"x_max":0,"o":""}," ":{"ha":278,"x_min":0,"x_max":0,"o":""},"!":{"ha":168,"x_min":0,"x_max":0,"o":"m 74 0 l 94 0 l 140 846 l 29 846 z m 28 -104 b 83 -160 28 -137 50 -160 b 139 -104 117 -160 139 -137 b 83 -49 139 -71 117 -49 b 28 -104 50 -49 28 -71 z "},"\"":{"ha":307,"x_min":0,"x_max":0,"o":"m 93 622 b 139 751 97 689 139 707 b 83 807 139 783 117 807 b 28 751 50 807 28 785 b 72 622 28 706 68 689 b 83 613 72 615 76 613 b 93 622 89 613 93 615 z m 233 622 b 279 751 238 689 279 707 b 224 807 279 783 257 807 b 168 751 190 807 168 785 b 213 622 168 706 208 689 b 224 613 213 615 217 613 b 233 622 229 613 233 615 z "},"#":{"ha":981,"x_min":0,"x_max":0,"o":"m 201 0 l 260 0 l 356 283 l 529 283 l 433 0 l 492 0 l 588 283 l 879 283 l 879 339 l 606 339 l 664 513 l 953 513 l 953 568 l 683 568 l 776 846 l 718 846 l 625 568 l 451 568 l 544 846 l 486 846 l 393 568 l 110 568 l 110 513 l 374 513 l 315 339 l 28 339 l 28 283 l 297 283 z m 374 339 l 432 513 l 606 513 l 547 339 z "},"$":{"ha":700,"x_min":0,"x_max":0,"o":"m 300 867 b 39 663 176 867 39 807 b 340 397 39 513 196 457 l 340 0 b 21 192 213 7 110 110 l 21 81 b 340 -21 104 21 225 -18 l 340 -53 l 361 -53 l 361 -21 b 678 226 497 -19 679 43 b 361 508 676 396 507 449 l 361 840 b 569 693 450 822 517 765 l 569 804 b 361 864 508 833 435 856 l 361 899 l 340 899 l 340 865 b 300 867 326 867 314 867 z m 340 517 b 149 721 236 561 149 613 b 297 846 149 788 203 846 b 340 843 313 846 326 844 z m 361 388 b 572 179 474 340 572 286 b 361 0 571 90 496 3 z "},"%":{"ha":560,"x_min":0,"x_max":0,"o":"m 106 0 l 475 846 l 454 846 b 75 776 379 758 189 875 b 46 746 64 768 54 760 l 46 744 b 28 674 33 724 28 700 b 149 547 28 597 76 547 b 269 674 221 547 269 597 b 151 800 269 747 222 799 b 439 813 233 819 365 758 l 85 0 z m 75 674 b 88 743 75 700 79 724 b 149 792 96 769 119 792 b 222 674 193 792 222 744 b 149 556 222 603 193 556 b 75 674 104 556 75 603 z m 532 172 b 411 299 532 249 483 299 b 290 172 339 299 290 249 b 411 46 290 97 339 46 b 532 172 483 46 532 97 z m 485 172 b 411 54 485 101 456 54 b 338 172 367 54 338 101 b 411 290 338 243 367 290 b 485 172 456 290 485 243 z "},"&":{"ha":839,"x_min":0,"x_max":0,"o":"m 331 438 b 357 846 94 438 94 846 b 585 656 449 846 550 786 l 585 767 b 344 867 529 833 436 867 b 218 432 -6 867 -50 510 b 28 233 94 410 28 324 b 419 -49 28 43 224 -49 b 811 249 615 -49 811 51 b 633 433 811 338 747 415 b 811 547 715 461 811 474 b 746 576 811 589 760 594 b 776 549 767 576 776 564 b 474 350 776 449 474 521 b 519 289 474 303 519 289 b 589 417 508 358 542 393 b 700 258 661 414 700 343 b 419 -28 700 68 560 -28 b 139 233 279 -28 139 58 b 286 417 139 329 189 417 l 371 417 l 371 438 z "},"'":{"ha":167,"x_min":0,"x_max":0,"o":"m 93 661 b 139 790 97 728 139 746 b 83 846 139 822 117 846 b 28 790 50 846 28 824 b 72 661 28 744 68 728 b 83 651 72 654 76 651 b 93 661 89 651 93 654 z "},"(":{"ha":343,"x_min":0,"x_max":0,"o":"m 139 426 b 315 825 139 593 210 746 l 315 846 b 28 428 143 739 28 578 b 315 0 28 278 143 107 l 315 21 b 139 426 210 100 139 263 z "},")":{"ha":343,"x_min":0,"x_max":0,"o":"m 204 429 b 28 21 204 263 133 100 l 28 0 b 315 428 200 107 315 278 b 28 846 315 578 200 739 l 28 825 b 204 429 133 746 204 593 z "},"*":{"ha":386,"x_min":0,"x_max":0,"o":"m 90 650 b 93 582 65 628 65 601 l 94 582 b 161 603 122 564 149 572 l 185 661 b 194 660 188 661 190 660 b 197 660 196 660 196 660 l 204 661 b 207 661 206 661 206 661 l 228 606 b 293 585 240 574 265 565 l 294 585 b 296 649 322 603 322 628 l 246 688 b 251 699 247 690 250 694 l 304 686 b 358 729 338 679 358 696 l 358 731 b 306 768 358 764 338 779 l 247 749 b 242 757 246 751 244 754 l 289 793 b 288 860 315 814 315 840 l 286 860 b 221 838 258 878 233 869 l 197 778 l 185 778 l 163 836 b 97 857 151 867 125 875 b 94 792 68 838 68 813 l 144 753 l 143 753 l 82 767 b 28 724 49 774 28 757 l 28 722 b 81 685 28 689 49 674 l 136 704 b 140 693 138 700 139 696 z "},"+":{"ha":514,"x_min":0,"x_max":0,"o":"m 229 504 l 229 303 l 28 303 l 28 247 l 229 247 l 229 46 l 285 46 l 285 247 l 486 247 l 486 303 l 285 303 l 285 504 z "},",":{"ha":197,"x_min":0,"x_max":0,"o":"m 169 56 b 114 111 169 89 147 111 b 58 56 81 111 58 89 b 94 3 58 29 72 10 l 94 3 b 28 -57 94 -33 68 -57 l 28 -78 b 169 56 113 -78 169 -25 z "},"-":{"ha":365,"x_min":0,"x_max":0,"o":"m 28 246 l 338 246 l 338 301 l 28 301 z "},".":{"ha":167,"x_min":0,"x_max":0,"o":"m 28 56 b 83 0 28 22 50 0 b 139 56 117 0 139 22 b 83 111 139 89 117 111 b 28 56 50 111 28 89 z "},"/":{"ha":546,"x_min":0,"x_max":0,"o":"m 28 0 l 149 0 l 518 846 l 397 846 z "},":":{"ha":167,"x_min":0,"x_max":0,"o":"m 28 492 b 83 436 28 458 50 436 b 139 492 117 436 139 458 b 83 547 139 525 117 547 b 28 492 50 547 28 525 z m 28 56 b 83 0 28 22 50 0 b 139 56 117 0 139 22 b 83 111 139 89 117 111 b 28 56 50 111 28 89 z "},";":{"ha":197,"x_min":0,"x_max":0,"o":"m 114 547 b 58 492 81 547 58 525 b 114 436 58 458 81 436 b 169 492 147 436 169 458 b 114 547 169 525 147 547 z m 169 56 b 114 111 169 89 147 111 b 58 56 81 111 58 89 b 94 3 58 29 72 10 l 94 3 b 28 -57 94 -33 68 -57 l 28 -78 b 169 56 113 -78 169 -25 z "},"<":{"ha":367,"x_min":0,"x_max":0,"o":"m 28 272 l 265 -3 l 339 -3 l 103 272 l 101 272 l 339 547 l 264 547 z "},"=":{"ha":450,"x_min":0,"x_max":0,"o":"m 422 375 l 28 375 l 28 319 l 422 319 z m 422 225 l 28 225 l 28 169 l 422 169 z "},">":{"ha":367,"x_min":0,"x_max":0,"o":"m 339 272 l 101 547 l 28 547 l 264 272 l 265 272 l 28 -3 l 103 -3 z "},"?":{"ha":617,"x_min":0,"x_max":0,"o":"m 156 10 b 165 0 156 4 160 0 b 176 10 172 0 176 4 b 588 585 183 296 596 249 b 285 867 583 749 444 869 b 28 689 179 865 76 810 l 28 578 b 269 846 69 765 172 846 b 481 625 399 846 481 740 b 156 10 481 293 160 410 z m 111 -104 b 167 -160 111 -137 133 -160 b 222 -104 200 -160 222 -137 b 167 -49 222 -71 200 -49 b 111 -104 133 -49 111 -71 z "},"@":{"ha":1190,"x_min":0,"x_max":0,"o":"m 21 269 b 565 -290 21 -67 239 -290 b 876 -203 676 -290 786 -261 l 876 -92 b 565 -269 801 -221 689 -269 b 132 272 306 -269 132 -53 b 596 815 132 599 318 815 b 1058 269 874 815 1058 597 b 814 151 1058 -67 814 -67 l 814 385 b 628 564 814 504 731 564 b 379 481 532 564 457 531 l 379 369 b 563 533 415 485 493 533 b 703 397 638 533 703 479 l 703 367 b 465 261 658 290 551 285 b 342 122 397 242 342 204 b 525 -17 342 33 431 -17 b 726 75 588 -17 685 7 b 1169 269 821 -93 1169 -50 b 596 836 1169 610 940 836 b 21 269 251 836 21 610 z m 714 101 b 569 17 688 50 617 17 b 453 122 507 18 453 57 b 561 256 453 193 503 233 b 703 332 611 275 667 290 l 703 169 b 714 101 703 144 707 122 z "},"A":{"ha":983,"x_min":0,"x_max":0,"o":"m 642 303 l 240 303 l 442 699 z m 761 67 b 739 7 771 47 771 15 l 739 0 l 956 0 l 956 6 b 886 67 924 13 900 36 l 493 846 l 97 67 b 28 6 83 36 60 13 l 28 0 l 143 0 l 143 7 b 121 67 111 15 111 47 l 231 282 l 653 282 z "},"B":{"ha":769,"x_min":0,"x_max":0,"o":"m 749 251 b 482 476 749 376 642 467 b 372 846 696 556 657 846 l 28 846 l 28 839 l 28 839 b 78 750 54 819 78 783 l 78 96 b 28 7 78 63 54 26 l 28 7 l 28 0 l 440 0 b 749 251 625 0 749 100 z m 346 825 b 338 478 561 825 561 478 l 189 478 l 189 769 b 244 825 189 803 211 825 z m 189 457 l 424 457 b 638 251 553 457 638 375 b 425 21 638 113 553 21 l 244 21 b 189 76 211 21 189 43 z "},"C":{"ha":783,"x_min":0,"x_max":0,"o":"m 468 -21 b 756 63 586 -21 700 33 l 756 174 b 468 0 722 94 597 0 b 139 424 269 0 139 169 b 468 846 139 676 269 846 b 756 672 597 846 722 751 l 756 783 b 468 867 699 817 586 867 b 28 424 201 867 28 689 b 468 -21 28 157 201 -21 z "},"D":{"ha":829,"x_min":0,"x_max":0,"o":"m 189 0 b 401 1 261 0 324 1 b 808 419 664 1 808 204 b 400 846 808 635 664 846 l 28 846 l 28 839 l 28 839 b 78 750 54 819 78 783 l 78 96 b 28 7 78 63 54 26 l 28 7 l 28 0 z m 244 825 b 385 826 272 825 300 826 b 697 431 606 826 697 622 b 386 22 697 238 606 22 b 244 21 342 22 299 21 b 189 76 211 21 189 43 l 189 769 b 244 825 189 803 211 825 z "},"E":{"ha":678,"x_min":0,"x_max":0,"o":"m 189 769 b 244 825 189 803 211 825 l 554 825 b 643 776 596 825 624 803 l 650 776 l 629 846 l 28 846 l 28 839 b 78 750 54 819 78 783 l 78 96 b 28 7 78 63 54 26 l 28 0 l 629 0 l 650 69 l 643 69 b 554 21 624 43 596 21 l 244 21 b 189 76 211 21 189 43 l 189 414 l 426 414 b 508 365 468 414 489 392 l 515 365 l 515 483 l 508 483 b 426 435 489 457 468 435 l 189 435 z "},"F":{"ha":707,"x_min":0,"x_max":0,"o":"m 583 825 b 672 776 625 825 653 803 l 672 776 l 679 776 l 658 846 l 28 846 l 28 839 l 28 839 b 78 750 54 819 78 783 l 78 96 b 28 7 78 63 54 26 l 28 7 l 28 0 l 239 0 l 239 7 l 239 7 b 189 96 213 26 189 63 l 189 375 l 456 375 b 538 326 497 375 518 353 l 538 326 l 544 326 l 544 444 l 538 444 l 538 444 b 456 396 518 418 497 396 l 189 396 l 189 769 b 244 825 189 803 211 825 z "},"G":{"ha":869,"x_min":0,"x_max":0,"o":"m 461 -21 b 681 57 560 -21 640 26 l 792 0 l 792 328 b 842 417 792 361 815 397 l 842 424 l 631 424 l 631 417 b 681 328 657 397 681 361 l 681 135 b 461 0 640 67 569 0 b 132 424 263 0 132 169 b 461 846 132 676 263 846 b 700 672 590 846 667 751 l 700 783 b 461 867 671 814 579 867 b 21 424 194 867 21 689 b 461 -21 21 157 194 -21 z "},"H":{"ha":824,"x_min":0,"x_max":0,"o":"m 28 846 l 28 839 b 78 750 54 819 78 783 l 78 96 b 28 7 78 63 54 26 l 28 0 l 239 0 l 239 7 b 189 96 213 26 189 63 l 189 415 l 635 415 l 635 96 b 585 7 635 63 611 26 l 585 0 l 796 0 l 796 7 b 746 96 769 26 746 63 l 746 750 b 796 839 746 783 769 819 l 796 846 l 585 846 l 585 839 b 635 750 611 819 635 783 l 635 436 l 189 436 l 189 750 b 239 839 189 783 213 819 l 239 846 z "},"I":{"ha":267,"x_min":0,"x_max":0,"o":"m 28 846 l 28 839 b 78 750 54 819 78 783 l 78 96 b 28 7 78 63 54 26 l 28 0 l 239 0 l 239 7 b 189 96 213 26 189 63 l 189 750 b 239 839 189 783 213 819 l 239 846 z "},"J":{"ha":267,"x_min":0,"x_max":0,"o":"m 78 56 b -89 -57 78 -57 -11 -96 l -89 -78 b 189 144 0 -115 189 -115 l 189 750 b 239 839 189 783 213 819 l 239 839 l 239 846 l 28 846 l 28 839 l 28 839 b 78 750 54 819 78 783 z "},"K":{"ha":781,"x_min":0,"x_max":0,"o":"m 28 846 l 28 839 b 78 750 54 819 78 783 l 78 96 b 28 7 78 63 54 26 l 28 0 l 239 0 l 239 7 b 189 96 213 26 189 63 l 189 750 b 239 839 189 783 213 819 l 239 846 z m 521 67 b 531 7 538 44 542 24 l 531 0 l 753 0 l 753 6 b 671 67 721 13 693 40 l 307 467 b 311 519 293 482 297 504 l 547 779 b 629 840 571 804 601 839 l 629 846 l 528 846 l 528 839 b 519 779 539 822 533 797 l 207 435 b 207 413 201 428 201 419 z "},"L":{"ha":707,"x_min":0,"x_max":0,"o":"m 189 750 b 239 839 189 783 213 819 l 239 846 l 28 846 l 28 839 b 78 750 54 819 78 783 l 78 96 b 28 7 78 63 54 26 l 28 0 l 658 0 l 679 69 l 672 69 b 583 21 653 43 625 21 l 244 21 b 189 76 211 21 189 43 z "},"M":{"ha":1026,"x_min":0,"x_max":0,"o":"m 539 160 l 200 846 l 28 846 l 28 840 l 28 840 b 110 779 56 839 96 810 l 124 751 l 86 96 b 36 7 83 63 63 26 l 36 7 l 36 0 l 157 0 l 157 7 l 157 7 b 107 96 131 26 104 63 l 143 713 l 494 0 l 494 0 l 494 0 l 494 0 l 803 719 l 838 96 b 788 7 840 63 814 26 l 788 7 l 788 0 l 999 0 l 999 7 l 999 7 b 949 96 972 26 951 63 l 913 750 b 963 839 910 783 936 819 l 963 839 l 963 846 l 835 846 z "},"N":{"ha":932,"x_min":0,"x_max":0,"o":"m 854 0 l 854 750 b 904 839 854 783 878 819 l 904 839 l 904 846 l 783 846 l 783 839 l 783 839 b 833 750 810 819 833 783 l 833 163 l 200 846 l 28 846 l 28 840 l 28 840 b 110 779 54 839 78 813 l 138 749 l 138 96 b 88 7 138 63 114 26 l 88 7 l 88 0 l 208 0 l 208 7 l 208 7 b 158 96 182 26 158 63 l 158 726 l 833 0 z "},"O":{"ha":922,"x_min":0,"x_max":0,"o":"m 21 424 b 461 -21 21 157 194 -21 b 901 424 728 -21 901 157 b 461 867 901 689 728 867 b 21 424 194 867 21 689 z m 132 424 b 461 846 132 676 263 846 b 790 424 661 846 790 676 b 461 0 790 169 661 0 b 132 424 263 0 132 169 z "},"P":{"ha":776,"x_min":0,"x_max":0,"o":"m 440 297 b 754 578 651 297 757 439 b 451 846 751 717 653 846 l 28 846 l 28 839 l 28 839 b 78 750 54 819 78 783 l 78 96 b 28 7 78 63 54 26 l 28 7 l 28 0 l 239 0 l 239 7 l 239 7 b 189 96 213 26 189 63 l 189 297 z m 424 825 b 642 578 568 825 642 703 b 415 318 642 449 568 318 l 189 318 l 189 769 b 244 825 189 803 211 825 z "},"Q":{"ha":922,"x_min":0,"x_max":0,"o":"m 21 424 b 415 -19 21 172 175 0 b 424 -19 418 -19 421 -19 b 825 -246 590 -28 644 -246 b 997 -99 914 -246 997 -187 b 982 -64 997 -82 992 -65 b 832 -161 951 -133 894 -161 b 515 -18 697 -160 624 -61 b 901 424 751 4 901 175 b 461 867 901 689 728 867 b 21 424 194 867 21 689 z m 132 424 b 461 846 132 676 263 846 b 790 424 661 846 790 676 b 461 0 790 169 661 0 b 132 424 263 0 132 169 z "},"R":{"ha":833,"x_min":0,"x_max":0,"o":"m 440 297 b 754 578 651 297 754 439 b 451 846 754 717 653 846 l 28 846 l 28 839 l 28 839 b 78 750 54 819 78 783 l 78 96 b 28 7 78 63 54 26 l 28 7 l 28 0 l 239 0 l 239 7 l 239 7 b 189 96 213 26 189 63 l 189 297 l 279 297 b 636 -21 440 297 407 -21 b 806 118 724 -21 806 33 b 790 153 806 135 800 151 l 790 153 b 674 57 790 100 738 57 b 363 297 547 57 482 235 z m 424 825 b 642 578 568 825 642 703 b 415 318 642 449 568 318 l 189 318 l 189 769 b 244 825 189 803 211 825 z "},"S":{"ha":700,"x_min":0,"x_max":0,"o":"m 300 867 b 39 663 176 867 39 807 b 572 179 39 386 572 429 b 350 0 571 88 492 -1 b 21 192 233 1 103 79 l 21 81 b 357 -21 106 21 239 -21 b 678 226 493 -21 679 42 b 149 721 675 526 149 457 b 297 846 149 788 203 846 b 569 693 421 846 504 782 l 569 804 b 300 867 492 842 392 867 z "},"T":{"ha":883,"x_min":0,"x_max":0,"o":"m 49 846 l 28 776 l 35 776 l 35 776 b 124 825 54 803 82 825 l 386 825 l 386 96 b 336 7 386 63 363 26 l 336 7 l 336 0 l 547 0 l 547 7 l 547 7 b 497 96 521 26 497 63 l 497 825 l 760 825 b 849 776 801 825 829 803 l 849 776 l 856 776 l 835 846 z "},"U":{"ha":804,"x_min":0,"x_max":0,"o":"m 726 750 b 776 839 726 783 750 819 l 776 846 l 656 846 l 656 839 b 706 750 682 819 706 783 l 706 281 b 450 29 703 129 600 29 b 189 281 293 29 189 129 l 189 750 b 239 839 189 783 213 819 l 239 846 l 28 846 l 28 839 b 78 750 54 819 78 783 l 78 282 b 415 0 78 113 213 0 b 726 281 601 0 726 113 z "},"V":{"ha":988,"x_min":0,"x_max":0,"o":"m 222 779 b 244 839 213 799 213 831 l 244 846 l 28 846 l 28 840 b 97 779 60 833 83 810 l 493 0 l 890 779 b 960 840 904 810 928 833 l 960 846 l 844 846 l 844 839 b 867 779 876 831 876 799 l 544 146 z "},"W":{"ha":1418,"x_min":0,"x_max":0,"o":"m 222 779 b 244 839 213 799 213 831 l 244 839 l 244 846 l 28 846 l 28 840 l 28 840 b 97 779 60 833 83 810 l 493 0 l 708 424 l 924 0 l 1321 779 b 1390 840 1335 810 1358 833 l 1390 840 l 1390 846 l 1275 846 l 1275 839 l 1275 839 b 1297 779 1307 831 1307 799 l 975 146 l 771 546 l 890 779 b 960 840 904 810 928 833 l 960 840 l 960 846 l 844 846 l 844 839 l 844 839 b 867 779 876 831 876 799 l 760 569 l 653 779 b 675 839 643 799 643 831 l 675 839 l 675 846 l 458 846 l 458 840 l 458 840 b 528 779 490 833 514 810 l 697 446 l 544 146 z "},"X":{"ha":897,"x_min":0,"x_max":0,"o":"m 28 846 l 28 840 b 110 779 60 833 90 807 l 410 382 l 171 67 b 89 6 151 39 121 13 l 88 6 l 88 0 l 188 0 l 188 7 b 197 67 178 24 183 49 l 424 365 l 649 67 b 658 7 663 49 669 24 l 658 0 l 869 0 l 869 6 b 788 67 838 13 807 39 l 493 457 l 736 779 b 818 840 756 807 786 833 l 818 846 l 718 846 l 718 839 b 710 779 729 822 724 797 l 479 475 l 250 779 b 239 839 236 797 229 822 l 239 846 z "},"Y":{"ha":913,"x_min":0,"x_max":0,"o":"m 803 779 b 885 840 822 807 853 833 l 885 840 l 885 846 l 793 846 l 793 839 l 793 839 b 782 779 803 822 796 797 l 517 426 l 250 779 b 239 839 236 797 229 822 l 239 839 l 239 846 l 28 846 l 28 840 l 28 840 b 110 779 60 833 90 807 l 401 396 l 401 96 b 351 7 401 63 378 26 l 351 7 l 351 0 l 563 0 l 563 7 l 563 7 b 513 96 536 26 513 63 l 513 396 z "},"Z":{"ha":793,"x_min":0,"x_max":0,"o":"m 744 0 l 765 69 l 758 69 l 758 69 b 669 21 739 43 711 21 l 179 21 l 757 835 b 751 846 763 842 760 846 l 49 846 l 28 776 l 35 776 l 35 776 b 124 825 54 803 82 825 l 614 825 l 36 11 b 42 0 31 4 33 0 z "},"[":{"ha":299,"x_min":0,"x_max":0,"o":"m 139 783 b 181 825 139 808 156 825 l 271 825 l 271 846 l 28 846 l 28 0 l 271 0 l 271 21 l 181 21 b 139 63 156 21 139 38 z "},"\\":{"ha":546,"x_min":0,"x_max":0,"o":"m 518 0 l 149 846 l 28 846 l 397 0 z "},"]":{"ha":299,"x_min":0,"x_max":0,"o":"m 160 783 l 160 63 b 118 21 160 38 143 21 l 28 21 l 28 0 l 271 0 l 271 846 l 28 846 l 28 825 l 118 825 b 160 783 143 825 160 808 z "},"^":{"ha":489,"x_min":0,"x_max":0,"o":"m 28 626 l 49 626 l 244 786 l 440 626 l 461 626 l 317 846 l 172 846 z "},"_":{"ha":472,"x_min":0,"x_max":0,"o":"m 444 -81 l 28 -81 l 28 -136 l 444 -136 z "},"`":{"ha":207,"x_min":0,"x_max":0,"o":"m 161 681 l 179 692 l 121 846 l 28 783 z "},"a":{"ha":601,"x_min":0,"x_max":0,"o":"m 382 97 b 249 21 349 44 297 21 b 132 126 186 22 132 61 b 240 260 132 197 182 238 b 382 336 290 279 346 294 z m 493 389 b 307 568 493 508 410 568 b 58 485 211 568 136 535 l 58 374 b 242 538 94 489 172 538 b 382 401 317 538 382 483 l 382 371 b 144 265 338 294 231 289 b 21 126 76 246 21 208 b 204 -12 21 38 110 -12 b 382 63 269 -12 338 11 b 478 -12 382 8 429 -12 b 574 17 515 -12 554 0 l 574 24 b 551 18 567 21 560 18 b 493 96 524 18 493 38 z "},"b":{"ha":689,"x_min":0,"x_max":0,"o":"m 189 56 b 385 -21 243 4 314 -21 b 668 282 556 -21 668 108 b 385 568 668 456 556 568 b 189 492 314 568 243 543 l 189 867 l 28 846 l 28 839 l 28 839 b 78 750 54 819 78 783 l 78 96 b 28 7 78 63 54 26 l 28 7 l 28 0 l 133 0 b 189 56 167 0 189 22 z m 189 460 b 358 542 238 514 300 542 b 557 279 483 542 557 429 b 358 6 557 122 478 6 b 189 88 300 6 238 33 z "},"c":{"ha":563,"x_min":0,"x_max":0,"o":"m 131 272 b 335 547 131 460 232 547 b 540 378 421 547 510 488 l 540 489 b 329 568 499 536 414 568 b 21 272 185 568 21 478 b 331 -21 21 64 182 -21 b 542 58 415 -21 500 11 l 542 169 b 338 0 510 57 424 0 b 131 272 233 0 131 89 z "},"d":{"ha":689,"x_min":0,"x_max":0,"o":"m 21 282 b 304 -21 21 108 133 -21 b 500 56 375 -21 446 4 l 500 56 b 556 0 500 22 522 0 l 661 0 l 661 7 l 661 7 b 611 96 635 26 611 63 l 611 867 l 450 846 l 450 839 l 450 839 b 500 750 476 819 500 783 l 500 492 b 304 568 446 543 375 568 b 21 282 133 568 21 456 z m 500 88 b 331 6 451 33 389 6 b 132 279 211 6 132 122 b 331 542 132 429 206 542 b 500 460 389 542 451 514 z "},"e":{"ha":563,"x_min":0,"x_max":0,"o":"m 514 400 b 478 360 519 376 503 360 l 139 360 b 338 542 163 469 242 542 b 514 400 418 542 494 489 z m 338 0 b 131 272 214 0 131 110 b 136 339 131 296 133 318 l 542 339 b 306 568 542 489 447 568 b 21 272 135 568 21 450 b 331 -21 21 96 144 -21 b 542 58 415 -21 500 11 l 542 169 b 338 0 510 57 424 0 z "},"f":{"ha":422,"x_min":0,"x_max":0,"o":"m 382 526 l 382 547 l 217 547 l 217 758 b 282 846 217 814 242 846 b 394 715 328 846 351 800 l 394 826 b 279 867 363 853 321 867 b 106 658 193 867 106 803 l 106 547 l 28 547 l 28 526 l 106 526 l 106 96 b 56 7 106 63 82 26 l 56 0 l 267 0 l 267 7 b 217 96 240 26 217 63 l 217 526 z "},"g":{"ha":619,"x_min":0,"x_max":0,"o":"m 274 156 b 139 350 185 156 139 229 b 274 547 139 472 185 547 b 406 350 360 547 406 472 b 274 156 406 229 360 156 z m 599 -214 b 456 -26 599 -114 546 -42 b 128 63 331 -6 128 -35 b 210 140 128 117 169 132 b 274 135 229 136 251 135 b 517 350 417 135 517 221 b 364 554 517 450 457 525 b 517 614 431 565 482 589 l 517 725 b 274 568 483 618 394 568 b 28 350 131 568 28 479 b 171 151 28 254 83 182 b 28 25 106 132 28 94 b 436 -136 28 -144 306 -112 b 549 -254 518 -151 549 -190 b 326 -435 549 -375 438 -435 b 100 -244 215 -435 100 -369 b 113 -168 100 -221 104 -196 b 101 -158 115 -161 110 -158 b 22 -275 54 -158 21 -217 b 304 -458 25 -390 165 -458 b 599 -214 450 -458 599 -383 z "},"h":{"ha":654,"x_min":0,"x_max":0,"o":"m 28 7 l 28 0 l 239 0 l 239 7 b 189 96 213 26 189 63 l 189 456 b 329 539 225 510 282 539 b 465 401 400 539 465 488 l 465 96 b 415 7 465 63 442 26 l 415 0 l 626 0 l 626 7 b 576 96 600 26 576 63 l 576 389 b 364 568 576 493 476 568 b 189 489 301 568 236 544 l 189 867 l 28 846 l 28 839 b 78 750 54 819 78 783 l 78 96 b 28 7 78 63 54 26 z "},"i":{"ha":267,"x_min":0,"x_max":0,"o":"m 78 706 b 133 650 78 672 100 650 b 189 706 167 650 189 672 b 133 761 189 739 167 761 b 78 706 100 761 78 739 z m 28 547 l 28 540 l 28 540 b 78 451 54 521 78 485 l 78 96 b 28 7 78 63 54 26 l 28 7 l 28 0 l 239 0 l 239 7 l 239 7 b 189 96 213 26 189 63 l 189 568 z "},"j":{"ha":217,"x_min":0,"x_max":0,"o":"m 78 706 b 133 650 78 672 100 650 b 189 706 167 650 189 672 b 133 761 189 739 167 761 b 78 706 100 761 78 739 z m 189 568 l 28 547 l 28 540 l 28 540 b 78 451 54 521 78 485 l 76 -190 b 11 -278 76 -246 51 -278 b -101 -147 -35 -278 -58 -232 l -101 -258 b 14 -299 -69 -285 -28 -299 b 188 -90 100 -299 188 -235 z "},"k":{"ha":622,"x_min":0,"x_max":0,"o":"m 28 846 l 28 839 l 28 839 b 78 750 54 819 78 783 l 78 96 b 28 7 78 63 54 26 l 28 7 l 28 0 l 239 0 l 239 7 l 239 7 b 189 96 213 26 189 63 l 189 867 z m 382 67 b 392 7 399 44 403 24 l 392 0 l 594 0 l 594 6 l 594 6 b 513 67 563 13 535 40 l 297 304 b 297 357 283 319 283 342 l 410 481 b 492 542 433 506 464 540 l 492 542 l 492 547 l 390 547 l 390 540 l 390 540 b 382 481 401 524 396 499 l 204 285 b 204 263 199 278 199 269 z "},"l":{"ha":267,"x_min":0,"x_max":0,"o":"m 28 846 l 28 839 l 28 839 b 78 750 54 819 78 783 l 78 96 b 28 7 78 63 54 26 l 28 7 l 28 0 l 239 0 l 239 7 l 239 7 b 189 96 213 26 189 63 l 189 867 z "},"m":{"ha":1042,"x_min":0,"x_max":0,"o":"m 626 7 l 626 7 b 576 96 600 26 576 63 l 576 389 b 568 440 576 407 574 424 b 717 539 604 503 665 539 b 853 401 788 539 853 488 l 853 96 b 803 7 853 63 829 26 l 803 7 l 803 0 l 1014 0 l 1014 7 l 1014 7 b 964 96 988 26 964 63 l 964 389 b 751 568 964 493 864 568 b 558 464 681 568 607 538 b 364 568 524 528 447 568 b 189 489 301 568 236 544 l 189 568 l 28 547 l 28 540 l 28 540 b 78 451 54 521 78 485 l 78 96 b 28 7 78 63 54 26 l 28 7 l 28 0 l 239 0 l 239 7 l 239 7 b 189 96 213 26 189 63 l 189 456 b 329 539 225 510 282 539 b 465 401 400 539 465 488 l 465 96 b 415 7 465 63 442 26 l 415 7 l 415 0 l 626 0 z "},"n":{"ha":654,"x_min":0,"x_max":0,"o":"m 415 0 l 626 0 l 626 7 b 576 96 600 26 576 63 l 576 389 b 364 568 576 493 476 568 b 189 489 301 568 236 544 l 189 568 l 28 547 l 28 540 b 78 451 54 521 78 485 l 78 96 b 28 7 78 63 54 26 l 28 0 l 239 0 l 239 7 b 189 96 213 26 189 63 l 189 456 b 329 539 225 510 282 539 b 465 401 400 539 465 488 l 465 96 b 415 7 465 63 442 26 z "},"o":{"ha":606,"x_min":0,"x_max":0,"o":"m 21 272 b 304 -21 21 97 135 -21 b 585 272 472 -21 585 97 b 304 568 585 449 472 568 b 21 272 135 568 21 449 z m 132 272 b 304 547 132 438 199 547 b 474 272 407 547 474 438 b 304 0 474 108 407 0 b 132 272 199 0 132 108 z "},"p":{"ha":689,"x_min":0,"x_max":0,"o":"m 189 460 b 358 542 238 514 300 542 b 557 275 478 542 557 436 b 358 6 557 114 478 6 b 189 88 300 6 238 33 z m 28 540 b 78 451 54 521 78 485 l 78 -203 b 28 -292 78 -236 54 -272 l 28 -299 l 239 -299 l 239 -292 b 189 -203 213 -272 189 -236 l 189 56 b 385 -21 243 4 314 -21 b 668 282 556 -21 668 108 b 385 568 668 456 556 568 b 189 492 314 568 243 543 l 189 568 l 28 547 z "},"q":{"ha":689,"x_min":0,"x_max":0,"o":"m 500 88 b 331 6 451 33 389 6 b 132 275 211 6 132 114 b 331 542 132 436 211 542 b 500 460 389 542 451 514 z m 21 275 b 304 -21 21 101 133 -21 b 500 56 375 -21 446 4 l 500 -203 b 450 -292 500 -236 476 -272 l 450 -299 l 661 -299 l 661 -292 b 611 -203 635 -272 611 -236 l 611 451 b 661 540 611 485 635 521 l 661 547 l 556 547 b 500 492 522 547 500 525 b 304 568 446 543 375 568 b 21 275 129 568 21 432 z "},"r":{"ha":503,"x_min":0,"x_max":0,"o":"m 28 0 l 239 0 l 239 7 b 189 96 213 26 189 63 l 189 450 b 336 531 232 499 275 531 b 482 439 396 531 428 496 l 457 547 b 350 568 421 558 386 568 b 189 485 292 568 240 547 l 189 568 l 28 547 l 28 540 b 78 451 54 521 78 485 l 78 96 b 28 7 78 63 54 26 z "},"s":{"ha":493,"x_min":0,"x_max":0,"o":"m 471 150 b 126 449 464 340 126 313 b 239 547 126 508 171 547 b 428 411 307 547 383 493 l 428 522 b 240 568 385 550 310 568 b 21 406 108 568 21 503 b 367 104 21 225 367 247 b 247 0 367 42 319 0 b 21 156 185 0 94 63 l 21 44 b 238 -21 82 6 168 -21 b 471 150 382 -21 475 47 z "},"t":{"ha":390,"x_min":0,"x_max":0,"o":"m 181 721 b 21 547 178 576 149 547 l 21 526 l 90 526 l 90 131 b 243 -11 90 38 164 -11 b 363 25 285 -11 328 0 l 363 136 b 257 10 335 42 292 10 b 201 74 226 10 201 38 l 201 526 l 340 526 l 340 547 l 201 547 l 201 721 z "},"u":{"ha":685,"x_min":0,"x_max":0,"o":"m 465 67 l 465 63 b 657 17 465 -35 614 -22 l 657 24 b 576 96 631 10 576 19 l 576 568 l 415 547 l 415 540 b 465 451 446 518 465 482 l 465 100 b 325 17 429 47 372 17 b 189 154 254 17 189 68 l 189 568 l 28 547 l 28 540 b 78 451 54 521 78 485 l 78 167 b 290 -12 78 63 178 -12 b 465 67 353 -12 418 11 z "},"v":{"ha":671,"x_min":0,"x_max":0,"o":"m 215 481 b 238 540 206 500 206 532 l 238 547 l 21 547 l 21 542 b 90 481 53 535 76 511 l 335 0 l 581 481 b 650 542 594 511 618 535 l 650 547 l 535 547 l 535 540 b 557 481 567 532 567 500 l 386 146 z "},"w":{"ha":950,"x_min":0,"x_max":0,"o":"m 215 481 b 238 540 206 500 206 532 l 238 547 l 21 547 l 21 542 b 90 481 53 535 76 511 l 335 0 l 475 274 l 614 0 l 860 481 b 929 542 874 511 897 535 l 929 547 l 814 547 l 814 540 b 836 481 846 532 846 500 l 665 146 l 538 396 l 581 481 b 650 542 594 511 618 535 l 650 547 l 535 547 l 535 540 b 557 481 567 532 567 500 l 525 419 l 494 481 b 517 540 485 500 485 532 l 517 547 l 300 547 l 300 542 b 369 481 332 535 356 511 l 463 297 l 386 146 z "},"x":{"ha":658,"x_min":0,"x_max":0,"o":"m 581 547 l 481 547 l 481 540 b 472 481 492 524 486 499 l 357 329 l 243 481 b 232 540 229 499 222 524 l 232 547 l 21 547 l 21 542 b 103 481 53 535 83 508 l 288 238 l 158 67 b 76 6 139 39 108 13 l 75 6 l 75 0 l 175 0 l 175 7 b 185 67 165 24 171 49 l 301 219 l 417 67 b 426 7 431 49 438 24 l 426 0 l 638 0 l 638 6 b 556 67 606 13 575 39 l 371 311 l 499 481 b 581 542 518 508 549 535 z "},"y":{"ha":638,"x_min":0,"x_max":0,"o":"m 21 547 l 21 542 b 96 488 53 538 79 517 l 308 61 l 214 -121 b 117 -186 189 -168 150 -186 b 76 -176 101 -186 89 -183 b 132 -121 110 -176 132 -154 b 76 -65 132 -87 110 -65 b 21 -121 43 -65 21 -87 b 117 -207 21 -175 65 -207 b 236 -125 160 -207 207 -182 l 547 481 b 617 542 561 511 585 535 l 617 547 l 501 547 l 501 540 b 524 481 533 532 533 500 l 371 183 l 225 479 b 242 540 214 497 211 529 l 242 547 z "},"z":{"ha":581,"x_min":0,"x_max":0,"o":"m 28 478 l 35 478 l 35 478 b 124 526 54 504 82 526 l 401 526 l 28 0 l 532 0 l 553 69 l 546 69 l 546 69 b 457 21 526 43 499 21 l 179 21 l 553 547 l 49 547 z "},"{":{"ha":303,"x_min":0,"x_max":0,"o":"m 28 422 b 38 411 28 417 31 413 b 96 276 85 404 96 350 l 96 217 b 275 0 96 54 188 0 l 275 21 b 207 165 219 21 207 86 l 207 217 b 90 422 207 340 154 400 b 207 629 154 444 207 506 l 207 689 b 275 825 207 768 219 825 l 275 846 b 96 629 188 846 96 792 l 96 578 b 38 435 96 504 85 443 b 28 424 31 433 28 429 z "},"|":{"ha":167,"x_min":0,"x_max":0,"o":"m 28 0 l 139 0 l 139 846 l 28 846 z "},"}":{"ha":303,"x_min":0,"x_max":0,"o":"m 275 424 b 265 435 275 429 272 433 b 207 569 218 442 207 496 l 207 629 b 28 846 207 792 115 846 l 28 825 b 96 681 83 825 96 760 l 96 629 b 213 424 96 506 149 446 b 96 217 149 401 96 340 l 96 157 b 28 21 96 78 83 21 l 28 0 b 207 217 115 0 207 54 l 207 268 b 265 411 207 342 218 403 b 275 422 272 413 275 417 z "},"~":{"ha":583,"x_min":0,"x_max":0,"o":"m 49 196 b 286 226 76 276 181 247 b 556 349 394 204 503 182 l 535 349 b 306 313 503 261 407 293 b 28 196 192 333 82 363 z "}," ":{"ha":361,"x_min":0,"x_max":0,"o":""},"¡":{"ha":168,"x_min":0,"x_max":0,"o":"m 140 951 b 85 1007 140 985 118 1007 b 29 951 51 1007 29 985 b 85 896 29 918 51 896 b 140 951 118 896 140 918 z m 94 847 l 74 847 l 28 1 l 139 1 z "},"¢":{"ha":563,"x_min":0,"x_max":0,"o":"m 308 568 b 21 272 169 560 21 468 b 308 -21 21 74 167 -12 l 308 -115 l 329 -115 l 329 -21 l 331 -21 b 542 58 415 -21 500 11 l 542 169 b 329 0 513 67 438 0 l 329 547 b 540 378 433 547 513 476 l 540 489 b 329 568 499 536 414 568 l 329 671 l 308 671 z m 131 272 b 308 546 131 443 215 532 l 308 3 b 131 272 215 18 131 106 z "},"£":{"ha":629,"x_min":0,"x_max":0,"o":"m 167 111 b 181 425 203 210 193 311 l 294 425 l 294 446 l 178 446 b 163 657 171 511 163 582 b 306 846 163 775 231 846 b 497 625 379 846 461 779 l 497 736 b 294 867 458 826 376 865 b 56 657 175 867 53 785 b 74 446 57 583 67 513 l 28 446 l 28 425 l 75 425 b 56 111 88 313 94 208 l 56 0 l 551 0 l 601 160 l 594 160 l 594 160 b 506 111 575 133 547 111 z "},"¤":{"ha":636,"x_min":0,"x_max":0,"o":"m 61 421 b 115 263 61 358 81 304 l 28 160 l 113 89 l 204 197 b 319 176 238 183 276 176 b 432 197 361 176 399 183 l 524 89 l 608 160 l 522 261 b 576 421 557 303 576 357 b 522 581 576 485 557 539 l 608 682 l 524 753 l 435 646 b 319 668 401 660 363 668 b 203 646 276 668 238 661 l 113 753 l 28 682 l 114 581 b 61 421 81 539 61 483 z m 163 421 b 319 650 163 558 224 650 b 475 421 414 650 475 558 b 319 193 475 283 414 193 b 163 421 224 193 163 283 z "},"¥":{"ha":913,"x_min":0,"x_max":0,"o":"m 654 426 l 536 426 l 803 779 b 885 840 822 807 853 833 l 885 840 l 885 846 l 793 846 l 793 839 l 793 839 b 782 779 803 822 796 797 l 517 426 l 250 779 b 239 839 236 797 229 822 l 239 839 l 239 846 l 28 846 l 28 840 l 28 840 b 110 779 60 833 90 807 l 378 426 l 260 426 l 260 371 l 401 371 l 401 276 l 260 276 l 260 221 l 401 221 l 401 96 b 351 7 401 63 378 26 l 351 7 l 351 0 l 563 0 l 563 7 l 563 7 b 513 96 536 26 513 63 l 513 221 l 654 221 l 654 276 l 513 276 l 513 371 l 654 371 z "},"¦":{"ha":111,"x_min":0,"x_max":0,"o":"m 28 846 l 28 547 l 83 547 l 83 846 z m 28 299 l 28 0 l 83 0 l 83 299 z "},"§":{"ha":713,"x_min":0,"x_max":0,"o":"m 28 78 b 289 -1 96 29 197 -1 b 538 174 390 -1 528 44 b 683 350 615 197 686 250 b 275 732 681 582 275 529 b 390 831 275 783 317 831 b 600 713 485 831 550 779 l 600 797 b 392 846 540 825 463 846 b 190 688 296 846 190 800 b 190 681 190 685 190 683 b 43 528 114 665 43 619 b 456 154 43 314 456 347 b 283 14 456 82 393 13 b 28 163 181 14 100 99 z m 538 201 b 128 572 521 419 128 374 b 193 661 128 610 151 646 b 601 314 226 476 601 499 b 538 201 601 271 579 228 z "},"¨":{"ha":329,"x_min":0,"x_max":0,"o":"m 190 790 b 246 735 190 757 213 735 b 301 790 279 735 301 757 b 246 846 301 824 279 846 b 190 790 213 846 190 824 z m 28 790 b 83 735 28 757 50 735 b 139 790 117 735 139 757 b 83 846 139 824 117 846 b 28 790 50 846 28 824 z "},"©":{"ha":922,"x_min":0,"x_max":0,"o":"m 21 424 b 461 -21 21 157 194 -21 b 901 424 728 -21 901 157 b 461 867 901 689 728 867 b 21 424 194 867 21 689 z m 132 424 b 461 846 132 676 263 846 b 790 424 661 846 790 676 b 461 0 790 169 661 0 b 132 424 263 0 132 169 z m 500 186 b 654 231 564 186 625 215 l 654 290 b 500 197 638 249 569 197 b 324 425 394 197 324 289 b 500 651 324 560 394 651 b 654 558 569 651 638 600 l 654 618 b 500 663 624 635 564 663 b 265 425 358 663 265 567 b 500 186 265 282 358 186 z "},"ª":{"ha":214,"x_min":0,"x_max":0,"o":"m 168 790 b 110 846 168 828 142 846 b 32 821 81 846 57 836 l 32 786 b 89 836 43 821 68 836 b 133 794 113 836 133 819 l 133 785 b 60 751 119 761 86 758 b 21 708 38 744 21 735 b 78 665 21 681 49 665 b 133 689 99 665 119 674 b 193 675 133 658 179 663 l 193 676 b 168 699 185 672 168 675 z m 133 700 b 92 676 122 683 107 676 b 56 708 72 676 56 689 b 89 750 56 731 71 743 b 133 774 104 757 122 761 z "},"«":{"ha":590,"x_min":0,"x_max":0,"o":"m 251 272 l 489 -3 l 563 -3 l 326 272 l 325 272 l 563 547 l 488 547 z m 28 272 l 265 -3 l 339 -3 l 103 272 l 101 272 l 339 547 l 264 547 z "},"¬":{"ha":601,"x_min":0,"x_max":0,"o":"m 511 328 b 553 286 536 328 553 311 l 553 150 l 574 150 l 574 439 l 28 439 l 28 328 z "},"­":{"ha":556,"x_min":0,"x_max":0,"o":"m 28 246 l 528 246 l 528 301 l 28 301 z "},"®":{"ha":922,"x_min":0,"x_max":0,"o":"m 21 424 b 461 -21 21 157 194 -21 b 901 424 728 -21 901 157 b 461 867 901 689 728 867 b 21 424 194 867 21 689 z m 132 424 b 461 846 132 676 263 846 b 790 424 661 846 790 676 b 461 0 790 169 661 0 b 132 424 263 0 132 169 z m 474 363 b 639 511 585 363 639 438 b 479 651 639 583 585 651 l 257 651 l 257 647 l 257 647 b 283 601 271 638 283 618 l 283 257 b 257 210 283 239 271 221 l 257 210 l 257 207 l 368 207 l 368 210 l 368 210 b 342 257 354 221 342 239 l 342 363 l 389 363 b 576 196 474 363 456 196 b 665 268 622 196 665 224 b 658 288 665 278 663 286 l 658 288 b 596 236 658 260 631 236 b 432 363 529 236 496 331 z m 465 640 b 579 511 540 640 579 576 b 460 374 579 443 540 374 l 342 374 l 342 611 b 371 640 342 629 353 640 z "},"¯":{"ha":472,"x_min":0,"x_max":0,"o":"m 444 654 l 28 654 l 28 597 l 444 597 z "},"°":{"ha":289,"x_min":0,"x_max":0,"o":"m 261 729 b 144 846 261 799 214 846 b 28 729 75 846 28 799 b 144 613 28 660 75 613 b 261 729 214 613 261 660 z m 200 729 b 144 674 200 696 178 674 b 89 729 111 674 89 696 b 144 785 89 763 111 785 b 200 729 178 785 200 763 z "},"±":{"ha":514,"x_min":0,"x_max":0,"o":"m 229 544 l 229 343 l 28 343 l 28 288 l 229 288 l 229 86 l 285 86 l 285 288 l 486 288 l 486 343 l 285 343 l 285 544 z m 486 56 l 28 56 l 28 0 l 486 0 z "},"²":{"ha":239,"x_min":0,"x_max":0,"o":"m 196 576 l 211 626 l 210 626 l 210 626 b 182 611 203 618 194 611 l 47 611 b 211 769 88 664 210 686 b 131 846 211 824 174 846 b 28 806 94 846 56 826 l 28 771 b 121 839 58 810 88 839 b 178 783 160 839 178 813 b 28 576 179 694 28 663 z "},"³":{"ha":236,"x_min":0,"x_max":0,"o":"m 88 713 l 88 706 l 115 706 b 181 642 161 706 181 678 b 111 576 181 603 147 576 b 28 638 79 576 54 597 l 28 604 b 111 569 49 581 79 569 b 215 642 164 569 215 600 b 135 711 215 679 189 706 b 196 781 176 724 196 753 b 111 846 194 824 154 846 b 38 815 83 846 54 836 l 38 781 b 108 839 47 821 79 839 b 161 782 142 839 161 811 b 90 713 163 749 139 713 z "},"´":{"ha":199,"x_min":0,"x_max":0,"o":"m 49 681 l 171 846 l 60 846 l 28 681 z "},"µ":{"ha":685,"x_min":0,"x_max":0,"o":"m 28 547 l 28 540 b 78 451 54 521 78 485 l 78 -200 b 28 -289 78 -233 54 -269 l 28 -296 l 239 -296 l 239 -289 b 189 -200 213 -269 189 -233 l 189 10 b 290 -12 219 -4 254 -12 b 465 67 353 -12 418 11 l 465 63 b 657 17 465 -35 614 -22 l 657 24 b 576 96 631 10 576 19 l 576 568 l 415 547 l 415 540 b 465 451 446 518 465 482 l 465 100 b 325 17 429 47 372 17 b 189 154 254 17 189 68 l 189 568 z "},"¶":{"ha":647,"x_min":0,"x_max":0,"o":"m 619 846 l 325 846 b 22 578 124 846 25 717 b 336 297 19 439 125 297 l 428 297 l 428 96 b 378 7 428 63 404 26 l 378 7 l 378 0 l 619 0 l 619 7 l 619 7 b 569 96 593 26 569 63 l 569 750 b 619 839 569 783 593 819 l 619 839 z m 372 825 b 428 769 406 825 428 803 l 428 318 l 361 318 b 135 578 208 318 135 449 b 353 825 135 703 208 825 z m 499 21 b 449 96 469 21 449 51 l 449 750 b 499 825 449 796 468 825 b 549 750 529 825 549 796 l 549 96 b 499 21 549 50 529 21 z "},"·":{"ha":222,"x_min":0,"x_max":0,"o":"m 194 272 b 111 356 194 322 161 356 b 28 272 61 356 28 322 b 111 189 28 222 61 189 b 194 272 161 189 194 222 z "},"¸":{"ha":260,"x_min":0,"x_max":0,"o":"m 71 -182 b 188 -250 139 -182 188 -207 b 28 -240 188 -307 79 -318 l 28 -286 b 232 -228 117 -346 232 -311 b 106 -128 232 -164 169 -133 l 138 0 l 117 0 z "},"¹":{"ha":122,"x_min":0,"x_max":0,"o":"m 72 846 b 28 804 72 817 51 804 b 28 797 28 804 28 797 l 28 797 b 44 797 38 797 38 797 l 44 606 b 28 579 44 596 36 585 l 28 579 l 28 576 l 94 576 l 94 579 l 94 579 b 78 606 86 585 78 596 l 78 846 z "},"º":{"ha":253,"x_min":0,"x_max":0,"o":"m 21 708 b 126 569 21 625 65 569 b 232 708 188 569 232 625 b 126 846 232 790 188 846 b 21 708 65 846 21 790 z m 56 708 b 126 839 56 786 81 839 b 197 708 172 839 197 786 b 126 576 197 629 172 576 b 56 708 81 576 56 629 z "},"»":{"ha":590,"x_min":0,"x_max":0,"o":"m 339 272 l 103 547 l 28 547 l 265 272 l 264 272 l 28 -3 l 101 -3 z m 563 272 l 326 547 l 251 547 l 489 272 l 488 272 l 251 -3 l 325 -3 z "},"¼":{"ha":578,"x_min":0,"x_max":0,"o":"m 28 0 l 149 0 l 518 846 l 397 846 z m 72 846 b 28 804 72 817 51 804 b 28 797 28 804 28 797 l 28 797 b 44 797 38 797 38 797 l 44 606 b 28 579 44 596 36 585 l 28 579 l 28 576 l 94 576 l 94 579 l 94 579 b 78 606 86 585 78 596 l 78 846 z m 439 285 b 369 100 439 225 418 161 l 483 100 l 483 29 b 468 3 483 19 476 8 l 468 3 l 468 0 l 533 0 l 533 3 l 533 3 b 518 29 525 8 518 19 l 518 100 l 535 100 l 550 150 l 547 150 l 547 150 b 521 135 542 142 533 135 l 518 135 l 518 263 l 511 263 l 483 221 l 483 135 l 404 135 b 472 285 439 178 472 232 z "},"½":{"ha":624,"x_min":0,"x_max":0,"o":"m 28 0 l 149 0 l 518 846 l 397 846 z m 72 846 b 28 804 72 817 51 804 b 28 797 28 804 28 797 l 28 797 b 44 797 38 797 38 797 l 44 606 b 28 579 44 596 36 585 l 28 579 l 28 576 l 94 576 l 94 579 l 94 579 b 78 606 86 585 78 596 l 78 846 z m 581 0 l 596 50 l 594 50 l 594 50 b 567 35 588 42 579 35 l 432 35 b 596 193 472 88 594 110 b 515 269 596 247 558 269 b 413 229 479 269 440 250 l 413 194 b 506 263 443 233 472 263 b 563 207 544 263 563 236 b 413 0 564 118 413 86 z "},"¾":{"ha":629,"x_min":0,"x_max":0,"o":"m 88 713 l 88 706 l 115 706 b 181 642 161 706 181 678 b 111 576 181 603 147 576 b 28 638 79 576 54 597 l 28 604 b 111 569 49 581 79 569 b 215 642 164 569 215 600 b 135 711 215 679 189 706 b 196 781 176 724 196 753 b 111 846 194 824 154 846 b 38 815 83 846 54 836 l 38 781 b 108 839 47 821 79 839 b 161 782 142 839 161 811 b 90 713 163 749 139 713 z m 79 0 l 200 0 l 569 846 l 449 846 z m 490 285 b 421 100 490 225 469 161 l 535 100 l 535 29 b 519 3 535 19 528 8 l 519 3 l 519 0 l 585 0 l 585 3 l 585 3 b 569 29 576 8 569 19 l 569 100 l 586 100 l 601 150 l 599 150 l 599 150 b 572 135 593 142 585 135 l 569 135 l 569 263 l 563 263 l 535 221 l 535 135 l 456 135 b 524 285 490 178 524 232 z "},"¿":{"ha":617,"x_min":0,"x_max":0,"o":"m 506 951 b 450 1007 506 985 483 1007 b 394 951 417 1007 394 985 b 450 896 394 918 417 896 b 506 951 483 896 506 918 z m 461 838 b 451 847 461 843 457 847 b 440 838 444 847 440 843 b 29 263 433 551 21 599 b 332 -19 33 99 172 -22 b 589 158 438 -18 540 38 l 589 269 b 347 1 547 82 444 1 b 136 222 218 1 136 107 b 461 838 136 554 457 438 z "},"À":{"ha":983,"x_min":0,"x_max":0,"o":"m 540 894 l 558 906 l 500 1060 l 407 997 z m 761 67 b 739 7 771 47 771 15 l 739 7 l 739 0 l 956 0 l 956 6 l 956 6 b 886 67 924 13 900 36 l 493 846 l 97 67 b 28 6 83 36 60 13 l 28 6 l 28 0 l 143 0 l 143 7 l 143 7 b 121 67 111 15 111 47 l 231 282 l 653 282 z m 442 699 l 642 303 l 240 303 z "},"Á":{"ha":983,"x_min":0,"x_max":0,"o":"m 481 904 l 603 1069 l 492 1069 l 460 904 z m 761 67 b 739 7 771 47 771 15 l 739 7 l 739 0 l 956 0 l 956 6 l 956 6 b 886 67 924 13 900 36 l 493 846 l 97 67 b 28 6 83 36 60 13 l 28 6 l 28 0 l 143 0 l 143 7 l 143 7 b 121 67 111 15 111 47 l 231 282 l 653 282 z m 442 699 l 642 303 l 240 303 z "},"Â":{"ha":983,"x_min":0,"x_max":0,"o":"m 275 846 l 296 846 l 492 1006 l 688 846 l 708 846 l 564 1065 l 419 1065 z m 761 67 b 739 7 771 47 771 15 l 739 7 l 739 0 l 956 0 l 956 6 l 956 6 b 886 67 924 13 900 36 l 493 846 l 97 67 b 28 6 83 36 60 13 l 28 6 l 28 0 l 143 0 l 143 7 l 143 7 b 121 67 111 15 111 47 l 231 282 l 653 282 z m 442 699 l 642 303 l 240 303 z "},"Ã":{"ha":983,"x_min":0,"x_max":0,"o":"m 249 892 b 486 922 276 972 381 943 b 756 1044 594 900 703 878 l 735 1044 b 506 1008 703 957 607 989 b 228 892 392 1029 282 1058 z m 761 67 b 739 7 771 47 771 15 l 739 7 l 739 0 l 956 0 l 956 6 l 956 6 b 886 67 924 13 900 36 l 493 846 l 97 67 b 28 6 83 36 60 13 l 28 6 l 28 0 l 143 0 l 143 7 l 143 7 b 121 67 111 15 111 47 l 231 282 l 653 282 z m 442 699 l 642 303 l 240 303 z "},"Ä":{"ha":983,"x_min":0,"x_max":0,"o":"m 518 921 b 574 865 518 888 540 865 b 629 921 607 865 629 888 b 574 976 629 954 607 976 b 518 921 540 976 518 954 z m 356 921 b 411 865 356 888 378 865 b 467 921 444 865 467 888 b 411 976 467 954 444 976 b 356 921 378 976 356 954 z m 761 67 b 739 7 771 47 771 15 l 739 7 l 739 0 l 956 0 l 956 6 l 956 6 b 886 67 924 13 900 36 l 493 846 l 97 67 b 28 6 83 36 60 13 l 28 6 l 28 0 l 143 0 l 143 7 l 143 7 b 121 67 111 15 111 47 l 231 282 l 653 282 z m 442 699 l 642 303 l 240 303 z "},"Å":{"ha":983,"x_min":0,"x_max":0,"o":"m 608 993 b 492 1110 608 1063 561 1110 b 375 993 422 1110 375 1063 b 492 876 375 924 422 876 b 608 993 561 876 608 924 z m 547 993 b 492 938 547 960 525 938 b 436 993 458 938 436 960 b 492 1049 436 1026 458 1049 b 547 993 525 1049 547 1026 z m 761 67 b 739 7 771 47 771 15 l 739 7 l 739 0 l 956 0 l 956 6 l 956 6 b 886 67 924 13 900 36 l 493 846 l 97 67 b 28 6 83 36 60 13 l 28 6 l 28 0 l 143 0 l 143 7 l 143 7 b 121 67 111 15 111 47 l 231 282 l 653 282 z m 442 699 l 642 303 l 240 303 z "},"Æ":{"ha":1204,"x_min":0,"x_max":0,"o":"m 143 0 l 143 7 l 143 7 b 121 67 111 15 111 47 l 231 282 l 604 282 l 604 96 b 554 7 604 63 581 26 l 554 0 l 1156 0 l 1176 69 l 1169 69 b 1081 21 1150 43 1122 21 l 771 21 b 715 76 738 21 715 43 l 715 414 l 953 414 b 1035 365 994 414 1015 392 l 1042 365 l 1042 483 l 1035 483 b 953 435 1015 457 994 435 l 715 435 l 715 769 b 771 825 715 803 738 825 l 1081 825 b 1169 776 1122 825 1150 803 l 1176 776 l 1156 846 l 493 846 l 97 67 b 28 6 83 36 60 13 l 28 6 l 28 0 z m 488 788 b 549 825 499 810 524 825 l 563 825 b 604 783 588 825 604 808 l 604 303 l 240 303 z "},"Ç":{"ha":783,"x_min":0,"x_max":0,"o":"m 468 -21 b 756 63 586 -21 700 33 l 756 174 b 468 0 722 94 597 0 b 139 424 269 0 139 169 b 468 846 139 676 269 846 b 756 672 597 846 722 751 l 756 783 b 468 867 699 817 586 867 b 28 424 201 867 28 689 b 376 -14 28 189 163 22 l 333 -182 b 450 -250 401 -182 450 -207 b 290 -240 450 -307 342 -318 l 290 -286 b 494 -228 379 -346 494 -311 b 368 -128 494 -164 432 -133 l 396 -17 b 468 -21 419 -19 443 -21 z "},"È":{"ha":678,"x_min":0,"x_max":0,"o":"m 397 899 l 415 910 l 357 1064 l 264 1001 z m 189 769 b 244 825 189 803 211 825 l 554 825 b 643 776 596 825 624 803 l 650 776 l 629 846 l 28 846 l 28 839 b 78 750 54 819 78 783 l 78 96 b 28 7 78 63 54 26 l 28 0 l 629 0 l 650 69 l 643 69 b 554 21 624 43 596 21 l 244 21 b 189 76 211 21 189 43 l 189 414 l 426 414 b 508 365 468 414 489 392 l 515 365 l 515 483 l 508 483 b 426 435 489 457 468 435 l 189 435 z "},"É":{"ha":678,"x_min":0,"x_max":0,"o":"m 361 899 l 483 1064 l 372 1064 l 340 899 z m 189 769 b 244 825 189 803 211 825 l 554 825 b 643 776 596 825 624 803 l 650 776 l 629 846 l 28 846 l 28 839 b 78 750 54 819 78 783 l 78 96 b 28 7 78 63 54 26 l 28 0 l 629 0 l 650 69 l 643 69 b 554 21 624 43 596 21 l 244 21 b 189 76 211 21 189 43 l 189 414 l 426 414 b 508 365 468 414 489 392 l 515 365 l 515 483 l 508 483 b 426 435 489 457 468 435 l 189 435 z "},"Ê":{"ha":678,"x_min":0,"x_max":0,"o":"m 122 899 l 143 899 l 339 1058 l 535 899 l 556 899 l 411 1118 l 267 1118 z m 189 769 b 244 825 189 803 211 825 l 554 825 b 643 776 596 825 624 803 l 650 776 l 629 846 l 28 846 l 28 839 b 78 750 54 819 78 783 l 78 96 b 28 7 78 63 54 26 l 28 0 l 629 0 l 650 69 l 643 69 b 554 21 624 43 596 21 l 244 21 b 189 76 211 21 189 43 l 189 414 l 426 414 b 508 365 468 414 489 392 l 515 365 l 515 483 l 508 483 b 426 435 489 457 468 435 l 189 435 z "},"Ë":{"ha":678,"x_min":0,"x_max":0,"o":"m 365 954 b 421 899 365 921 388 899 b 476 954 454 899 476 921 b 421 1010 476 988 454 1010 b 365 954 388 1010 365 988 z m 203 954 b 258 899 203 921 225 899 b 314 954 292 899 314 921 b 258 1010 314 988 292 1010 b 203 954 225 1010 203 988 z m 189 769 b 244 825 189 803 211 825 l 554 825 b 643 776 596 825 624 803 l 650 776 l 629 846 l 28 846 l 28 839 b 78 750 54 819 78 783 l 78 96 b 28 7 78 63 54 26 l 28 0 l 629 0 l 650 69 l 643 69 b 554 21 624 43 596 21 l 244 21 b 189 76 211 21 189 43 l 189 414 l 426 414 b 508 365 468 414 489 392 l 515 365 l 515 483 l 508 483 b 426 435 489 457 468 435 l 189 435 z "},"Ì":{"ha":267,"x_min":0,"x_max":0,"o":"m 192 899 l 210 910 l 151 1064 l 58 1001 z m 28 846 l 28 839 l 28 839 b 78 750 54 819 78 783 l 78 96 b 28 7 78 63 54 26 l 28 7 l 28 0 l 239 0 l 239 7 l 239 7 b 189 96 213 26 189 63 l 189 750 b 239 839 189 783 213 819 l 239 839 l 239 846 z "},"Í":{"ha":267,"x_min":0,"x_max":0,"o":"m 83 899 l 206 1064 l 94 1064 l 63 899 z m 28 846 l 28 839 l 28 839 b 78 750 54 819 78 783 l 78 96 b 28 7 78 63 54 26 l 28 7 l 28 0 l 239 0 l 239 7 l 239 7 b 189 96 213 26 189 63 l 189 750 b 239 839 189 783 213 819 l 239 839 l 239 846 z "},"Î":{"ha":267,"x_min":0,"x_max":0,"o":"m 218 899 l 239 899 l 172 1000 l 94 1000 l 28 899 l 49 899 l 111 953 b 153 953 124 964 140 964 z m 28 846 l 28 839 l 28 839 b 78 750 54 819 78 783 l 78 96 b 28 7 78 63 54 26 l 28 7 l 28 0 l 239 0 l 239 7 l 239 7 b 189 96 213 26 189 63 l 189 750 b 239 839 189 783 213 819 l 239 839 l 239 846 z "},"Ï":{"ha":267,"x_min":0,"x_max":0,"o":"m 28 954 b 83 899 28 921 50 899 b 133 928 107 899 125 910 b 183 899 142 910 160 899 b 239 954 217 899 239 921 b 183 1010 239 988 217 1010 b 133 981 160 1010 142 999 b 83 1010 125 999 107 1010 b 28 954 50 1010 28 988 z m 28 846 l 28 839 l 28 839 b 78 750 54 819 78 783 l 78 96 b 28 7 78 63 54 26 l 28 7 l 28 0 l 239 0 l 239 7 l 239 7 b 189 96 213 26 189 63 l 189 750 b 239 839 189 783 213 819 l 239 839 l 239 846 z "},"Ð":{"ha":872,"x_min":0,"x_max":0,"o":"m 232 0 b 444 1 304 0 367 1 b 851 419 707 1 851 204 b 443 846 851 635 707 846 l 71 846 l 71 839 l 71 839 b 121 750 97 819 121 783 l 121 451 l 28 451 l 28 396 l 121 396 l 121 96 b 71 7 121 63 97 26 l 71 7 l 71 0 z m 288 825 b 428 826 315 825 343 826 b 740 431 649 826 740 622 b 429 22 740 238 649 22 b 288 21 385 22 342 21 b 232 76 254 21 232 43 l 232 396 l 324 396 l 324 451 l 232 451 l 232 769 b 288 825 232 803 254 825 z "},"Ñ":{"ha":932,"x_min":0,"x_max":0,"o":"m 224 896 b 461 926 251 976 356 947 b 731 1049 569 904 678 882 l 710 1049 b 481 1013 678 961 582 993 b 203 896 367 1033 257 1063 z m 854 0 l 854 750 b 904 839 854 783 878 819 l 904 839 l 904 846 l 783 846 l 783 839 l 783 839 b 833 750 810 819 833 783 l 833 163 l 200 846 l 28 846 l 28 840 l 28 840 b 110 779 54 839 78 813 l 138 749 l 138 96 b 88 7 138 63 114 26 l 88 7 l 88 0 l 208 0 l 208 7 l 208 7 b 158 96 182 26 158 63 l 158 726 l 833 0 z "},"Ò":{"ha":922,"x_min":0,"x_max":0,"o":"m 519 899 l 538 910 l 479 1064 l 386 1001 z m 21 424 b 461 -21 21 157 194 -21 b 901 424 728 -21 901 157 b 461 867 901 689 728 867 b 21 424 194 867 21 689 z m 132 424 b 461 846 132 676 263 846 b 790 424 661 846 790 676 b 461 0 790 169 661 0 b 132 424 263 0 132 169 z "},"Ó":{"ha":922,"x_min":0,"x_max":0,"o":"m 411 899 l 533 1064 l 422 1064 l 390 899 z m 21 424 b 461 -21 21 157 194 -21 b 901 424 728 -21 901 157 b 461 867 901 689 728 867 b 21 424 194 867 21 689 z m 132 424 b 461 846 132 676 263 846 b 790 424 661 846 790 676 b 461 0 790 169 661 0 b 132 424 263 0 132 169 z "},"Ô":{"ha":922,"x_min":0,"x_max":0,"o":"m 244 899 l 265 899 l 461 1058 l 657 899 l 678 899 l 533 1118 l 389 1118 z m 21 424 b 461 -21 21 157 194 -21 b 901 424 728 -21 901 157 b 461 867 901 689 728 867 b 21 424 194 867 21 689 z m 132 424 b 461 846 132 676 263 846 b 790 424 661 846 790 676 b 461 0 790 169 661 0 b 132 424 263 0 132 169 z "},"Õ":{"ha":922,"x_min":0,"x_max":0,"o":"m 218 899 b 456 929 246 979 350 950 b 725 1051 564 907 672 885 l 704 1051 b 475 1015 672 964 576 996 b 197 899 361 1036 251 1065 z m 21 424 b 461 -21 21 157 194 -21 b 901 424 728 -21 901 157 b 461 867 901 689 728 867 b 21 424 194 867 21 689 z m 132 424 b 461 846 132 676 263 846 b 790 424 661 846 790 676 b 461 0 790 169 661 0 b 132 424 263 0 132 169 z "},"Ö":{"ha":922,"x_min":0,"x_max":0,"o":"m 488 954 b 543 899 488 921 510 899 b 599 954 576 899 599 921 b 543 1010 599 988 576 1010 b 488 954 510 1010 488 988 z m 325 954 b 381 899 325 921 347 899 b 436 954 414 899 436 921 b 381 1010 436 988 414 1010 b 325 954 347 1010 325 988 z m 21 424 b 461 -21 21 157 194 -21 b 901 424 728 -21 901 157 b 461 867 901 689 728 867 b 21 424 194 867 21 689 z m 132 424 b 461 846 132 676 263 846 b 790 424 661 846 790 676 b 461 0 790 169 661 0 b 132 424 263 0 132 169 z "},"×":{"ha":422,"x_min":0,"x_max":0,"o":"m 28 415 l 172 275 l 32 131 l 71 92 l 211 236 l 356 96 l 394 135 l 250 275 l 390 419 l 351 458 l 211 314 l 67 454 z "},"Ø":{"ha":922,"x_min":0,"x_max":0,"o":"m 21 424 b 269 15 21 228 114 81 l 235 -64 l 258 -64 l 289 7 b 461 -21 340 -11 399 -21 b 901 424 728 -21 901 157 b 647 833 901 621 806 769 l 679 908 l 656 908 l 626 840 b 461 867 576 857 521 867 b 21 424 194 867 21 689 z m 132 424 b 461 846 132 676 263 846 b 613 807 518 846 568 832 l 286 54 b 132 424 189 124 132 256 z m 631 796 b 790 424 731 728 790 594 b 461 0 790 169 661 0 b 304 42 403 0 350 14 z "},"Ù":{"ha":804,"x_min":0,"x_max":0,"o":"m 460 899 l 478 910 l 419 1064 l 326 1001 z m 726 750 b 776 839 726 783 750 819 l 776 839 l 776 846 l 656 846 l 656 839 l 656 839 b 706 750 682 819 706 783 l 706 281 b 450 29 703 129 600 29 b 189 281 293 29 189 129 l 189 750 b 239 839 189 783 213 819 l 239 839 l 239 846 l 28 846 l 28 839 l 28 839 b 78 750 54 819 78 783 l 78 282 b 415 0 78 113 213 0 b 726 281 601 0 726 113 z "},"Ú":{"ha":804,"x_min":0,"x_max":0,"o":"m 453 899 l 575 1064 l 464 1064 l 432 899 z m 726 750 b 776 839 726 783 750 819 l 776 839 l 776 846 l 656 846 l 656 839 l 656 839 b 706 750 682 819 706 783 l 706 281 b 450 29 703 129 600 29 b 189 281 293 29 189 129 l 189 750 b 239 839 189 783 213 819 l 239 839 l 239 846 l 28 846 l 28 839 l 28 839 b 78 750 54 819 78 783 l 78 282 b 415 0 78 113 213 0 b 726 281 601 0 726 113 z "},"Û":{"ha":804,"x_min":0,"x_max":0,"o":"m 232 897 l 253 897 l 449 1057 l 644 897 l 665 897 l 521 1117 l 376 1117 z m 726 750 b 776 839 726 783 750 819 l 776 839 l 776 846 l 656 846 l 656 839 l 656 839 b 706 750 682 819 706 783 l 706 281 b 450 29 703 129 600 29 b 189 281 293 29 189 129 l 189 750 b 239 839 189 783 213 819 l 239 839 l 239 846 l 28 846 l 28 839 l 28 839 b 78 750 54 819 78 783 l 78 282 b 415 0 78 113 213 0 b 726 281 601 0 726 113 z "},"Ü":{"ha":804,"x_min":0,"x_max":0,"o":"m 474 954 b 529 899 474 921 496 899 b 585 954 563 899 585 921 b 529 1010 585 988 563 1010 b 474 954 496 1010 474 988 z m 311 954 b 367 899 311 921 333 899 b 422 954 400 899 422 921 b 367 1010 422 988 400 1010 b 311 954 333 1010 311 988 z m 726 750 b 776 839 726 783 750 819 l 776 839 l 776 846 l 656 846 l 656 839 l 656 839 b 706 750 682 819 706 783 l 706 281 b 450 29 703 129 600 29 b 189 281 293 29 189 129 l 189 750 b 239 839 189 783 213 819 l 239 839 l 239 846 l 28 846 l 28 839 l 28 839 b 78 750 54 819 78 783 l 78 282 b 415 0 78 113 213 0 b 726 281 601 0 726 113 z "},"Ý":{"ha":913,"x_min":0,"x_max":0,"o":"m 504 899 l 626 1064 l 515 1064 l 483 899 z m 803 779 b 885 840 822 807 853 833 l 885 840 l 885 846 l 793 846 l 793 839 l 793 839 b 782 779 803 822 796 797 l 517 426 l 250 779 b 239 839 236 797 229 822 l 239 839 l 239 846 l 28 846 l 28 840 l 28 840 b 110 779 60 833 90 807 l 401 396 l 401 96 b 351 7 401 63 378 26 l 351 7 l 351 0 l 563 0 l 563 7 l 563 7 b 513 96 536 26 513 63 l 513 396 z "},"Þ":{"ha":632,"x_min":0,"x_max":0,"o":"m 28 846 l 28 839 l 28 839 b 78 750 54 819 78 783 l 78 96 b 28 7 78 63 54 26 l 28 7 l 28 0 l 239 0 l 239 7 l 239 7 b 189 96 213 26 189 63 l 189 271 l 385 271 b 372 690 688 271 688 690 l 189 690 l 189 867 z m 189 669 l 338 669 b 338 292 553 669 553 292 l 189 292 z "},"ß":{"ha":690,"x_min":0,"x_max":0,"o":"m 338 426 b 358 404 338 414 346 406 b 560 175 493 393 560 276 b 436 21 560 93 524 21 b 289 151 382 21 329 67 l 289 40 b 440 0 336 13 389 0 b 669 196 578 0 669 78 b 385 426 669 308 579 426 b 610 638 536 426 611 532 b 340 867 608 790 474 865 b 78 651 208 867 78 794 l 78 96 b 28 7 78 63 54 26 l 28 7 l 28 0 l 239 0 l 239 7 l 239 7 b 189 96 213 26 189 63 l 189 651 b 340 846 189 781 264 846 b 499 638 419 846 499 776 b 358 449 499 549 453 460 b 338 426 346 447 338 439 z "},"à":{"ha":601,"x_min":0,"x_max":0,"o":"m 358 681 l 376 692 l 318 846 l 225 783 z m 493 389 b 307 568 493 508 410 568 b 58 485 211 568 136 535 l 58 374 b 242 538 94 489 172 538 b 382 401 317 538 382 483 l 382 371 b 144 265 338 294 231 289 b 21 126 76 246 21 208 b 204 -12 21 38 110 -12 b 382 63 269 -12 338 11 b 574 17 382 -35 531 -22 l 574 24 b 493 96 547 10 493 19 z m 382 97 b 249 21 349 44 297 21 b 132 126 186 22 132 61 b 240 260 132 197 182 238 b 382 336 290 279 346 294 z "},"á":{"ha":601,"x_min":0,"x_max":0,"o":"m 250 681 l 372 846 l 261 846 l 229 681 z m 493 389 b 307 568 493 508 410 568 b 58 485 211 568 136 535 l 58 374 b 242 538 94 489 172 538 b 382 401 317 538 382 483 l 382 371 b 144 265 338 294 231 289 b 21 126 76 246 21 208 b 204 -12 21 38 110 -12 b 382 63 269 -12 338 11 b 574 17 382 -35 531 -22 l 574 24 b 493 96 547 10 493 19 z m 382 97 b 249 21 349 44 297 21 b 132 126 186 22 132 61 b 240 260 132 197 182 238 b 382 336 290 279 346 294 z "},"â":{"ha":601,"x_min":0,"x_max":0,"o":"m 65 626 l 86 626 l 282 786 l 478 626 l 499 626 l 354 846 l 210 846 z m 493 389 b 307 568 493 508 410 568 b 58 485 211 568 136 535 l 58 374 b 242 538 94 489 172 538 b 382 401 317 538 382 483 l 382 371 b 144 265 338 294 231 289 b 21 126 76 246 21 208 b 204 -12 21 38 110 -12 b 382 63 269 -12 338 11 b 574 17 382 -35 531 -22 l 574 24 b 493 96 547 10 493 19 z m 382 97 b 249 21 349 44 297 21 b 132 126 186 22 132 61 b 240 260 132 197 182 238 b 382 336 290 279 346 294 z "},"ã":{"ha":601,"x_min":0,"x_max":0,"o":"m 58 693 b 296 724 86 774 190 744 b 565 846 404 701 513 679 l 544 846 b 315 810 513 758 417 790 b 38 693 201 831 92 860 z m 493 389 b 307 568 493 508 410 568 b 58 485 211 568 136 535 l 58 374 b 242 538 94 489 172 538 b 382 401 317 538 382 483 l 382 371 b 144 265 338 294 231 289 b 21 126 76 246 21 208 b 204 -12 21 38 110 -12 b 382 63 269 -12 338 11 b 574 17 382 -35 531 -22 l 574 24 b 493 96 547 10 493 19 z m 382 97 b 249 21 349 44 297 21 b 132 126 186 22 132 61 b 240 260 132 197 182 238 b 382 336 290 279 346 294 z "},"ä":{"ha":601,"x_min":0,"x_max":0,"o":"m 326 790 b 382 735 326 757 349 735 b 438 790 415 735 438 757 b 382 846 438 824 415 846 b 326 790 349 846 326 824 z m 164 790 b 219 735 164 757 186 735 b 275 790 253 735 275 757 b 219 846 275 824 253 846 b 164 790 186 846 164 824 z m 493 389 b 307 568 493 508 410 568 b 58 485 211 568 136 535 l 58 374 b 242 538 94 489 172 538 b 382 401 317 538 382 483 l 382 371 b 144 265 338 294 231 289 b 21 126 76 246 21 208 b 204 -12 21 38 110 -12 b 382 63 269 -12 338 11 b 574 17 382 -35 531 -22 l 574 24 b 493 96 547 10 493 19 z m 382 97 b 249 21 349 44 297 21 b 132 126 186 22 132 61 b 240 260 132 197 182 238 b 382 336 290 279 346 294 z "},"å":{"ha":601,"x_min":0,"x_max":0,"o":"m 418 729 b 301 846 418 799 371 846 b 185 729 232 846 185 799 b 301 613 185 660 232 613 b 418 729 371 613 418 660 z m 357 729 b 301 674 357 696 335 674 b 246 729 268 674 246 696 b 301 785 246 763 268 785 b 357 729 335 785 357 763 z m 493 389 b 307 568 493 508 410 568 b 58 485 211 568 136 535 l 58 374 b 242 538 94 489 172 538 b 382 401 317 538 382 483 l 382 371 b 144 265 338 294 231 289 b 21 126 76 246 21 208 b 204 -12 21 38 110 -12 b 382 63 269 -12 338 11 b 574 17 382 -35 531 -22 l 574 24 b 493 96 547 10 493 19 z m 382 97 b 249 21 349 44 297 21 b 132 126 186 22 132 61 b 240 260 132 197 182 238 b 382 336 290 279 346 294 z "},"æ":{"ha":925,"x_min":0,"x_max":0,"o":"m 58 374 b 242 538 94 489 172 538 b 382 401 317 538 382 483 l 382 371 b 144 265 338 294 231 289 b 21 126 76 246 21 208 b 204 -12 21 38 110 -12 b 435 97 307 -12 394 44 b 693 -21 506 36 600 -21 b 904 58 778 -21 863 11 l 904 169 b 700 0 872 57 786 0 b 493 272 594 0 493 90 b 499 339 493 296 496 318 l 904 339 b 668 568 904 489 810 568 b 467 489 596 568 521 542 b 307 568 435 542 375 568 b 58 485 211 568 136 535 z m 876 400 b 840 360 882 376 865 360 l 501 360 b 700 542 529 486 615 542 b 876 400 781 542 857 489 z m 382 97 b 249 21 349 44 297 21 b 132 126 186 22 132 61 b 240 260 132 197 182 238 b 382 336 290 279 346 294 z "},"ç":{"ha":563,"x_min":0,"x_max":0,"o":"m 131 272 b 335 547 131 460 232 547 b 540 378 421 547 510 488 l 540 489 b 329 568 499 536 414 568 b 21 272 185 568 21 478 b 264 -15 21 94 138 7 l 222 -182 b 339 -250 290 -182 339 -207 b 179 -240 339 -307 231 -318 l 179 -286 b 383 -228 268 -346 383 -311 b 257 -128 383 -164 321 -133 l 285 -18 b 331 -21 300 -19 315 -21 b 542 58 415 -21 500 11 l 542 169 b 338 0 510 57 424 0 b 131 272 233 0 131 89 z "},"è":{"ha":563,"x_min":0,"x_max":0,"o":"m 339 681 l 357 692 l 299 846 l 206 783 z m 338 0 b 131 272 232 0 131 90 b 136 339 131 296 133 318 l 542 339 b 306 568 542 489 447 568 b 21 272 168 568 21 474 b 331 -21 21 64 182 -21 b 542 58 415 -21 500 11 l 542 169 b 338 0 510 57 424 0 z m 514 400 b 478 360 519 376 503 360 l 139 360 b 338 542 167 486 253 542 b 514 400 418 542 494 489 z "},"é":{"ha":563,"x_min":0,"x_max":0,"o":"m 231 681 l 353 846 l 242 846 l 210 681 z m 338 0 b 131 272 232 0 131 90 b 136 339 131 296 133 318 l 542 339 b 306 568 542 489 447 568 b 21 272 168 568 21 474 b 331 -21 21 64 182 -21 b 542 58 415 -21 500 11 l 542 169 b 338 0 510 57 424 0 z m 514 400 b 478 360 519 376 503 360 l 139 360 b 338 542 167 486 253 542 b 514 400 418 542 494 489 z "},"ê":{"ha":563,"x_min":0,"x_max":0,"o":"m 65 626 l 86 626 l 282 786 l 478 626 l 499 626 l 354 846 l 210 846 z m 338 0 b 131 272 232 0 131 90 b 136 339 131 296 133 318 l 542 339 b 306 568 542 489 447 568 b 21 272 168 568 21 474 b 331 -21 21 64 182 -21 b 542 58 415 -21 500 11 l 542 169 b 338 0 510 57 424 0 z m 514 400 b 478 360 519 376 503 360 l 139 360 b 338 542 167 486 253 542 b 514 400 418 542 494 489 z "},"ë":{"ha":563,"x_min":0,"x_max":0,"o":"m 307 790 b 363 735 307 757 329 735 b 418 790 396 735 418 757 b 363 846 418 824 396 846 b 307 790 329 846 307 824 z m 144 790 b 200 735 144 757 167 735 b 256 790 233 735 256 757 b 200 846 256 824 233 846 b 144 790 167 846 144 824 z m 338 0 b 131 272 232 0 131 90 b 136 339 131 296 133 318 l 542 339 b 306 568 542 489 447 568 b 21 272 168 568 21 474 b 331 -21 21 64 182 -21 b 542 58 415 -21 500 11 l 542 169 b 338 0 510 57 424 0 z m 514 400 b 478 360 519 376 503 360 l 139 360 b 338 542 167 486 253 542 b 514 400 418 542 494 489 z "},"ì":{"ha":267,"x_min":0,"x_max":0,"o":"m 192 681 l 210 692 l 151 846 l 58 783 z m 28 547 l 28 540 l 28 540 b 78 451 54 521 78 485 l 78 96 b 28 7 78 63 54 26 l 28 7 l 28 0 l 239 0 l 239 7 l 239 7 b 189 96 213 26 189 63 l 189 568 z "},"í":{"ha":267,"x_min":0,"x_max":0,"o":"m 83 681 l 206 846 l 94 846 l 63 681 z m 28 547 l 28 540 l 28 540 b 78 451 54 521 78 485 l 78 96 b 28 7 78 63 54 26 l 28 7 l 28 0 l 239 0 l 239 7 l 239 7 b 189 96 213 26 189 63 l 189 568 z "},"î":{"ha":267,"x_min":0,"x_max":0,"o":"m 218 744 l 239 744 l 172 846 l 94 846 l 28 744 l 49 744 l 111 799 b 153 799 124 810 140 810 z m 28 547 l 28 540 l 28 540 b 78 451 54 521 78 485 l 78 96 b 28 7 78 63 54 26 l 28 7 l 28 0 l 239 0 l 239 7 l 239 7 b 189 96 213 26 189 63 l 189 568 z "},"ï":{"ha":329,"x_min":0,"x_max":0,"o":"m 190 790 b 246 735 190 757 213 735 b 301 790 279 735 301 757 b 246 846 301 824 279 846 b 190 790 213 846 190 824 z m 28 790 b 83 735 28 757 50 735 b 139 790 117 735 139 757 b 83 846 139 824 117 846 b 28 790 50 846 28 824 z m 60 547 l 60 540 l 60 540 b 110 451 86 521 110 485 l 110 96 b 60 7 110 63 86 26 l 60 7 l 60 0 l 271 0 l 271 7 l 271 7 b 221 96 244 26 221 63 l 221 568 z "},"ð":{"ha":606,"x_min":0,"x_max":0,"o":"m 332 747 l 407 825 l 383 849 l 307 769 b 208 846 275 796 243 822 b 185 822 197 854 194 832 b 275 738 213 804 244 774 l 188 647 l 211 624 l 296 711 b 394 556 332 665 365 611 b 304 568 367 564 336 568 b 21 272 135 568 21 449 b 304 -21 21 97 135 -21 b 585 272 472 -21 585 97 b 332 747 585 465 469 621 z m 132 272 b 304 547 132 438 199 547 b 474 272 439 547 474 378 b 304 0 474 108 407 0 b 132 272 199 0 132 108 z "},"ñ":{"ha":654,"x_min":0,"x_max":0,"o":"m 85 693 b 322 724 113 774 217 744 b 592 846 431 701 539 679 l 571 846 b 342 810 539 758 443 790 b 64 693 228 831 118 860 z m 415 0 l 626 0 l 626 7 b 576 96 600 26 576 63 l 576 389 b 364 568 576 493 476 568 b 189 489 301 568 236 544 l 189 568 l 28 547 l 28 540 b 78 451 54 521 78 485 l 78 96 b 28 7 78 63 54 26 l 28 0 l 239 0 l 239 7 b 189 96 213 26 189 63 l 189 456 b 329 539 225 508 282 539 b 465 401 400 539 465 488 l 465 96 b 415 7 465 63 442 26 z "},"ò":{"ha":606,"x_min":0,"x_max":0,"o":"m 361 681 l 379 692 l 321 846 l 228 783 z m 21 272 b 304 -21 21 97 135 -21 b 585 272 472 -21 585 97 b 304 568 585 449 472 568 b 21 272 135 568 21 449 z m 132 272 b 304 547 132 438 199 547 b 474 272 407 547 474 438 b 304 0 474 108 407 0 b 132 272 199 0 132 108 z "},"ó":{"ha":606,"x_min":0,"x_max":0,"o":"m 253 681 l 375 846 l 264 846 l 232 681 z m 21 272 b 304 -21 21 97 135 -21 b 585 272 472 -21 585 97 b 304 568 585 449 472 568 b 21 272 135 568 21 449 z m 132 272 b 304 547 132 438 199 547 b 474 272 407 547 474 438 b 304 0 474 108 407 0 b 132 272 199 0 132 108 z "},"ô":{"ha":606,"x_min":0,"x_max":0,"o":"m 86 626 l 107 626 l 303 786 l 499 626 l 519 626 l 375 846 l 231 846 z m 21 272 b 304 -21 21 97 135 -21 b 585 272 472 -21 585 97 b 304 568 585 449 472 568 b 21 272 135 568 21 449 z m 132 272 b 304 547 132 438 199 547 b 474 272 407 547 474 438 b 304 0 474 108 407 0 b 132 272 199 0 132 108 z "},"õ":{"ha":606,"x_min":0,"x_max":0,"o":"m 60 693 b 297 724 88 774 192 744 b 567 846 406 701 514 679 l 546 846 b 317 810 514 758 418 790 b 39 693 203 831 93 860 z m 21 272 b 304 -21 21 97 135 -21 b 585 272 472 -21 585 97 b 304 568 585 449 472 568 b 21 272 135 568 21 449 z m 132 272 b 304 547 132 438 199 547 b 474 272 407 547 474 438 b 304 0 474 108 407 0 b 132 272 199 0 132 108 z "},"ö":{"ha":606,"x_min":0,"x_max":0,"o":"m 329 790 b 385 735 329 757 351 735 b 440 790 418 735 440 757 b 385 846 440 824 418 846 b 329 790 351 846 329 824 z m 167 790 b 222 735 167 757 189 735 b 278 790 256 735 278 757 b 222 846 278 824 256 846 b 167 790 189 846 167 824 z m 21 272 b 304 -21 21 97 135 -21 b 585 272 472 -21 585 97 b 304 568 585 449 472 568 b 21 272 135 568 21 449 z m 132 272 b 304 547 132 438 199 547 b 474 272 407 547 474 438 b 304 0 474 108 407 0 b 132 272 199 0 132 108 z "},"÷":{"ha":556,"x_min":0,"x_max":0,"o":"m 222 492 b 278 436 222 458 244 436 b 333 492 311 436 333 458 b 278 547 333 525 311 547 b 222 492 244 547 222 525 z m 28 246 l 528 246 l 528 301 l 28 301 z m 222 56 b 278 0 222 22 244 0 b 333 56 311 0 333 22 b 278 111 333 89 311 111 b 222 56 244 111 222 89 z "},"ø":{"ha":606,"x_min":0,"x_max":0,"o":"m 21 272 b 163 13 21 153 75 60 l 90 -151 l 113 -151 l 181 4 b 304 -21 217 -12 258 -21 b 585 272 472 -21 585 97 b 418 547 585 406 521 506 l 482 694 l 460 694 l 399 554 b 304 568 369 564 338 568 b 21 272 135 568 21 449 z m 132 272 b 304 547 132 438 199 547 b 383 521 335 547 360 538 l 185 65 b 132 272 151 113 132 185 z m 400 507 b 474 272 446 461 474 378 b 304 0 474 108 407 0 b 199 47 263 0 226 17 z "},"ù":{"ha":685,"x_min":0,"x_max":0,"o":"m 400 681 l 418 692 l 360 846 l 267 783 z m 465 67 l 465 63 b 657 17 465 -35 614 -22 l 657 24 b 576 96 631 10 576 19 l 576 568 l 415 547 l 415 540 b 465 451 446 518 465 482 l 465 100 b 325 17 429 47 372 17 b 189 154 254 17 189 68 l 189 568 l 28 547 l 28 540 b 78 451 54 521 78 485 l 78 167 b 290 -12 78 63 178 -12 b 465 67 353 -12 418 11 z "},"ú":{"ha":685,"x_min":0,"x_max":0,"o":"m 292 681 l 414 846 l 303 846 l 271 681 z m 465 67 l 465 63 b 657 17 465 -35 614 -22 l 657 24 b 576 96 631 10 576 19 l 576 568 l 415 547 l 415 540 b 465 451 446 518 465 482 l 465 100 b 325 17 429 47 372 17 b 189 154 254 17 189 68 l 189 568 l 28 547 l 28 540 b 78 451 54 521 78 485 l 78 167 b 290 -12 78 63 178 -12 b 465 67 353 -12 418 11 z "},"û":{"ha":685,"x_min":0,"x_max":0,"o":"m 126 626 l 147 626 l 343 786 l 539 626 l 560 626 l 415 846 l 271 846 z m 465 67 l 465 63 b 657 17 465 -35 614 -22 l 657 24 b 576 96 631 10 576 19 l 576 568 l 415 547 l 415 540 b 465 451 446 518 465 482 l 465 100 b 325 17 429 47 372 17 b 189 154 254 17 189 68 l 189 568 l 28 547 l 28 540 b 78 451 54 521 78 485 l 78 167 b 290 -12 78 63 178 -12 b 465 67 353 -12 418 11 z "},"ü":{"ha":685,"x_min":0,"x_max":0,"o":"m 368 790 b 424 735 368 757 390 735 b 479 790 457 735 479 757 b 424 846 479 824 457 846 b 368 790 390 846 368 824 z m 206 790 b 261 735 206 757 228 735 b 317 790 294 735 317 757 b 261 846 317 824 294 846 b 206 790 228 846 206 824 z m 465 67 l 465 63 b 657 17 465 -35 614 -22 l 657 24 b 576 96 631 10 576 19 l 576 568 l 415 547 l 415 540 b 465 451 446 518 465 482 l 465 100 b 325 17 429 47 372 17 b 189 154 254 17 189 68 l 189 568 l 28 547 l 28 540 b 78 451 54 521 78 485 l 78 167 b 290 -12 78 63 178 -12 b 465 67 353 -12 418 11 z "},"ý":{"ha":638,"x_min":0,"x_max":0,"o":"m 347 681 l 469 846 l 358 846 l 326 681 z m 21 547 l 21 542 b 96 488 53 538 79 517 l 308 61 l 276 0 l 214 -121 b 117 -186 189 -168 150 -186 b 76 -176 101 -186 88 -183 b 132 -121 110 -176 132 -154 b 76 -65 132 -87 110 -65 b 21 -121 43 -65 21 -87 b 117 -207 21 -175 65 -207 b 236 -125 160 -207 207 -182 l 300 0 l 547 481 b 617 542 561 511 585 535 l 617 547 l 501 547 l 501 540 b 524 481 533 532 533 500 l 371 183 l 225 479 b 242 540 214 497 211 529 l 242 547 z "},"þ":{"ha":629,"x_min":0,"x_max":0,"o":"m 28 846 l 28 839 l 28 839 b 78 750 54 819 78 783 l 78 96 b 28 7 78 63 54 26 l 28 7 l 28 0 l 239 0 l 239 7 l 239 7 b 189 96 213 26 189 63 l 189 201 b 349 153 232 171 286 153 b 608 424 504 153 608 263 b 349 697 608 588 504 697 b 189 649 286 697 232 681 l 189 867 z m 189 424 b 349 678 189 576 251 678 b 506 424 443 678 506 576 b 349 172 506 272 443 172 b 189 424 251 172 189 272 z "},"ÿ":{"ha":638,"x_min":0,"x_max":0,"o":"m 382 790 b 438 735 382 757 404 735 b 493 790 471 735 493 757 b 438 846 493 824 471 846 b 382 790 404 846 382 824 z m 219 790 b 275 735 219 757 242 735 b 331 790 308 735 331 757 b 275 846 331 824 308 846 b 219 790 242 846 219 824 z m 21 547 l 21 542 b 96 488 53 538 79 517 l 308 61 l 276 0 l 214 -121 b 117 -186 189 -168 150 -186 b 76 -176 101 -186 88 -183 b 132 -121 110 -176 132 -154 b 76 -65 132 -87 110 -65 b 21 -121 43 -65 21 -87 b 117 -207 21 -175 65 -207 b 236 -125 160 -207 207 -182 l 300 0 l 547 481 b 617 542 561 511 585 535 l 617 547 l 501 547 l 501 540 b 524 481 533 532 533 500 l 371 183 l 225 479 b 242 540 214 497 211 529 l 242 547 z "},"Ā":{"ha":983,"x_min":0,"x_max":0,"o":"m 700 954 l 283 954 l 283 899 l 700 899 z m 761 67 b 739 7 771 47 771 15 l 739 7 l 739 0 l 956 0 l 956 6 l 956 6 b 886 67 924 13 900 36 l 493 846 l 97 67 b 28 6 83 36 60 13 l 28 6 l 28 0 l 143 0 l 143 7 l 143 7 b 121 67 111 15 111 47 l 231 282 l 653 282 z m 442 699 l 642 303 l 240 303 z "},"ā":{"ha":601,"x_min":0,"x_max":0,"o":"m 510 846 l 93 846 l 93 790 l 510 790 z m 493 389 b 307 568 493 508 410 568 b 58 485 211 568 136 535 l 58 374 b 242 538 94 489 172 538 b 382 401 317 538 382 483 l 382 371 b 144 265 338 294 231 289 b 21 126 76 246 21 208 b 204 -12 21 38 110 -12 b 382 63 269 -12 338 11 b 574 17 382 -35 531 -22 l 574 24 b 493 96 547 10 493 19 z m 382 97 b 249 21 349 44 297 21 b 132 126 186 22 132 61 b 240 260 132 197 182 238 b 382 336 290 279 346 294 z "},"Ă":{"ha":983,"x_min":0,"x_max":0,"o":"m 578 982 b 406 982 526 954 457 954 l 296 1040 l 275 1040 l 379 938 b 475 899 403 914 442 899 l 508 899 b 604 938 542 899 581 914 l 708 1040 l 688 1040 z m 761 67 b 739 7 771 47 771 15 l 739 7 l 739 0 l 956 0 l 956 6 l 956 6 b 886 67 924 13 900 36 l 493 846 l 97 67 b 28 6 83 36 60 13 l 28 6 l 28 0 l 143 0 l 143 7 l 143 7 b 121 67 111 15 111 47 l 231 282 l 653 282 z m 442 699 l 642 303 l 240 303 z "},"ă":{"ha":601,"x_min":0,"x_max":0,"o":"m 388 788 b 215 788 336 760 267 760 l 106 846 l 85 846 l 189 743 b 285 704 213 719 251 704 l 318 704 b 414 743 351 704 390 719 l 518 846 l 497 846 z m 493 389 b 307 568 493 508 410 568 b 58 485 211 568 136 535 l 58 374 b 242 538 94 489 172 538 b 382 401 317 538 382 483 l 382 371 b 144 265 338 294 231 289 b 21 126 76 246 21 208 b 204 -12 21 38 110 -12 b 382 63 269 -12 338 11 b 574 17 382 -35 531 -22 l 574 24 b 493 96 547 10 493 19 z m 382 97 b 249 21 349 44 297 21 b 132 126 186 22 132 61 b 240 260 132 197 182 238 b 382 336 290 279 346 294 z "},"Ą":{"ha":983,"x_min":0,"x_max":0,"o":"m 761 67 b 739 7 771 47 771 7 l 739 7 l 628 7 b 801 -175 628 -137 715 -175 b 917 -135 843 -175 885 -161 l 917 -24 b 804 -154 874 -108 850 -154 b 739 0 746 -154 739 -100 l 956 0 l 956 6 l 956 6 b 886 67 924 13 900 36 l 493 846 l 97 67 b 28 6 83 36 60 13 l 28 6 l 28 0 l 143 0 l 143 7 l 143 7 b 121 67 111 15 111 47 l 231 282 l 653 282 z m 442 699 l 642 303 l 240 303 z "},"ą":{"ha":699,"x_min":0,"x_max":0,"o":"m 493 389 b 307 568 493 508 410 568 b 58 485 211 568 136 535 l 58 374 b 242 538 94 489 172 538 b 382 401 317 538 382 483 l 382 371 b 144 265 338 294 231 289 b 21 126 76 246 21 208 b 204 -12 21 38 110 -12 b 382 63 269 -12 338 11 b 382 0 382 -35 382 36 b 556 -182 382 -144 469 -182 b 671 -142 597 -182 639 -168 l 671 -31 b 558 -161 628 -115 604 -161 b 493 0 499 -161 493 -104 z m 382 97 b 249 21 349 44 297 21 b 132 126 186 22 132 61 b 240 260 132 197 182 238 b 382 336 290 279 346 294 z "},"Ć":{"ha":783,"x_min":0,"x_max":0,"o":"m 422 899 l 544 1064 l 433 1064 l 401 899 z m 468 -21 b 756 63 586 -21 700 33 l 756 174 b 468 0 722 94 597 0 b 139 424 269 0 139 169 b 468 846 139 676 269 846 b 756 672 597 846 722 751 l 756 783 b 468 867 699 817 586 867 b 28 424 201 867 28 689 b 468 -21 28 157 201 -21 z "},"ć":{"ha":563,"x_min":0,"x_max":0,"o":"m 231 681 l 353 846 l 242 846 l 210 681 z m 131 272 b 335 547 131 460 232 547 b 540 378 421 547 510 488 l 540 489 b 329 568 499 536 414 568 b 21 272 185 568 21 478 b 331 -21 21 64 182 -21 b 542 58 415 -21 500 11 l 542 169 b 338 0 510 57 424 0 b 131 272 233 0 131 89 z "},"Ĉ":{"ha":783,"x_min":0,"x_max":0,"o":"m 222 899 l 243 899 l 439 1058 l 635 899 l 656 899 l 511 1118 l 367 1118 z m 468 -21 b 756 63 586 -21 700 33 l 756 174 b 468 0 722 94 597 0 b 139 424 269 0 139 169 b 468 846 139 676 269 846 b 756 672 597 846 722 751 l 756 783 b 468 867 699 817 586 867 b 28 424 201 867 28 689 b 468 -21 28 157 201 -21 z "},"ĉ":{"ha":563,"x_min":0,"x_max":0,"o":"m 65 626 l 86 626 l 282 786 l 478 626 l 499 626 l 354 846 l 210 846 z m 131 272 b 335 547 131 460 232 547 b 540 378 421 547 510 488 l 540 489 b 329 568 499 536 414 568 b 21 272 185 568 21 478 b 331 -21 21 64 182 -21 b 542 58 415 -21 500 11 l 542 169 b 338 0 510 57 424 0 b 131 272 233 0 131 89 z "},"Ċ":{"ha":783,"x_min":0,"x_max":0,"o":"m 414 954 b 469 899 414 921 436 899 b 525 954 503 899 525 921 b 469 1010 525 988 503 1010 b 414 954 436 1010 414 988 z m 468 -21 b 756 63 586 -21 700 33 l 756 174 b 468 0 722 94 597 0 b 139 424 269 0 139 169 b 468 846 139 676 269 846 b 756 672 597 846 722 751 l 756 783 b 468 867 699 817 586 867 b 28 424 201 867 28 689 b 468 -21 28 157 201 -21 z "},"ċ":{"ha":563,"x_min":0,"x_max":0,"o":"m 226 790 b 282 735 226 757 249 735 b 338 790 315 735 338 757 b 282 846 338 824 315 846 b 226 790 249 846 226 824 z m 131 272 b 335 547 131 460 232 547 b 540 378 421 547 510 488 l 540 489 b 329 568 499 536 414 568 b 21 272 185 568 21 478 b 331 -21 21 64 182 -21 b 542 58 415 -21 500 11 l 542 169 b 338 0 510 57 424 0 b 131 272 233 0 131 89 z "},"Č":{"ha":783,"x_min":0,"x_max":0,"o":"m 679 1118 l 658 1118 l 463 958 l 267 1118 l 246 1118 l 390 899 l 535 899 z m 468 -21 b 756 63 586 -21 700 33 l 756 174 b 468 0 722 94 597 0 b 139 424 269 0 139 169 b 468 846 139 676 269 846 b 756 672 597 846 722 751 l 756 783 b 468 867 699 817 586 867 b 28 424 201 867 28 689 b 468 -21 28 157 201 -21 z "},"č":{"ha":563,"x_min":0,"x_max":0,"o":"m 499 846 l 478 846 l 282 686 l 86 846 l 65 846 l 210 626 l 354 626 z m 131 272 b 335 547 131 460 232 547 b 540 378 421 547 510 488 l 540 489 b 329 568 499 536 414 568 b 21 272 185 568 21 478 b 331 -21 21 64 182 -21 b 542 58 415 -21 500 11 l 542 169 b 338 0 510 57 424 0 b 131 272 233 0 131 89 z "},"Ď":{"ha":829,"x_min":0,"x_max":0,"o":"m 514 1118 l 493 1118 l 297 958 l 101 1118 l 81 1118 l 225 899 l 369 899 z m 189 0 b 401 1 261 0 324 1 b 808 419 664 1 808 204 b 400 846 808 635 664 846 l 28 846 l 28 839 l 28 839 b 78 750 54 819 78 783 l 78 96 b 28 7 78 63 54 26 l 28 7 l 28 0 z m 244 825 b 385 826 272 825 300 826 b 697 431 606 826 697 622 b 386 22 697 238 606 22 b 244 21 342 22 299 21 b 189 76 211 21 189 43 l 189 769 b 244 825 189 803 211 825 z "},"ď":{"ha":896,"x_min":0,"x_max":0,"o":"m 21 282 b 304 -21 21 108 133 -21 b 500 56 375 -21 446 4 l 500 56 b 556 0 500 22 522 0 l 661 0 l 661 7 l 661 7 b 611 96 635 26 611 63 l 611 867 l 450 846 l 450 839 l 450 839 b 500 750 476 819 500 783 l 500 492 b 304 568 446 543 375 568 b 21 282 133 568 21 456 z m 253 681 l 386 783 l 293 846 l 235 692 z m 500 88 b 331 6 451 33 389 6 b 132 279 211 6 132 122 b 331 542 132 429 206 542 b 500 460 389 542 451 514 z "},"Đ":{"ha":872,"x_min":0,"x_max":0,"o":"m 232 0 b 444 1 304 0 367 1 b 851 419 707 1 851 204 b 443 846 851 635 707 846 l 71 846 l 71 839 l 71 839 b 121 750 97 819 121 783 l 121 451 l 28 451 l 28 396 l 121 396 l 121 96 b 71 7 121 63 97 26 l 71 7 l 71 0 z m 288 825 b 428 826 315 825 343 826 b 740 431 649 826 740 622 b 429 22 740 238 649 22 b 288 21 385 22 342 21 b 232 76 254 21 232 43 l 232 396 l 324 396 l 324 451 l 232 451 l 232 769 b 288 825 232 803 254 825 z "},"đ":{"ha":689,"x_min":0,"x_max":0,"o":"m 610 954 l 193 954 l 193 899 l 610 899 z m 21 282 b 304 -21 21 108 133 -21 b 500 56 375 -21 446 4 l 500 56 b 556 0 500 22 522 0 l 661 0 l 661 7 l 661 7 b 611 96 635 26 611 63 l 611 867 l 450 846 l 450 839 l 450 839 b 500 750 476 819 500 783 l 500 492 b 304 568 446 543 375 568 b 21 282 133 568 21 456 z m 500 88 b 331 6 451 33 389 6 b 132 279 211 6 132 122 b 331 542 132 429 206 542 b 500 460 389 542 451 514 z "},"Ē":{"ha":678,"x_min":0,"x_max":0,"o":"m 547 954 l 131 954 l 131 899 l 547 899 z m 189 769 b 244 825 189 803 211 825 l 554 825 b 643 776 596 825 624 803 l 650 776 l 629 846 l 28 846 l 28 839 b 78 750 54 819 78 783 l 78 96 b 28 7 78 63 54 26 l 28 0 l 629 0 l 650 69 l 643 69 b 554 21 624 43 596 21 l 244 21 b 189 76 211 21 189 43 l 189 414 l 426 414 b 508 365 468 414 489 392 l 515 365 l 515 483 l 508 483 b 426 435 489 457 468 435 l 189 435 z "},"ē":{"ha":563,"x_min":0,"x_max":0,"o":"m 490 844 l 74 844 l 74 789 l 490 789 z m 338 0 b 131 272 232 0 131 90 b 136 339 131 296 133 318 l 542 339 b 306 568 542 489 447 568 b 21 272 168 568 21 474 b 331 -21 21 64 182 -21 b 542 58 415 -21 500 11 l 542 169 b 338 0 510 57 424 0 z m 514 400 b 478 360 519 376 503 360 l 139 360 b 338 542 167 486 253 542 b 514 400 418 542 494 489 z "},"Ĕ":{"ha":678,"x_min":0,"x_max":0,"o":"m 425 982 b 253 982 374 954 304 954 l 143 1040 l 122 1040 l 226 938 b 322 899 250 914 289 899 l 356 899 b 451 938 389 899 428 914 l 556 1040 l 535 1040 z m 189 769 b 244 825 189 803 211 825 l 554 825 b 643 776 596 825 624 803 l 650 776 l 629 846 l 28 846 l 28 839 b 78 750 54 819 78 783 l 78 96 b 28 7 78 63 54 26 l 28 0 l 629 0 l 650 69 l 643 69 b 554 21 624 43 596 21 l 244 21 b 189 76 211 21 189 43 l 189 414 l 426 414 b 508 365 468 414 489 392 l 515 365 l 515 483 l 508 483 b 426 435 489 457 468 435 l 189 435 z "},"ĕ":{"ha":563,"x_min":0,"x_max":0,"o":"m 368 788 b 196 788 317 760 247 760 l 86 846 l 65 846 l 169 743 b 265 704 193 719 232 704 l 299 704 b 394 743 332 704 371 719 l 499 846 l 478 846 z m 338 0 b 131 272 232 0 131 90 b 136 339 131 296 133 318 l 542 339 b 306 568 542 489 447 568 b 21 272 168 568 21 474 b 331 -21 21 64 182 -21 b 542 58 415 -21 500 11 l 542 169 b 338 0 510 57 424 0 z m 514 400 b 478 360 519 376 503 360 l 139 360 b 338 542 167 486 253 542 b 514 400 418 542 494 489 z "},"Ė":{"ha":678,"x_min":0,"x_max":0,"o":"m 283 954 b 339 899 283 921 306 899 b 394 954 372 899 394 921 b 339 1010 394 988 372 1010 b 283 954 306 1010 283 988 z m 189 769 b 244 825 189 803 211 825 l 554 825 b 643 776 596 825 624 803 l 650 776 l 629 846 l 28 846 l 28 839 b 78 750 54 819 78 783 l 78 96 b 28 7 78 63 54 26 l 28 0 l 629 0 l 650 69 l 643 69 b 554 21 624 43 596 21 l 244 21 b 189 76 211 21 189 43 l 189 414 l 426 414 b 508 365 468 414 489 392 l 515 365 l 515 483 l 508 483 b 426 435 489 457 468 435 l 189 435 z "},"ė":{"ha":563,"x_min":0,"x_max":0,"o":"m 226 790 b 282 735 226 757 249 735 b 338 790 315 735 338 757 b 282 846 338 824 315 846 b 226 790 249 846 226 824 z m 338 0 b 131 272 232 0 131 90 b 136 339 131 296 133 318 l 542 339 b 306 568 542 489 447 568 b 21 272 168 568 21 474 b 331 -21 21 64 182 -21 b 542 58 415 -21 500 11 l 542 169 b 338 0 510 57 424 0 z m 514 400 b 478 360 519 376 503 360 l 139 360 b 338 542 167 486 253 542 b 514 400 418 542 494 489 z "},"Ę":{"ha":678,"x_min":0,"x_max":0,"o":"m 189 769 b 244 825 189 803 211 825 l 554 825 b 643 776 596 825 624 803 l 650 776 l 629 846 l 28 846 l 28 839 b 78 750 54 819 78 783 l 78 96 b 28 7 78 63 54 26 l 28 0 l 629 0 l 650 69 l 643 69 b 554 21 624 43 596 21 l 244 21 b 189 76 211 21 189 43 l 189 414 l 426 414 b 508 365 468 414 489 392 l 515 365 l 515 483 l 508 483 b 426 435 489 457 468 435 l 189 435 z "},"ę":{"ha":747,"x_min":0,"x_max":0,"o":"m 338 0 b 131 272 232 0 131 90 b 136 339 131 296 133 318 l 542 339 b 306 568 542 489 447 568 b 21 272 168 568 21 474 b 331 -21 21 64 182 -21 b 435 -6 367 -21 403 -15 b 604 -124 446 -101 524 -124 b 719 -83 646 -124 688 -110 l 719 28 b 607 -103 676 -57 653 -103 b 542 58 547 -103 542 -46 l 542 169 b 338 0 510 57 424 0 z m 514 400 b 478 360 519 376 503 360 l 139 360 b 338 542 167 486 253 542 b 514 400 418 542 494 489 z "},"Ě":{"ha":678,"x_min":0,"x_max":0,"o":"m 556 1118 l 535 1118 l 339 958 l 143 1118 l 122 1118 l 267 899 l 411 899 z m 189 769 b 244 825 189 803 211 825 l 554 825 b 643 776 596 825 624 803 l 650 776 l 629 846 l 28 846 l 28 839 b 78 750 54 819 78 783 l 78 96 b 28 7 78 63 54 26 l 28 0 l 629 0 l 650 69 l 643 69 b 554 21 624 43 596 21 l 244 21 b 189 76 211 21 189 43 l 189 414 l 426 414 b 508 365 468 414 489 392 l 515 365 l 515 483 l 508 483 b 426 435 489 457 468 435 l 189 435 z "},"ě":{"ha":563,"x_min":0,"x_max":0,"o":"m 499 846 l 478 846 l 282 686 l 86 846 l 65 846 l 210 626 l 354 626 z m 338 0 b 131 272 232 0 131 90 b 136 339 131 296 133 318 l 542 339 b 306 568 542 489 447 568 b 21 272 168 568 21 474 b 331 -21 21 64 182 -21 b 542 58 415 -21 500 11 l 542 169 b 338 0 510 57 424 0 z m 514 400 b 478 360 519 376 503 360 l 139 360 b 338 542 167 486 253 542 b 514 400 418 542 494 489 z "},"Ĝ":{"ha":869,"x_min":0,"x_max":0,"o":"m 218 899 l 239 899 l 435 1058 l 631 899 l 651 899 l 507 1118 l 363 1118 z m 461 -21 b 681 57 560 -21 640 26 l 792 0 l 792 328 b 842 417 792 361 815 397 l 842 417 l 842 424 l 631 424 l 631 417 l 631 417 b 681 328 657 397 681 361 l 681 135 b 461 0 640 67 569 0 b 132 424 263 0 132 169 b 461 846 132 676 263 846 b 700 672 590 846 667 751 l 700 783 b 461 867 671 814 579 867 b 21 424 194 867 21 689 b 461 -21 21 157 194 -21 z "},"ĝ":{"ha":619,"x_min":0,"x_max":0,"o":"m 599 -214 b 456 -26 599 -114 546 -42 b 128 63 331 -6 128 -35 b 210 140 128 115 169 132 b 274 135 231 138 251 135 b 517 350 417 135 517 221 b 364 554 517 450 457 525 b 517 614 431 567 482 589 l 517 679 l 526 679 l 517 694 l 517 725 b 510 706 514 718 513 713 l 382 899 l 238 899 l 93 679 l 114 679 l 310 839 l 500 683 b 274 568 458 604 378 568 b 28 350 131 568 28 479 b 171 151 28 254 85 182 b 28 25 106 132 28 94 b 436 -136 28 -144 306 -112 b 549 -254 518 -151 549 -190 b 326 -435 549 -375 438 -435 b 100 -244 215 -435 100 -369 b 113 -168 100 -221 104 -196 b 101 -158 115 -161 110 -158 b 22 -275 54 -158 21 -217 b 304 -458 25 -390 165 -458 b 599 -214 450 -458 599 -383 z m 274 156 b 139 350 185 156 139 229 b 274 547 139 472 185 547 b 406 350 360 547 406 472 b 274 156 406 229 360 156 z "},"Ğ":{"ha":869,"x_min":0,"x_max":0,"o":"m 521 982 b 349 982 469 954 400 954 l 239 1040 l 218 1040 l 322 938 b 418 899 346 914 385 899 l 451 899 b 547 938 485 899 524 914 l 651 1040 l 631 1040 z m 461 -21 b 681 57 560 -21 640 26 l 792 0 l 792 328 b 842 417 792 361 815 397 l 842 417 l 842 424 l 631 424 l 631 417 l 631 417 b 681 328 657 397 681 361 l 681 135 b 461 0 640 67 569 0 b 132 424 263 0 132 169 b 461 846 132 676 263 846 b 700 672 590 846 667 751 l 700 783 b 461 867 671 814 579 867 b 21 424 194 867 21 689 b 461 -21 21 157 194 -21 z "},"ğ":{"ha":619,"x_min":0,"x_max":0,"o":"m 396 788 b 224 788 344 760 275 760 l 114 846 l 93 846 l 197 743 b 293 704 221 719 260 704 l 326 704 b 422 743 360 704 399 719 l 526 846 l 506 846 z m 599 -214 b 456 -26 599 -114 546 -42 b 128 63 331 -6 128 -35 b 210 140 128 115 169 132 b 274 135 231 138 251 135 b 517 350 417 135 517 221 b 364 554 517 450 457 525 b 517 614 431 567 482 589 l 517 725 b 274 568 483 618 394 568 b 28 350 131 568 28 479 b 171 151 28 254 85 182 b 28 25 106 132 28 94 b 436 -136 28 -144 306 -112 b 549 -254 518 -151 549 -190 b 326 -435 549 -375 438 -435 b 100 -244 215 -435 100 -369 b 113 -168 100 -221 104 -196 b 101 -158 115 -161 110 -158 b 22 -275 54 -158 21 -217 b 304 -458 25 -390 165 -458 b 599 -214 450 -458 599 -383 z m 274 156 b 139 350 185 156 139 229 b 274 547 139 472 185 547 b 406 350 360 547 406 472 b 274 156 406 229 360 156 z "},"Ġ":{"ha":869,"x_min":0,"x_max":0,"o":"m 406 954 b 461 899 406 921 428 899 b 517 954 494 899 517 921 b 461 1010 517 988 494 1010 b 406 954 428 1010 406 988 z m 461 -21 b 681 57 560 -21 640 26 l 792 0 l 792 328 b 842 417 792 361 815 397 l 842 417 l 842 424 l 631 424 l 631 417 l 631 417 b 681 328 657 397 681 361 l 681 135 b 461 0 640 67 569 0 b 132 424 263 0 132 169 b 461 846 132 676 263 846 b 700 672 590 846 667 751 l 700 783 b 461 867 671 814 579 867 b 21 424 194 867 21 689 b 461 -21 21 157 194 -21 z "},"ġ":{"ha":619,"x_min":0,"x_max":0,"o":"m 254 790 b 310 735 254 757 276 735 b 365 790 343 735 365 757 b 310 846 365 824 343 846 b 254 790 276 846 254 824 z m 599 -214 b 456 -26 599 -114 546 -42 b 128 63 331 -6 128 -35 b 210 140 128 115 169 132 b 274 135 231 138 251 135 b 517 350 417 135 517 221 b 364 554 517 450 457 525 b 517 614 431 567 482 589 l 517 725 b 274 568 483 618 394 568 b 28 350 131 568 28 479 b 171 151 28 254 85 182 b 28 25 106 132 28 94 b 436 -136 28 -144 306 -112 b 549 -254 518 -151 549 -190 b 326 -435 549 -375 438 -435 b 100 -244 215 -435 100 -369 b 113 -168 100 -221 104 -196 b 101 -158 115 -161 110 -158 b 22 -275 54 -158 21 -217 b 304 -458 25 -390 165 -458 b 599 -214 450 -458 599 -383 z m 274 156 b 139 350 185 156 139 229 b 274 547 139 472 185 547 b 406 350 360 547 406 472 b 274 156 406 229 360 156 z "},"Ģ":{"ha":869,"x_min":0,"x_max":0,"o":"m 461 -21 b 681 57 560 -21 640 26 l 792 0 l 792 328 b 842 417 792 361 815 397 l 842 417 l 842 424 l 631 424 l 631 417 l 631 417 b 681 328 657 397 681 361 l 681 135 b 461 0 640 67 569 0 b 132 424 263 0 132 169 b 461 846 132 676 263 846 b 700 672 590 846 667 751 l 700 783 b 461 867 671 814 579 867 b 21 424 194 867 21 689 b 461 -21 21 157 194 -21 z m 556 -151 l 463 -89 l 404 -243 l 422 -254 z "},"ģ":{"ha":619,"x_min":0,"x_max":0,"o":"m 253 681 l 386 783 l 293 846 l 235 692 z m 599 -214 b 456 -26 599 -114 546 -42 b 128 63 331 -6 128 -35 b 210 140 128 115 169 132 b 274 135 231 138 251 135 b 517 350 417 135 517 221 b 364 554 517 450 457 525 b 517 614 431 567 482 589 l 517 725 b 274 568 483 618 394 568 b 28 350 131 568 28 479 b 171 151 28 254 85 182 b 28 25 106 132 28 94 b 436 -136 28 -144 306 -112 b 549 -254 518 -151 549 -190 b 326 -435 549 -375 438 -435 b 100 -244 215 -435 100 -369 b 113 -168 100 -221 104 -196 b 101 -158 115 -161 110 -158 b 22 -275 54 -158 21 -217 b 304 -458 25 -390 165 -458 b 599 -214 450 -458 599 -383 z m 274 156 b 139 350 185 156 139 229 b 274 547 139 472 185 547 b 406 350 360 547 406 472 b 274 156 406 229 360 156 z "},"Ĥ":{"ha":824,"x_min":0,"x_max":0,"o":"m 196 899 l 217 899 l 413 1058 l 608 899 l 629 899 l 485 1118 l 340 1118 z m 28 846 l 28 839 l 28 839 b 78 750 54 819 78 783 l 78 96 b 28 7 78 63 54 26 l 28 7 l 28 0 l 239 0 l 239 7 l 239 7 b 189 96 213 26 189 63 l 189 415 l 635 415 l 635 96 b 585 7 635 63 611 26 l 585 7 l 585 0 l 796 0 l 796 7 l 796 7 b 746 96 769 26 746 63 l 746 750 b 796 839 746 783 769 819 l 796 839 l 796 846 l 585 846 l 585 839 l 585 839 b 635 750 611 819 635 783 l 635 436 l 189 436 l 189 750 b 239 839 189 783 213 819 l 239 839 l 239 846 z "},"ĥ":{"ha":654,"x_min":0,"x_max":0,"o":"m 28 7 l 28 0 l 239 0 l 239 7 b 189 96 213 26 189 63 l 189 456 b 329 539 225 508 282 539 b 465 401 400 539 465 488 l 465 96 b 415 7 465 63 442 26 l 415 0 l 626 0 l 626 7 b 576 96 600 26 576 63 l 576 389 b 364 568 576 493 476 568 b 189 489 301 568 236 544 l 189 867 l 28 846 l 28 839 b 78 750 54 819 78 783 l 78 96 b 28 7 78 63 54 26 z m 349 799 l 414 744 l 435 744 l 368 846 l 290 846 l 224 744 l 244 744 l 307 799 b 349 799 319 810 336 810 z "},"Ħ":{"ha":824,"x_min":0,"x_max":0,"o":"m 621 954 l 204 954 l 204 899 l 621 899 z m 28 846 l 28 839 l 28 839 b 78 750 54 819 78 783 l 78 96 b 28 7 78 63 54 26 l 28 7 l 28 0 l 239 0 l 239 7 l 239 7 b 189 96 213 26 189 63 l 189 415 l 635 415 l 635 96 b 585 7 635 63 611 26 l 585 7 l 585 0 l 796 0 l 796 7 l 796 7 b 746 96 769 26 746 63 l 746 750 b 796 839 746 783 769 819 l 796 839 l 796 846 l 585 846 l 585 839 l 585 839 b 635 750 611 819 635 783 l 635 436 l 189 436 l 189 750 b 239 839 189 783 213 819 l 239 839 l 239 846 z "},"ħ":{"ha":654,"x_min":0,"x_max":0,"o":"m 536 954 l 119 954 l 119 899 l 536 899 z m 28 7 l 28 0 l 239 0 l 239 7 b 189 96 213 26 189 63 l 189 456 b 329 539 225 508 282 539 b 465 401 400 539 465 488 l 465 96 b 415 7 465 63 442 26 l 415 0 l 626 0 l 626 7 b 576 96 600 26 576 63 l 576 389 b 364 568 576 493 476 568 b 189 489 301 568 236 544 l 189 867 l 28 846 l 28 839 b 78 750 54 819 78 783 l 78 96 b 28 7 78 63 54 26 z "},"Ĩ":{"ha":322,"x_min":0,"x_max":0,"o":"m 39 899 b 158 914 53 939 106 925 b 294 976 213 903 268 892 l 283 976 b 168 957 268 932 219 947 b 28 899 111 968 56 983 z m 54 846 l 54 839 l 54 839 b 104 750 81 819 104 783 l 104 96 b 54 7 104 63 81 26 l 54 7 l 54 0 l 265 0 l 265 7 l 265 7 b 215 96 239 26 215 63 l 215 750 b 265 839 215 783 239 819 l 265 839 l 265 846 z "},"ĩ":{"ha":322,"x_min":0,"x_max":0,"o":"m 39 768 b 158 783 53 808 106 794 b 294 846 213 772 268 761 l 283 846 b 168 826 268 801 219 817 b 28 768 111 838 56 853 z m 54 547 l 54 540 l 54 540 b 104 451 81 521 104 485 l 104 96 b 54 7 104 63 81 26 l 54 7 l 54 0 l 265 0 l 265 7 l 265 7 b 215 96 239 26 215 63 l 215 568 z "},"Ī":{"ha":267,"x_min":0,"x_max":0,"o":"m 239 954 l 28 954 l 28 899 l 239 899 z m 28 846 l 28 839 l 28 839 b 78 750 54 819 78 783 l 78 96 b 28 7 78 63 54 26 l 28 7 l 28 0 l 239 0 l 239 7 l 239 7 b 189 96 213 26 189 63 l 189 750 b 239 839 189 783 213 819 l 239 839 l 239 846 z "},"ī":{"ha":267,"x_min":0,"x_max":0,"o":"m 189 846 l 28 846 l 28 790 l 189 790 z m 28 547 l 28 540 l 28 540 b 78 451 54 521 78 485 l 78 96 b 28 7 78 63 54 26 l 28 7 l 28 0 l 239 0 l 239 7 l 239 7 b 189 96 213 26 189 63 l 189 568 z "},"Į":{"ha":344,"x_min":0,"x_max":0,"o":"m 28 846 l 28 839 l 28 839 b 78 750 54 819 78 783 l 78 96 b 28 7 78 63 54 26 l 28 7 l 28 0 b 201 -182 28 -144 115 -182 b 317 -142 243 -182 285 -168 l 317 -31 b 204 -161 274 -115 250 -161 b 139 0 144 -161 139 -104 l 239 0 l 239 7 l 239 7 b 189 96 213 26 189 63 l 189 750 b 239 839 189 783 213 819 l 239 839 l 239 846 z "},"į":{"ha":344,"x_min":0,"x_max":0,"o":"m 78 706 b 133 650 78 672 100 650 b 189 706 167 650 189 672 b 133 761 189 739 167 761 b 78 706 100 761 78 739 z m 28 547 l 28 540 l 28 540 b 78 451 54 521 78 485 l 78 96 b 28 7 78 63 54 26 l 28 7 l 28 0 b 201 -182 28 -144 115 -182 b 317 -142 243 -182 285 -168 l 317 -31 b 204 -161 274 -115 250 -161 b 139 0 144 -161 139 -104 l 239 0 l 239 7 l 239 7 b 189 96 213 26 189 63 l 189 568 z "},"İ":{"ha":267,"x_min":0,"x_max":0,"o":"m 78 954 b 133 899 78 921 100 899 b 189 954 167 899 189 921 b 133 1010 189 988 167 1010 b 78 954 100 1010 78 988 z m 28 846 l 28 839 l 28 839 b 78 750 54 819 78 783 l 78 96 b 28 7 78 63 54 26 l 28 7 l 28 0 l 239 0 l 239 7 l 239 7 b 189 96 213 26 189 63 l 189 750 b 239 839 189 783 213 819 l 239 839 l 239 846 z "},"ı":{"ha":267,"x_min":0,"x_max":0,"o":"m 78 706 b 133 650 78 672 100 650 b 189 706 167 650 189 672 b 133 761 189 739 167 761 b 78 706 100 761 78 739 z m 28 547 l 28 540 l 28 540 b 78 451 54 521 78 485 l 78 96 b 28 7 78 63 54 26 l 28 7 l 28 0 l 239 0 l 239 7 l 239 7 b 189 96 213 26 189 63 l 189 568 z "},"Ĳ":{"ha":533,"x_min":0,"x_max":0,"o":"m 268 839 b 344 750 314 839 344 793 l 344 56 b 178 -57 344 -57 256 -96 l 178 -78 b 456 144 267 -115 456 -115 l 456 750 b 506 839 456 783 479 819 l 506 839 l 506 846 l 28 846 l 28 839 l 28 839 b 78 750 54 819 78 783 l 78 96 b 28 7 78 63 54 26 l 28 7 l 28 0 l 239 0 l 239 7 l 239 7 b 189 96 213 26 189 63 l 189 750 b 267 839 189 793 221 839 z "},"ĳ":{"ha":451,"x_min":0,"x_max":0,"o":"m 78 706 b 133 650 78 672 100 650 b 189 706 167 650 189 672 b 133 761 189 739 167 761 b 78 706 100 761 78 739 z m 313 706 b 368 650 313 672 335 650 b 424 706 401 650 424 672 b 368 761 424 739 401 761 b 313 706 335 761 313 739 z m 28 547 l 28 540 l 28 540 b 78 451 54 521 78 485 l 78 96 b 28 7 78 63 54 26 l 28 7 l 28 0 l 239 0 l 239 7 l 239 7 b 189 96 213 26 189 63 l 189 568 z m 424 568 l 263 547 l 263 540 l 263 540 b 313 451 289 521 313 485 l 311 -190 b 246 -278 311 -246 286 -278 b 133 -147 200 -278 176 -232 l 133 -258 b 249 -299 165 -285 207 -299 b 422 -90 335 -299 422 -235 z "},"Ĵ":{"ha":267,"x_min":0,"x_max":0,"o":"m 153 949 l 218 894 l 239 894 l 172 996 l 94 996 l 28 894 l 49 894 l 111 949 b 153 949 124 960 140 960 z m 78 56 b -89 -57 78 -57 -11 -96 l -89 -78 b 189 144 0 -115 189 -115 l 189 750 b 239 839 189 783 213 819 l 239 839 l 239 846 l 28 846 l 28 839 l 28 839 b 78 750 54 819 78 783 z "},"ĵ":{"ha":217,"x_min":0,"x_max":0,"o":"m 190 744 l 211 744 l 144 846 l 67 846 l 0 744 l 21 744 l 83 799 b 125 799 96 810 113 810 z m 189 568 l 28 547 l 28 540 l 28 540 b 78 451 54 521 78 485 l 76 -190 b 11 -278 76 -246 51 -278 b -101 -147 -35 -278 -58 -232 l -101 -258 b 14 -299 -69 -285 -28 -299 b 188 -90 100 -299 188 -235 z "},"Ķ":{"ha":781,"x_min":0,"x_max":0,"o":"m 28 846 l 28 839 l 28 839 b 78 750 54 819 78 783 l 78 96 b 28 7 78 63 54 26 l 28 7 l 28 0 l 239 0 l 239 7 l 239 7 b 189 96 213 26 189 63 l 189 750 b 239 839 189 783 213 819 l 239 839 l 239 846 z m 521 67 b 531 7 538 44 542 24 l 531 0 l 753 0 l 753 6 l 753 6 b 671 67 721 13 693 40 l 307 467 b 311 519 293 482 297 504 l 547 779 b 629 840 571 804 601 839 l 629 840 l 629 846 l 528 846 l 528 839 l 528 839 b 519 779 539 822 533 797 l 207 435 b 207 413 201 428 201 419 z m 333 -250 l 467 -147 l 374 -85 l 315 -239 z "},"ķ":{"ha":622,"x_min":0,"x_max":0,"o":"m 28 846 l 28 839 l 28 839 b 78 750 54 819 78 783 l 78 96 b 28 7 78 63 54 26 l 28 7 l 28 0 l 239 0 l 239 7 l 239 7 b 189 96 213 26 189 63 l 189 867 z m 382 67 b 392 7 399 44 403 24 l 392 0 l 594 0 l 594 6 l 594 6 b 513 67 563 13 535 40 l 297 304 b 297 357 283 319 283 342 l 410 481 b 492 542 433 506 464 540 l 492 542 l 492 547 l 390 547 l 390 540 l 390 540 b 382 481 401 524 396 499 l 204 285 b 204 263 199 278 199 269 z m 254 -250 l 388 -147 l 294 -85 l 236 -239 z "},"ĸ":{"ha":622,"x_min":0,"x_max":0,"o":"m 28 846 l 28 839 l 28 839 b 78 750 54 819 78 783 l 78 96 b 28 7 78 63 54 26 l 28 7 l 28 0 l 239 0 l 239 7 l 239 7 b 189 96 213 26 189 63 l 189 867 z m 382 67 b 392 7 399 44 403 24 l 392 0 l 594 0 l 594 6 l 594 6 b 513 67 563 13 535 40 l 297 304 b 297 357 283 319 283 342 l 410 481 b 492 542 433 506 464 540 l 492 542 l 492 547 l 390 547 l 390 540 l 390 540 b 382 481 401 524 396 499 l 204 285 b 204 263 199 278 199 269 z "},"Ĺ":{"ha":707,"x_min":0,"x_max":0,"o":"m 371 894 l 493 1060 l 382 1060 l 350 894 z m 189 750 b 239 839 189 783 213 819 l 239 839 l 239 846 l 28 846 l 28 839 l 28 839 b 78 750 54 819 78 783 l 78 96 b 28 7 78 63 54 26 l 28 7 l 28 0 l 658 0 l 679 69 l 672 69 l 672 69 b 583 21 653 43 625 21 l 244 21 b 189 76 211 21 189 43 z "},"ĺ":{"ha":267,"x_min":0,"x_max":0,"o":"m 83 894 l 206 1060 l 94 1060 l 63 894 z m 28 846 l 28 839 l 28 839 b 78 750 54 819 78 783 l 78 96 b 28 7 78 63 54 26 l 28 7 l 28 0 l 239 0 l 239 7 l 239 7 b 189 96 213 26 189 63 l 189 867 z "},"Ļ":{"ha":707,"x_min":0,"x_max":0,"o":"m 189 750 b 239 839 189 783 213 819 l 239 839 l 239 846 l 28 846 l 28 839 l 28 839 b 78 750 54 819 78 783 l 78 96 b 28 7 78 63 54 26 l 28 7 l 28 0 l 658 0 l 679 69 l 672 69 l 672 69 b 583 21 653 43 625 21 l 244 21 b 189 76 211 21 189 43 z m 296 -250 l 429 -147 l 336 -85 l 278 -239 z "},"ļ":{"ha":267,"x_min":0,"x_max":0,"o":"m 28 846 l 28 839 l 28 839 b 78 750 54 819 78 783 l 78 96 b 28 7 78 63 54 26 l 28 7 l 28 0 l 239 0 l 239 7 l 239 7 b 189 96 213 26 189 63 l 189 867 z m 76 -250 l 210 -147 l 117 -85 l 58 -239 z "},"Ľ":{"ha":707,"x_min":0,"x_max":0,"o":"m 361 893 l 494 996 l 401 1058 l 343 904 z m 189 750 b 239 839 189 783 213 819 l 239 839 l 239 846 l 28 846 l 28 839 l 28 839 b 78 750 54 819 78 783 l 78 96 b 28 7 78 63 54 26 l 28 7 l 28 0 l 658 0 l 679 69 l 672 69 l 672 69 b 583 21 653 43 625 21 l 244 21 b 189 76 211 21 189 43 z "},"ľ":{"ha":267,"x_min":0,"x_max":0,"o":"m 78 894 l 211 997 l 118 1060 l 60 906 z m 28 846 l 28 839 l 28 839 b 78 750 54 819 78 783 l 78 96 b 28 7 78 63 54 26 l 28 7 l 28 0 l 239 0 l 239 7 l 239 7 b 189 96 213 26 189 63 l 189 867 z "},"Ŀ":{"ha":707,"x_min":0,"x_max":0,"o":"m 189 750 b 239 839 189 783 213 819 l 239 839 l 239 846 l 28 846 l 28 839 l 28 839 b 78 750 54 819 78 783 l 78 96 b 28 7 78 63 54 26 l 28 7 l 28 0 l 658 0 l 679 69 l 672 69 l 672 69 b 583 21 653 43 625 21 l 244 21 b 189 76 211 21 189 43 z m 438 464 b 354 547 438 514 404 547 b 271 464 304 547 271 514 b 354 381 271 414 304 381 b 438 464 404 381 438 414 z "},"ŀ":{"ha":419,"x_min":0,"x_max":0,"o":"m 28 846 l 28 839 l 28 839 b 78 750 54 819 78 783 l 78 96 b 28 7 78 63 54 26 l 28 7 l 28 0 l 239 0 l 239 7 l 239 7 b 189 96 213 26 189 63 l 189 867 z m 392 464 b 308 547 392 514 358 547 b 225 464 258 547 225 514 b 308 381 225 414 258 381 b 392 464 358 381 392 414 z "},"Ł":{"ha":729,"x_min":0,"x_max":0,"o":"m 211 415 l 332 469 l 310 521 l 211 476 l 211 750 b 261 839 211 783 235 819 l 261 839 l 261 846 l 50 846 l 50 839 l 50 839 b 100 750 76 819 100 783 l 100 426 l 28 394 l 50 343 l 100 365 l 100 96 b 50 7 100 63 76 26 l 50 7 l 50 0 l 681 0 l 701 69 l 694 69 l 694 69 b 606 21 675 43 647 21 l 267 21 b 211 76 233 21 211 43 z "},"ł":{"ha":365,"x_min":0,"x_max":0,"o":"m 78 846 l 78 839 l 78 839 b 128 750 104 819 128 783 l 128 433 l 28 433 l 28 378 l 128 378 l 128 96 b 78 7 128 63 104 26 l 78 7 l 78 0 l 289 0 l 289 7 l 289 7 b 239 96 263 26 239 63 l 239 378 l 338 378 l 338 433 l 239 433 l 239 867 z "},"Ń":{"ha":932,"x_min":0,"x_max":0,"o":"m 497 894 l 619 1060 l 508 1060 l 476 894 z m 854 0 l 854 750 b 904 839 854 783 878 819 l 904 839 l 904 846 l 783 846 l 783 839 l 783 839 b 833 750 810 819 833 783 l 833 163 l 200 846 l 28 846 l 28 840 l 28 840 b 110 779 54 839 78 813 l 138 749 l 138 96 b 88 7 138 63 114 26 l 88 7 l 88 0 l 208 0 l 208 7 l 208 7 b 158 96 182 26 158 63 l 158 726 l 833 0 z "},"ń":{"ha":654,"x_min":0,"x_max":0,"o":"m 314 681 l 436 846 l 325 846 l 293 681 z m 415 0 l 626 0 l 626 7 b 576 96 600 26 576 63 l 576 389 b 364 568 576 493 476 568 b 189 489 301 568 236 544 l 189 568 l 28 547 l 28 540 b 78 451 54 521 78 485 l 78 96 b 28 7 78 63 54 26 l 28 0 l 239 0 l 239 7 b 189 96 213 26 189 63 l 189 456 b 329 539 225 508 282 539 b 465 401 400 539 465 488 l 465 96 b 415 7 465 63 442 26 z "},"Ņ":{"ha":932,"x_min":0,"x_max":0,"o":"m 854 0 l 854 750 b 904 839 854 783 878 819 l 904 839 l 904 846 l 783 846 l 783 839 l 783 839 b 833 750 810 819 833 783 l 833 163 l 200 846 l 28 846 l 28 840 l 28 840 b 110 779 54 839 78 813 l 138 749 l 138 96 b 88 7 138 63 114 26 l 88 7 l 88 0 l 208 0 l 208 7 l 208 7 b 158 96 182 26 158 63 l 158 726 l 833 0 z m 408 -250 l 542 -147 l 449 -85 l 390 -239 z "},"ņ":{"ha":654,"x_min":0,"x_max":0,"o":"m 415 0 l 626 0 l 626 7 b 576 96 600 26 576 63 l 576 389 b 364 568 576 493 476 568 b 189 489 301 568 236 544 l 189 568 l 28 547 l 28 540 b 78 451 54 521 78 485 l 78 96 b 28 7 78 63 54 26 l 28 0 l 239 0 l 239 7 b 189 96 213 26 189 63 l 189 456 b 329 539 225 508 282 539 b 465 401 400 539 465 488 l 465 96 b 415 7 465 63 442 26 z m 269 -250 l 403 -147 l 310 -85 l 251 -239 z "},"Ň":{"ha":932,"x_min":0,"x_max":0,"o":"m 683 1114 l 663 1114 l 467 954 l 271 1114 l 250 1114 l 394 894 l 539 894 z m 854 0 l 854 750 b 904 839 854 783 878 819 l 904 839 l 904 846 l 783 846 l 783 839 l 783 839 b 833 750 810 819 833 783 l 833 163 l 200 846 l 28 846 l 28 840 l 28 840 b 110 779 54 839 78 813 l 138 749 l 138 96 b 88 7 138 63 114 26 l 88 7 l 88 0 l 208 0 l 208 7 l 208 7 b 158 96 182 26 158 63 l 158 726 l 833 0 z "},"ň":{"ha":654,"x_min":0,"x_max":0,"o":"m 544 846 l 524 846 l 328 686 l 132 846 l 111 846 l 256 626 l 400 626 z m 415 0 l 626 0 l 626 7 b 576 96 600 26 576 63 l 576 389 b 364 568 576 493 476 568 b 189 489 301 568 236 544 l 189 568 l 28 547 l 28 540 b 78 451 54 521 78 485 l 78 96 b 28 7 78 63 54 26 l 28 0 l 239 0 l 239 7 b 189 96 213 26 189 63 l 189 456 b 329 539 225 508 282 539 b 465 401 400 539 465 488 l 465 96 b 415 7 465 63 442 26 z "},"ŉ":{"ha":654,"x_min":0,"x_max":0,"o":"m 269 681 l 403 783 l 310 846 l 251 692 z m 415 0 l 626 0 l 626 7 b 576 96 600 26 576 63 l 576 389 b 364 568 576 493 476 568 b 189 489 301 568 236 544 l 189 568 l 28 547 l 28 540 b 78 451 54 521 78 485 l 78 96 b 28 7 78 63 54 26 l 28 0 l 239 0 l 239 7 b 189 96 213 26 189 63 l 189 456 b 329 539 225 508 282 539 b 465 401 400 539 465 488 l 465 96 b 415 7 465 63 442 26 z "},"Ō":{"ha":922,"x_min":0,"x_max":0,"o":"m 669 953 l 253 953 l 253 896 l 669 896 z m 21 424 b 461 -21 21 157 194 -21 b 901 424 728 -21 901 157 b 461 867 901 689 728 867 b 21 424 194 867 21 689 z m 132 424 b 461 846 132 676 263 846 b 790 424 661 846 790 676 b 461 0 790 169 661 0 b 132 424 263 0 132 169 z "},"ō":{"ha":606,"x_min":0,"x_max":0,"o":"m 511 846 l 94 846 l 94 789 l 511 789 z m 21 272 b 304 -21 21 97 135 -21 b 585 272 472 -21 585 97 b 304 568 585 449 472 568 b 21 272 135 568 21 449 z m 132 272 b 304 547 132 438 199 547 b 474 272 407 547 474 438 b 304 0 474 108 407 0 b 132 272 199 0 132 108 z "},"Ŏ":{"ha":922,"x_min":0,"x_max":0,"o":"m 547 978 b 375 978 496 950 426 950 l 265 1036 l 244 1036 l 349 933 b 444 894 372 910 411 894 l 478 894 b 574 933 511 894 550 910 l 678 1036 l 657 1036 z m 21 424 b 461 -21 21 157 194 -21 b 901 424 728 -21 901 157 b 461 867 901 689 728 867 b 21 424 194 867 21 689 z m 132 424 b 461 846 132 676 263 846 b 790 424 661 846 790 676 b 461 0 790 169 661 0 b 132 424 263 0 132 169 z "},"ŏ":{"ha":606,"x_min":0,"x_max":0,"o":"m 389 788 b 217 788 338 760 268 760 l 107 846 l 86 846 l 190 743 b 286 704 214 719 253 704 l 319 704 b 415 743 353 704 392 719 l 519 846 l 499 846 z m 21 272 b 304 -21 21 97 135 -21 b 585 272 472 -21 585 97 b 304 568 585 449 472 568 b 21 272 135 568 21 449 z m 132 272 b 304 547 132 438 199 547 b 474 272 407 547 474 438 b 304 0 474 108 407 0 b 132 272 199 0 132 108 z "},"Ő":{"ha":922,"x_min":0,"x_max":0,"o":"m 535 894 l 657 1060 l 546 1060 l 514 894 z m 396 894 l 518 1060 l 407 1060 l 375 894 z m 21 424 b 461 -21 21 157 194 -21 b 901 424 728 -21 901 157 b 461 867 901 689 728 867 b 21 424 194 867 21 689 z m 132 424 b 461 846 132 676 263 846 b 790 424 661 846 790 676 b 461 0 790 169 661 0 b 132 424 263 0 132 169 z "},"ő":{"ha":606,"x_min":0,"x_max":0,"o":"m 361 681 l 483 846 l 372 846 l 340 681 z m 222 681 l 344 846 l 233 846 l 201 681 z m 21 272 b 304 -21 21 97 135 -21 b 585 272 472 -21 585 97 b 304 568 585 449 472 568 b 21 272 135 568 21 449 z m 132 272 b 304 547 132 438 199 547 b 474 272 407 547 474 438 b 304 0 474 108 407 0 b 132 272 199 0 132 108 z "},"Œ":{"ha":1390,"x_min":0,"x_max":0,"o":"m 21 424 b 461 -21 21 157 194 -21 b 790 111 600 -21 714 28 l 790 96 b 740 7 790 63 767 26 l 740 0 l 1342 0 l 1363 69 l 1356 69 b 1267 21 1336 43 1308 21 l 957 21 b 901 76 924 21 901 43 l 901 414 l 1139 414 b 1221 365 1181 414 1201 392 l 1228 365 l 1228 483 l 1221 483 b 1139 435 1201 457 1181 435 l 901 435 l 901 769 b 957 825 901 803 924 825 l 1267 825 b 1356 776 1308 825 1336 803 l 1363 776 l 1342 846 l 740 846 l 740 839 b 790 750 767 819 790 783 l 790 735 b 461 867 714 818 600 867 b 21 424 194 867 21 689 z m 132 424 b 461 846 132 676 263 846 b 790 424 661 846 790 676 b 461 0 790 169 661 0 b 132 424 263 0 132 169 z "},"œ":{"ha":1017,"x_min":0,"x_max":0,"o":"m 21 272 b 304 -21 21 97 135 -21 b 532 90 403 -21 483 21 b 785 -21 592 13 690 -21 b 996 58 869 -21 954 11 l 996 169 b 792 0 964 57 878 0 b 585 272 686 0 585 90 b 590 339 585 296 588 318 l 996 339 b 760 568 996 489 901 568 b 531 457 675 568 586 532 b 304 568 482 526 403 568 b 21 272 135 568 21 449 z m 132 272 b 304 547 132 438 199 547 b 474 272 407 547 474 438 b 304 0 474 108 407 0 b 132 272 199 0 132 108 z m 968 400 b 932 360 974 376 957 360 l 593 360 b 792 542 621 486 707 542 b 968 400 872 542 949 489 z "},"Ŕ":{"ha":833,"x_min":0,"x_max":0,"o":"m 367 894 l 489 1060 l 378 1060 l 346 894 z m 440 297 b 754 578 651 297 754 439 b 451 846 754 717 653 846 l 28 846 l 28 839 l 28 839 b 78 750 54 819 78 783 l 78 96 b 28 7 78 63 54 26 l 28 7 l 28 0 l 239 0 l 239 7 l 239 7 b 189 96 213 26 189 63 l 189 297 l 279 297 b 636 -21 440 297 407 -21 b 806 118 724 -21 806 33 b 790 153 806 135 800 151 l 790 153 b 674 57 790 100 738 57 b 363 297 547 57 482 235 z m 424 825 b 642 578 568 825 642 703 b 415 318 642 449 568 318 l 189 318 l 189 769 b 244 825 189 803 211 825 z "},"ŕ":{"ha":503,"x_min":0,"x_max":0,"o":"m 201 681 l 324 846 l 213 846 l 181 681 z m 28 0 l 239 0 l 239 7 b 189 96 213 26 189 63 l 189 450 b 336 531 232 499 275 531 b 482 439 396 531 428 496 l 457 547 b 350 568 421 558 386 568 b 189 485 292 568 240 546 l 189 568 l 28 547 l 28 540 b 78 451 54 521 78 485 l 78 96 b 28 7 78 63 54 26 z "},"Ŗ":{"ha":833,"x_min":0,"x_max":0,"o":"m 440 297 b 754 578 651 297 754 439 b 451 846 754 717 653 846 l 28 846 l 28 839 l 28 839 b 78 750 54 819 78 783 l 78 96 b 28 7 78 63 54 26 l 28 7 l 28 0 l 239 0 l 239 7 l 239 7 b 189 96 213 26 189 63 l 189 297 l 279 297 b 636 -21 440 297 407 -21 b 806 118 724 -21 806 33 b 790 153 806 135 800 151 l 790 153 b 674 57 790 100 738 57 b 363 297 547 57 482 235 z m 424 825 b 642 578 568 825 642 703 b 415 318 642 449 568 318 l 189 318 l 189 769 b 244 825 189 803 211 825 z m 360 -250 l 493 -147 l 400 -85 l 342 -239 z "},"ŗ":{"ha":503,"x_min":0,"x_max":0,"o":"m 28 0 l 239 0 l 239 7 b 189 96 213 26 189 63 l 189 450 b 336 531 232 499 275 531 b 482 439 396 531 428 496 l 457 547 b 350 568 421 558 386 568 b 189 485 292 568 240 546 l 189 568 l 28 547 l 28 540 b 78 451 54 521 78 485 l 78 96 b 28 7 78 63 54 26 z m 194 -250 l 328 -147 l 235 -85 l 176 -239 z "},"Ř":{"ha":833,"x_min":0,"x_max":0,"o":"m 633 1114 l 613 1114 l 417 954 l 221 1114 l 200 1114 l 344 894 l 489 894 z m 440 297 b 754 578 651 297 754 439 b 451 846 754 717 653 846 l 28 846 l 28 839 l 28 839 b 78 750 54 819 78 783 l 78 96 b 28 7 78 63 54 26 l 28 7 l 28 0 l 239 0 l 239 7 l 239 7 b 189 96 213 26 189 63 l 189 297 l 279 297 b 636 -21 440 297 407 -21 b 806 118 724 -21 806 33 b 790 153 806 135 800 151 l 790 153 b 674 57 790 100 738 57 b 363 297 547 57 482 235 z m 424 825 b 642 578 568 825 642 703 b 415 318 642 449 568 318 l 189 318 l 189 769 b 244 825 189 803 211 825 z "},"ř":{"ha":503,"x_min":0,"x_max":0,"o":"m 468 846 l 447 846 l 251 686 l 56 846 l 35 846 l 179 626 l 324 626 z m 28 0 l 239 0 l 239 7 b 189 96 213 26 189 63 l 189 450 b 336 531 232 499 275 531 b 482 439 396 531 428 496 l 457 547 b 350 568 421 558 386 568 b 189 485 292 568 240 546 l 189 568 l 28 547 l 28 540 b 78 451 54 521 78 485 l 78 96 b 28 7 78 63 54 26 z "},"Ś":{"ha":700,"x_min":0,"x_max":0,"o":"m 300 894 l 422 1060 l 311 1060 l 279 894 z m 300 867 b 39 663 176 867 39 807 b 572 179 39 386 572 429 b 350 0 571 88 492 -1 b 21 192 218 1 113 107 l 21 81 b 357 -21 108 18 238 -21 b 678 226 493 -21 679 42 b 149 721 675 526 149 457 b 297 846 149 788 203 846 b 569 693 421 846 504 782 l 569 804 b 300 867 492 842 392 867 z "},"ś":{"ha":493,"x_min":0,"x_max":0,"o":"m 196 681 l 318 846 l 207 846 l 175 681 z m 471 150 b 126 449 464 340 126 313 b 239 547 126 517 182 547 b 428 411 300 547 375 507 l 428 522 b 240 568 385 550 311 568 b 21 406 129 568 21 525 b 367 104 21 225 367 247 b 247 0 367 42 319 0 b 21 156 157 0 72 81 l 21 44 b 238 -21 81 6 161 -21 b 471 150 382 -21 475 47 z "},"Ŝ":{"ha":700,"x_min":0,"x_max":0,"o":"m 133 894 l 154 894 l 350 1054 l 546 894 l 567 894 l 422 1114 l 278 1114 z m 300 867 b 39 663 176 867 39 807 b 572 179 39 386 572 429 b 350 0 571 88 492 -1 b 21 192 218 1 113 107 l 21 81 b 357 -21 108 18 238 -21 b 678 226 493 -21 679 42 b 149 721 675 526 149 457 b 297 846 149 788 203 846 b 569 693 421 846 504 782 l 569 804 b 300 867 492 842 392 867 z "},"ŝ":{"ha":493,"x_min":0,"x_max":0,"o":"m 31 626 l 51 626 l 247 786 l 443 626 l 464 626 l 319 846 l 175 846 z m 471 150 b 126 449 464 340 126 313 b 239 547 126 517 182 547 b 428 411 300 547 375 507 l 428 522 b 240 568 385 550 311 568 b 21 406 129 568 21 525 b 367 104 21 225 367 247 b 247 0 367 42 319 0 b 21 156 157 0 72 81 l 21 44 b 238 -21 81 6 161 -21 b 471 150 382 -21 475 47 z "},"Ş":{"ha":700,"x_min":0,"x_max":0,"o":"m 300 867 b 39 663 176 867 39 807 b 572 179 39 386 572 429 b 350 0 571 88 492 -1 b 21 192 218 1 113 107 l 21 81 b 332 -21 103 22 219 -15 l 292 -182 b 408 -250 360 -182 408 -207 b 249 -240 408 -307 300 -318 l 249 -286 b 453 -228 338 -346 453 -311 b 326 -128 453 -164 390 -133 l 353 -21 b 678 226 506 -21 679 49 b 149 721 675 526 149 457 b 297 846 149 788 203 846 b 569 693 421 846 504 782 l 569 804 b 300 867 492 842 392 867 z "},"ş":{"ha":493,"x_min":0,"x_max":0,"o":"m 471 150 b 126 449 464 340 126 313 b 239 547 126 517 182 547 b 428 411 300 547 375 507 l 428 522 b 240 568 385 550 311 568 b 21 406 129 568 21 525 b 367 104 21 225 367 247 b 247 0 367 42 319 0 b 21 156 157 0 72 81 l 21 44 b 228 -21 78 7 154 -19 l 188 -182 b 304 -250 256 -182 304 -207 b 144 -240 304 -307 196 -318 l 144 -286 b 349 -228 233 -346 349 -311 b 222 -128 349 -164 286 -133 l 249 -21 b 471 150 386 -17 475 50 z "},"Š":{"ha":700,"x_min":0,"x_max":0,"o":"m 567 1118 l 546 1118 l 350 958 l 154 1118 l 133 1118 l 278 899 l 422 899 z m 300 867 b 39 663 176 867 39 807 b 572 179 39 386 572 429 b 350 0 571 88 492 -1 b 21 192 218 1 113 107 l 21 81 b 357 -21 108 18 238 -21 b 678 226 493 -21 679 42 b 149 721 675 526 149 457 b 297 846 149 788 203 846 b 569 693 421 846 504 782 l 569 804 b 300 867 492 842 392 867 z "},"š":{"ha":493,"x_min":0,"x_max":0,"o":"m 464 846 l 443 846 l 247 686 l 51 846 l 31 846 l 175 626 l 319 626 z m 471 150 b 126 449 464 340 126 313 b 239 547 126 517 182 547 b 428 411 300 547 375 507 l 428 522 b 240 568 385 550 311 568 b 21 406 129 568 21 525 b 367 104 21 225 367 247 b 247 0 367 42 319 0 b 21 156 157 0 72 81 l 21 44 b 238 -21 81 6 161 -21 b 471 150 382 -21 475 47 z "},"Ţ":{"ha":883,"x_min":0,"x_max":0,"o":"m 49 846 l 28 776 l 35 776 l 35 776 b 124 825 54 803 82 825 l 386 825 l 386 96 b 336 7 386 63 363 26 l 336 7 l 336 0 l 547 0 l 547 7 l 547 7 b 497 96 521 26 497 63 l 497 825 l 760 825 b 849 776 801 825 829 803 l 849 776 l 856 776 l 835 846 z m 385 -250 l 518 -147 l 425 -85 l 367 -239 z "},"ţ":{"ha":390,"x_min":0,"x_max":0,"o":"m 181 721 b 21 547 178 576 149 547 l 21 526 l 90 526 l 90 131 b 243 -11 90 38 164 -11 b 363 25 285 -11 328 0 l 363 136 b 257 10 335 42 292 10 b 201 74 226 10 201 38 l 201 526 l 340 526 l 340 547 l 201 547 l 201 721 z m 138 -250 l 271 -147 l 178 -85 l 119 -239 z "},"Ť":{"ha":883,"x_min":0,"x_max":0,"o":"m 658 1114 l 638 1114 l 442 954 l 246 1114 l 225 1114 l 369 894 l 514 894 z m 49 846 l 28 776 l 35 776 l 35 776 b 124 825 54 803 82 825 l 386 825 l 386 96 b 336 7 386 63 363 26 l 336 7 l 336 0 l 547 0 l 547 7 l 547 7 b 497 96 521 26 497 63 l 497 825 l 760 825 b 849 776 801 825 829 803 l 849 776 l 856 776 l 835 846 z "},"ť":{"ha":401,"x_min":0,"x_max":0,"o":"m 240 681 l 374 783 l 281 846 l 222 692 z m 188 721 b 28 547 185 576 156 547 l 28 526 l 97 526 l 97 131 b 250 -11 97 38 171 -11 b 369 25 292 -11 335 0 l 369 136 b 264 10 342 42 299 10 b 208 74 233 10 208 38 l 208 526 l 347 526 l 347 547 l 208 547 l 208 721 z "},"Ŧ":{"ha":883,"x_min":0,"x_max":0,"o":"m 650 953 l 233 953 l 233 896 l 650 896 z m 49 846 l 28 776 l 35 776 l 35 776 b 124 825 54 803 82 825 l 386 825 l 386 96 b 336 7 386 63 363 26 l 336 7 l 336 0 l 547 0 l 547 7 l 547 7 b 497 96 521 26 497 63 l 497 825 l 760 825 b 849 776 801 825 829 803 l 849 776 l 856 776 l 835 846 z "},"ŧ":{"ha":390,"x_min":0,"x_max":0,"o":"m 315 846 l 21 846 l 21 789 l 315 789 z m 181 721 b 21 547 178 576 149 547 l 21 526 l 90 526 l 90 131 b 243 -11 90 38 164 -11 b 363 25 285 -11 328 0 l 363 136 b 257 10 335 42 292 10 b 201 74 226 10 201 38 l 201 526 l 340 526 l 340 547 l 201 547 l 201 721 z "},"Ũ":{"ha":804,"x_min":0,"x_max":0,"o":"m 160 894 b 397 925 188 975 292 946 b 667 1047 506 903 614 881 l 646 1047 b 417 1011 614 960 518 992 b 139 894 303 1032 193 1061 z m 726 750 b 776 839 726 783 750 819 l 776 839 l 776 846 l 656 846 l 656 839 l 656 839 b 706 750 682 819 706 783 l 706 281 b 450 29 703 129 600 29 b 189 281 293 29 189 129 l 189 750 b 239 839 189 783 213 819 l 239 839 l 239 846 l 28 846 l 28 839 l 28 839 b 78 750 54 819 78 783 l 78 282 b 415 0 78 113 213 0 b 726 281 601 0 726 113 z "},"ũ":{"ha":685,"x_min":0,"x_max":0,"o":"m 100 693 b 338 724 128 774 232 744 b 607 846 446 701 554 679 l 586 846 b 357 810 554 758 458 790 b 79 693 243 831 133 860 z m 465 67 l 465 63 b 657 17 465 -35 614 -22 l 657 24 b 576 96 631 10 576 19 l 576 568 l 415 547 l 415 540 b 465 451 446 518 465 482 l 465 100 b 325 17 429 47 372 17 b 189 154 254 17 189 68 l 189 568 l 28 547 l 28 540 b 78 451 54 521 78 485 l 78 167 b 290 -12 78 63 178 -12 b 465 67 353 -12 418 11 z "},"Ū":{"ha":804,"x_min":0,"x_max":0,"o":"m 611 953 l 194 953 l 194 896 l 611 896 z m 726 750 b 776 839 726 783 750 819 l 776 839 l 776 846 l 656 846 l 656 839 l 656 839 b 706 750 682 819 706 783 l 706 281 b 450 29 703 129 600 29 b 189 281 293 29 189 129 l 189 750 b 239 839 189 783 213 819 l 239 839 l 239 846 l 28 846 l 28 839 l 28 839 b 78 750 54 819 78 783 l 78 282 b 415 0 78 113 213 0 b 726 281 601 0 726 113 z "},"ū":{"ha":685,"x_min":0,"x_max":0,"o":"m 551 846 l 135 846 l 135 789 l 551 789 z m 465 67 l 465 63 b 657 17 465 -35 614 -22 l 657 24 b 576 96 631 10 576 19 l 576 568 l 415 547 l 415 540 b 465 451 446 518 465 482 l 465 100 b 325 17 429 47 372 17 b 189 154 254 17 189 68 l 189 568 l 28 547 l 28 540 b 78 451 54 521 78 485 l 78 167 b 290 -12 78 63 178 -12 b 465 67 353 -12 418 11 z "},"Ŭ":{"ha":804,"x_min":0,"x_max":0,"o":"m 489 978 b 317 978 438 950 368 950 l 207 1036 l 186 1036 l 290 933 b 386 894 314 910 353 894 l 419 894 b 515 933 453 894 492 910 l 619 1036 l 599 1036 z m 726 750 b 776 839 726 783 750 819 l 776 839 l 776 846 l 656 846 l 656 839 l 656 839 b 706 750 682 819 706 783 l 706 281 b 450 29 703 129 600 29 b 189 281 293 29 189 129 l 189 750 b 239 839 189 783 213 819 l 239 839 l 239 846 l 28 846 l 28 839 l 28 839 b 78 750 54 819 78 783 l 78 282 b 415 0 78 113 213 0 b 726 281 601 0 726 113 z "},"ŭ":{"ha":685,"x_min":0,"x_max":0,"o":"m 429 788 b 257 788 378 760 308 760 l 147 846 l 126 846 l 231 743 b 326 704 254 719 293 704 l 360 704 b 456 743 393 704 432 719 l 560 846 l 539 846 z m 465 67 l 465 63 b 657 17 465 -35 614 -22 l 657 24 b 576 96 631 10 576 19 l 576 568 l 415 547 l 415 540 b 465 451 446 518 465 482 l 465 100 b 325 17 429 47 372 17 b 189 154 254 17 189 68 l 189 568 l 28 547 l 28 540 b 78 451 54 521 78 485 l 78 167 b 290 -12 78 63 178 -12 b 465 67 353 -12 418 11 z "},"Ů":{"ha":804,"x_min":0,"x_max":0,"o":"m 565 1011 b 449 1128 565 1081 518 1128 b 332 1011 379 1128 332 1081 b 449 894 332 942 379 894 b 565 1011 518 894 565 942 z m 504 1011 b 449 956 504 978 482 956 b 393 1011 415 956 393 978 b 449 1067 393 1044 415 1067 b 504 1011 482 1067 504 1044 z m 726 750 b 776 839 726 783 750 819 l 776 839 l 776 846 l 656 846 l 656 839 l 656 839 b 706 750 682 819 706 783 l 706 281 b 450 29 703 129 600 29 b 189 281 293 29 189 129 l 189 750 b 239 839 189 783 213 819 l 239 839 l 239 846 l 28 846 l 28 839 l 28 839 b 78 750 54 819 78 783 l 78 282 b 415 0 78 113 213 0 b 726 281 601 0 726 113 z "},"ů":{"ha":685,"x_min":0,"x_max":0,"o":"m 460 729 b 343 846 460 799 413 846 b 226 729 274 846 226 799 b 343 613 226 660 274 613 b 460 729 413 613 460 660 z m 399 729 b 343 674 399 696 376 674 b 288 729 310 674 288 696 b 343 785 288 763 310 785 b 399 729 376 785 399 763 z m 465 67 l 465 63 b 657 17 465 -35 614 -22 l 657 24 b 576 96 631 10 576 19 l 576 568 l 415 547 l 415 540 b 465 451 446 518 465 482 l 465 100 b 325 17 429 47 372 17 b 189 154 254 17 189 68 l 189 568 l 28 547 l 28 540 b 78 451 54 521 78 485 l 78 167 b 290 -12 78 63 178 -12 b 465 67 353 -12 418 11 z "},"Ű":{"ha":804,"x_min":0,"x_max":0,"o":"m 496 894 l 618 1060 l 507 1060 l 475 894 z m 357 894 l 479 1060 l 368 1060 l 336 894 z m 726 750 b 776 839 726 783 750 819 l 776 839 l 776 846 l 656 846 l 656 839 l 656 839 b 706 750 682 819 706 783 l 706 281 b 450 29 703 129 600 29 b 189 281 293 29 189 129 l 189 750 b 239 839 189 783 213 819 l 239 839 l 239 846 l 28 846 l 28 839 l 28 839 b 78 750 54 819 78 783 l 78 282 b 415 0 78 113 213 0 b 726 281 601 0 726 113 z "},"ű":{"ha":685,"x_min":0,"x_max":0,"o":"m 375 681 l 497 846 l 386 846 l 354 681 z m 236 681 l 358 846 l 247 846 l 215 681 z m 465 67 l 465 63 b 657 17 465 -35 614 -22 l 657 24 b 576 96 631 10 576 19 l 576 568 l 415 547 l 415 540 b 465 451 446 518 465 482 l 465 100 b 325 17 429 47 372 17 b 189 154 254 17 189 68 l 189 568 l 28 547 l 28 540 b 78 451 54 521 78 485 l 78 167 b 290 -12 78 63 178 -12 b 465 67 353 -12 418 11 z "},"Ų":{"ha":804,"x_min":0,"x_max":0,"o":"m 726 750 b 776 839 726 783 750 819 l 776 839 l 776 846 l 656 846 l 656 839 l 656 839 b 706 750 682 819 706 783 l 706 281 b 450 29 703 129 600 29 b 189 281 293 29 189 129 l 189 750 b 239 839 189 783 213 819 l 239 839 l 239 846 l 28 846 l 28 839 l 28 839 b 78 750 54 819 78 783 l 78 282 b 415 0 78 113 213 0 b 488 6 440 0 464 1 b 661 -162 493 -128 578 -162 b 776 -122 703 -162 744 -149 l 776 -11 b 664 -142 733 -96 710 -142 b 599 47 606 -142 599 -56 b 726 281 679 96 726 178 z "},"ų":{"ha":782,"x_min":0,"x_max":0,"o":"m 465 0 b 639 -182 465 -144 553 -182 b 754 -142 681 -182 722 -168 l 754 -31 b 642 -161 711 -115 688 -161 b 576 0 582 -161 576 -104 l 576 568 l 415 547 l 415 540 b 465 451 446 518 465 482 l 465 100 b 325 17 429 47 372 17 b 189 154 254 17 189 68 l 189 568 l 28 547 l 28 540 b 78 451 54 521 78 485 l 78 167 b 290 -12 78 63 178 -12 b 465 67 353 -12 418 11 z "},"Ŵ":{"ha":1418,"x_min":0,"x_max":0,"o":"m 493 894 l 514 894 l 710 1054 l 906 894 l 926 894 l 782 1114 l 638 1114 z m 222 779 b 244 839 213 799 213 831 l 244 839 l 244 846 l 28 846 l 28 840 l 28 840 b 97 779 60 833 83 810 l 493 0 l 708 424 l 924 0 l 1321 779 b 1390 840 1335 810 1358 833 l 1390 840 l 1390 846 l 1275 846 l 1275 839 l 1275 839 b 1297 779 1307 831 1307 799 l 975 146 l 771 546 l 890 779 b 960 840 904 810 928 833 l 960 840 l 960 846 l 844 846 l 844 839 l 844 839 b 867 779 876 831 876 799 l 760 569 l 653 779 b 675 839 643 799 643 831 l 675 839 l 675 846 l 458 846 l 458 840 l 458 840 b 528 779 490 833 514 810 l 697 446 l 544 146 z "},"ŵ":{"ha":950,"x_min":0,"x_max":0,"o":"m 258 626 l 279 626 l 475 786 l 671 626 l 692 626 l 547 846 l 403 846 z m 215 481 b 238 540 206 500 206 532 l 238 540 l 238 547 l 21 547 l 21 542 l 21 542 b 90 481 53 535 76 511 l 335 0 l 475 274 l 614 0 l 860 481 b 929 542 874 511 897 535 l 929 542 l 929 547 l 814 547 l 814 540 l 814 540 b 836 481 846 532 846 500 l 665 146 l 538 396 l 581 481 b 650 542 594 511 618 535 l 650 542 l 650 547 l 535 547 l 535 540 l 535 540 b 557 481 567 532 567 500 l 525 419 l 494 481 b 517 540 485 500 485 532 l 517 540 l 517 547 l 300 547 l 300 542 l 300 542 b 369 481 332 535 356 511 l 463 297 l 386 146 z "},"Ŷ":{"ha":913,"x_min":0,"x_max":0,"o":"m 299 925 l 319 925 l 515 1085 l 711 925 l 732 925 l 588 1144 l 443 1144 z m 803 779 b 885 840 822 807 853 833 l 885 840 l 885 846 l 793 846 l 793 839 l 793 839 b 782 779 803 822 796 797 l 517 426 l 250 779 b 239 839 236 797 229 822 l 239 839 l 239 846 l 28 846 l 28 840 l 28 840 b 110 779 60 833 90 807 l 401 396 l 401 96 b 351 7 401 63 378 26 l 351 7 l 351 0 l 563 0 l 563 7 l 563 7 b 513 96 536 26 513 63 l 513 396 z "},"ŷ":{"ha":638,"x_min":0,"x_max":0,"o":"m 103 626 l 124 626 l 319 786 l 515 626 l 536 626 l 392 846 l 247 846 z m 21 547 l 21 542 b 96 488 53 538 79 517 l 308 61 l 276 0 l 214 -121 b 117 -186 189 -168 150 -186 b 76 -176 101 -186 88 -183 b 132 -121 110 -176 132 -154 b 76 -65 132 -87 110 -65 b 21 -121 43 -65 21 -87 b 117 -207 21 -175 65 -207 b 236 -125 160 -207 207 -182 l 300 0 l 547 481 b 617 542 561 511 585 535 l 617 547 l 501 547 l 501 540 b 524 481 533 532 533 500 l 371 183 l 225 479 b 242 540 214 497 211 529 l 242 547 z "},"Ÿ":{"ha":913,"x_min":0,"x_max":0,"o":"m 521 954 b 576 899 521 921 543 899 b 632 954 610 899 632 921 b 576 1010 632 988 610 1010 b 521 954 543 1010 521 988 z m 358 954 b 414 899 358 921 381 899 b 469 954 447 899 469 921 b 414 1010 469 988 447 1010 b 358 954 381 1010 358 988 z m 803 779 b 885 840 822 807 853 833 l 885 840 l 885 846 l 793 846 l 793 839 l 793 839 b 782 779 803 822 796 797 l 517 426 l 250 779 b 239 839 236 797 229 822 l 239 839 l 239 846 l 28 846 l 28 840 l 28 840 b 110 779 60 833 90 807 l 401 396 l 401 96 b 351 7 401 63 378 26 l 351 7 l 351 0 l 563 0 l 563 7 l 563 7 b 513 96 536 26 513 63 l 513 396 z "},"Ź":{"ha":793,"x_min":0,"x_max":0,"o":"m 396 894 l 518 1060 l 407 1060 l 375 894 z m 744 0 l 765 69 l 758 69 l 758 69 b 669 21 739 43 711 21 l 179 21 l 757 835 b 751 846 763 842 760 846 l 49 846 l 28 776 l 35 776 l 35 776 b 124 825 54 803 82 825 l 614 825 l 36 11 b 42 0 31 4 33 0 z "},"ź":{"ha":581,"x_min":0,"x_max":0,"o":"m 281 681 l 403 846 l 292 846 l 260 681 z m 28 478 l 35 478 l 35 478 b 124 526 54 504 82 526 l 401 526 l 28 0 l 532 0 l 553 69 l 546 69 l 546 69 b 457 21 526 43 499 21 l 179 21 l 553 547 l 49 547 z "},"Ż":{"ha":793,"x_min":0,"x_max":0,"o":"m 342 950 b 397 894 342 917 364 894 b 453 950 431 894 453 917 b 397 1006 453 983 431 1006 b 342 950 364 1006 342 983 z m 744 0 l 765 69 l 758 69 l 758 69 b 669 21 739 43 711 21 l 179 21 l 757 835 b 751 846 763 842 760 846 l 49 846 l 28 776 l 35 776 l 35 776 b 124 825 54 803 82 825 l 614 825 l 36 11 b 42 0 31 4 33 0 z "},"ż":{"ha":581,"x_min":0,"x_max":0,"o":"m 235 790 b 290 735 235 757 257 735 b 346 790 324 735 346 757 b 290 846 346 824 324 846 b 235 790 257 846 235 824 z m 28 478 l 35 478 l 35 478 b 124 526 54 504 82 526 l 401 526 l 28 0 l 532 0 l 553 69 l 546 69 l 546 69 b 457 21 526 43 499 21 l 179 21 l 553 547 l 49 547 z "},"Ž":{"ha":793,"x_min":0,"x_max":0,"o":"m 618 1118 l 597 1118 l 401 958 l 206 1118 l 185 1118 l 329 899 l 474 899 z m 744 0 l 765 69 l 758 69 l 758 69 b 669 21 739 43 711 21 l 179 21 l 757 835 b 751 846 763 842 760 846 l 49 846 l 28 776 l 35 776 l 35 776 b 124 825 54 803 82 825 l 614 825 l 36 11 b 42 0 31 4 33 0 z "},"ž":{"ha":581,"x_min":0,"x_max":0,"o":"m 507 846 l 486 846 l 290 686 l 94 846 l 74 846 l 218 626 l 363 626 z m 28 478 l 35 478 l 35 478 b 124 526 54 504 82 526 l 401 526 l 28 0 l 532 0 l 553 69 l 546 69 l 546 69 b 457 21 526 43 499 21 l 179 21 l 553 547 l 49 547 z "},"ſ":{"ha":394,"x_min":0,"x_max":0,"o":"m 78 96 b 28 7 78 63 54 26 l 28 7 l 28 0 l 239 0 l 239 7 l 239 7 b 189 96 213 26 189 63 l 189 758 b 254 846 189 814 214 846 b 367 715 300 846 324 800 l 367 826 b 251 867 335 853 293 867 b 78 658 165 867 78 803 z "},"ƒ":{"ha":422,"x_min":0,"x_max":0,"o":"m 217 14 l 217 526 l 382 526 l 382 547 l 217 547 l 217 758 b 282 846 217 814 242 846 b 394 715 328 846 351 800 l 394 826 b 279 867 363 853 321 867 b 106 658 193 867 106 803 l 106 547 l 28 547 l 28 526 l 106 526 l 106 -86 b 40 -174 106 -142 81 -174 b -72 -43 -6 -174 -29 -128 l -72 -154 b 43 -194 -40 -181 1 -194 b 217 14 129 -194 217 -131 z "},"Ș":{"ha":700,"x_min":0,"x_max":0,"o":"m 300 867 b 39 663 176 867 39 807 b 572 179 39 386 572 429 b 350 0 571 88 492 -1 b 21 192 218 1 113 107 l 21 81 b 357 -21 108 18 238 -21 b 678 226 493 -21 679 42 b 149 721 675 526 149 457 b 297 846 149 788 203 846 b 569 693 421 846 504 782 l 569 804 b 300 867 492 842 392 867 z m 293 -250 l 426 -147 l 333 -85 l 275 -239 z "},"ș":{"ha":493,"x_min":0,"x_max":0,"o":"m 471 150 b 126 449 464 340 126 313 b 239 547 126 517 182 547 b 428 411 300 547 375 507 l 428 522 b 240 568 385 550 311 568 b 21 406 129 568 21 525 b 367 104 21 225 367 247 b 247 0 367 42 319 0 b 21 156 157 0 72 81 l 21 44 b 238 -21 81 6 161 -21 b 471 150 382 -21 475 47 z m 189 -250 l 322 -147 l 229 -85 l 171 -239 z "},"ȷ":{"ha":217,"x_min":0,"x_max":0,"o":"m 78 706 b 133 650 78 672 100 650 b 189 706 167 650 189 672 b 133 761 189 739 167 761 b 78 706 100 761 78 739 z m 189 568 l 28 547 l 28 540 l 28 540 b 78 451 54 521 78 485 l 76 -190 b 11 -278 76 -246 51 -278 b -101 -147 -35 -278 -58 -232 l -101 -258 b 14 -299 -69 -285 -28 -299 b 188 -90 100 -299 188 -235 z "},"ˆ":{"ha":489,"x_min":0,"x_max":0,"o":"m 28 626 l 49 626 l 244 786 l 440 626 l 461 626 l 317 846 l 172 846 z "},"ˇ":{"ha":489,"x_min":0,"x_max":0,"o":"m 461 846 l 440 846 l 244 686 l 49 846 l 28 846 l 172 626 l 317 626 z "},"ˉ":{"ha":364,"x_min":0,"x_max":0,"o":"m 28 790 l 336 790 l 336 846 l 28 846 z "},"˘":{"ha":489,"x_min":0,"x_max":0,"o":"m 331 788 b 158 788 279 760 210 760 l 49 846 l 28 846 l 132 743 b 228 704 156 719 194 704 l 261 704 b 357 743 294 704 333 719 l 461 846 l 440 846 z "},"˙":{"ha":167,"x_min":0,"x_max":0,"o":"m 28 790 b 83 735 28 757 50 735 b 139 790 117 735 139 757 b 83 846 139 824 117 846 b 28 790 50 846 28 824 z "},"˚":{"ha":289,"x_min":0,"x_max":0,"o":"m 261 729 b 144 846 261 799 214 846 b 28 729 75 846 28 799 b 144 613 28 660 75 613 b 261 729 214 613 261 660 z m 200 729 b 144 674 200 696 178 674 b 89 729 111 674 89 696 b 144 785 89 763 111 785 b 200 729 178 785 200 763 z "},"˛":{"ha":344,"x_min":0,"x_max":0,"o":"m 28 0 b 201 -182 28 -144 115 -182 b 317 -142 243 -182 285 -168 l 317 -31 b 204 -161 274 -115 250 -161 b 139 0 144 -161 139 -104 z "},"˜":{"ha":583,"x_min":0,"x_max":0,"o":"m 49 693 b 286 724 76 774 181 744 b 556 846 394 701 503 679 l 535 846 b 306 810 503 758 407 790 b 28 693 192 831 82 860 z "},"˝":{"ha":338,"x_min":0,"x_max":0,"o":"m 188 681 l 310 846 l 199 846 l 167 681 z m 49 681 l 171 846 l 60 846 l 28 681 z "},"̦":{"ha":207,"x_min":0,"x_max":0,"o":"m 46 -250 l 179 -147 l 86 -85 l 28 -239 z "},"π":{"ha":1044,"x_min":0,"x_max":0,"o":"m 669 825 b 739 756 711 825 739 797 l 739 240 b 1017 18 739 -19 928 -19 l 1017 39 b 850 151 939 0 850 39 l 850 750 b 900 839 850 783 874 819 l 900 846 l 49 846 l 28 776 l 35 776 b 124 825 54 803 82 825 l 386 825 l 386 96 b 336 7 386 63 363 26 l 336 0 l 547 0 l 547 7 b 497 96 521 26 497 63 l 497 825 z "},"Ẁ":{"ha":1418,"x_min":0,"x_max":0,"o":"m 767 894 l 785 906 l 726 1060 l 633 997 z m 222 779 b 244 839 213 799 213 831 l 244 839 l 244 846 l 28 846 l 28 840 l 28 840 b 97 779 60 833 83 810 l 493 0 l 708 424 l 924 0 l 1321 779 b 1390 840 1335 810 1358 833 l 1390 840 l 1390 846 l 1275 846 l 1275 839 l 1275 839 b 1297 779 1307 831 1307 799 l 975 146 l 771 546 l 890 779 b 960 840 904 810 928 833 l 960 840 l 960 846 l 844 846 l 844 839 l 844 839 b 867 779 876 831 876 799 l 760 569 l 653 779 b 675 839 643 799 643 831 l 675 839 l 675 846 l 458 846 l 458 840 l 458 840 b 528 779 490 833 514 810 l 697 446 l 544 146 z "},"ẁ":{"ha":950,"x_min":0,"x_max":0,"o":"m 533 681 l 551 692 l 493 846 l 400 783 z m 215 481 b 238 540 206 500 206 532 l 238 540 l 238 547 l 21 547 l 21 542 l 21 542 b 90 481 53 535 76 511 l 335 0 l 475 274 l 614 0 l 860 481 b 929 542 874 511 897 535 l 929 542 l 929 547 l 814 547 l 814 540 l 814 540 b 836 481 846 532 846 500 l 665 146 l 538 396 l 581 481 b 650 542 594 511 618 535 l 650 542 l 650 547 l 535 547 l 535 540 l 535 540 b 557 481 567 532 567 500 l 525 419 l 494 481 b 517 540 485 500 485 532 l 517 540 l 517 547 l 300 547 l 300 542 l 300 542 b 369 481 332 535 356 511 l 463 297 l 386 146 z "},"Ẃ":{"ha":1418,"x_min":0,"x_max":0,"o":"m 760 894 l 882 1060 l 771 1060 l 739 894 z m 222 779 b 244 839 213 799 213 831 l 244 839 l 244 846 l 28 846 l 28 840 l 28 840 b 97 779 60 833 83 810 l 493 0 l 708 424 l 924 0 l 1321 779 b 1390 840 1335 810 1358 833 l 1390 840 l 1390 846 l 1275 846 l 1275 839 l 1275 839 b 1297 779 1307 831 1307 799 l 975 146 l 771 546 l 890 779 b 960 840 904 810 928 833 l 960 840 l 960 846 l 844 846 l 844 839 l 844 839 b 867 779 876 831 876 799 l 760 569 l 653 779 b 675 839 643 799 643 831 l 675 839 l 675 846 l 458 846 l 458 840 l 458 840 b 528 779 490 833 514 810 l 697 446 l 544 146 z "},"ẃ":{"ha":950,"x_min":0,"x_max":0,"o":"m 485 681 l 607 846 l 496 846 l 464 681 z m 215 481 b 238 540 206 500 206 532 l 238 540 l 238 547 l 21 547 l 21 542 l 21 542 b 90 481 53 535 76 511 l 335 0 l 475 274 l 614 0 l 860 481 b 929 542 874 511 897 535 l 929 542 l 929 547 l 814 547 l 814 540 l 814 540 b 836 481 846 532 846 500 l 665 146 l 538 396 l 581 481 b 650 542 594 511 618 535 l 650 542 l 650 547 l 535 547 l 535 540 l 535 540 b 557 481 567 532 567 500 l 525 419 l 494 481 b 517 540 485 500 485 532 l 517 540 l 517 547 l 300 547 l 300 542 l 300 542 b 369 481 332 535 356 511 l 463 297 l 386 146 z "},"Ẅ":{"ha":1418,"x_min":0,"x_max":0,"o":"m 779 950 b 835 894 779 917 801 894 b 890 950 868 894 890 917 b 835 1006 890 983 868 1006 b 779 950 801 1006 779 983 z m 617 950 b 672 894 617 917 639 894 b 728 950 706 894 728 917 b 672 1006 728 983 706 1006 b 617 950 639 1006 617 983 z m 222 779 b 244 839 213 799 213 831 l 244 839 l 244 846 l 28 846 l 28 840 l 28 840 b 97 779 60 833 83 810 l 493 0 l 708 424 l 924 0 l 1321 779 b 1390 840 1335 810 1358 833 l 1390 840 l 1390 846 l 1275 846 l 1275 839 l 1275 839 b 1297 779 1307 831 1307 799 l 975 146 l 771 546 l 890 779 b 960 840 904 810 928 833 l 960 840 l 960 846 l 844 846 l 844 839 l 844 839 b 867 779 876 831 876 799 l 760 569 l 653 779 b 675 839 643 799 643 831 l 675 839 l 675 846 l 458 846 l 458 840 l 458 840 b 528 779 490 833 514 810 l 697 446 l 544 146 z "},"ẅ":{"ha":950,"x_min":0,"x_max":0,"o":"m 501 790 b 557 735 501 757 524 735 b 613 790 590 735 613 757 b 557 846 613 824 590 846 b 501 790 524 846 501 824 z m 339 790 b 394 735 339 757 361 735 b 450 790 428 735 450 757 b 394 846 450 824 428 846 b 339 790 361 846 339 824 z m 215 481 b 238 540 206 500 206 532 l 238 540 l 238 547 l 21 547 l 21 542 l 21 542 b 90 481 53 535 76 511 l 335 0 l 475 274 l 614 0 l 860 481 b 929 542 874 511 897 535 l 929 542 l 929 547 l 814 547 l 814 540 l 814 540 b 836 481 846 532 846 500 l 665 146 l 538 396 l 581 481 b 650 542 594 511 618 535 l 650 542 l 650 547 l 535 547 l 535 540 l 535 540 b 557 481 567 532 567 500 l 525 419 l 494 481 b 517 540 485 500 485 532 l 517 540 l 517 547 l 300 547 l 300 542 l 300 542 b 369 481 332 535 356 511 l 463 297 l 386 146 z "},"–":{"ha":365,"x_min":0,"x_max":0,"o":"m 28 246 l 338 246 l 338 301 l 28 301 z "},"—":{"ha":796,"x_min":0,"x_max":0,"o":"m 28 246 l 768 246 l 768 301 l 28 301 z "},"‘":{"ha":207,"x_min":0,"x_max":0,"o":"m 46 681 l 179 783 l 86 846 l 28 692 z "},"’":{"ha":207,"x_min":0,"x_max":0,"o":"m 46 681 l 179 783 l 86 846 l 28 692 z "},"‚":{"ha":197,"x_min":0,"x_max":0,"o":"m 169 56 b 114 111 169 89 147 111 b 58 56 81 111 58 89 b 94 3 58 29 72 10 l 94 3 b 28 -57 94 -33 68 -57 l 28 -78 b 169 56 113 -78 169 -25 z "},"“":{"ha":338,"x_min":0,"x_max":0,"o":"m 150 846 l 28 681 l 139 681 l 171 846 z m 289 846 l 167 681 l 278 681 l 310 846 z "},"”":{"ha":338,"x_min":0,"x_max":0,"o":"m 188 681 l 310 846 l 199 846 l 167 681 z m 49 681 l 171 846 l 60 846 l 28 681 z "},"„":{"ha":353,"x_min":0,"x_max":0,"o":"m 169 56 b 114 111 169 89 147 111 b 58 56 81 111 58 89 b 94 3 58 29 72 10 l 94 3 b 28 -57 94 -33 68 -57 l 28 -78 b 169 56 113 -78 169 -25 z m 325 56 b 269 111 325 89 303 111 b 214 56 236 111 214 89 b 250 3 214 29 228 10 l 250 3 b 183 -57 250 -33 224 -57 l 183 -78 b 325 56 268 -78 325 -25 z "},"†":{"ha":478,"x_min":0,"x_max":0,"o":"m 186 0 l 297 0 l 297 379 l 450 363 l 450 474 l 297 453 l 297 846 l 186 846 l 186 451 l 28 474 l 28 363 l 186 381 z "},"‡":{"ha":478,"x_min":0,"x_max":0,"o":"m 186 0 l 297 0 l 297 269 l 450 253 l 450 364 l 297 343 l 297 489 l 450 472 l 450 583 l 297 563 l 297 846 l 186 846 l 186 561 l 28 583 l 28 472 l 186 490 l 186 342 l 28 364 l 28 253 l 186 271 z "},"•":{"ha":289,"x_min":0,"x_max":0,"o":"m 261 272 b 144 389 261 342 214 389 b 28 272 75 389 28 342 b 144 156 28 203 75 156 b 261 272 214 156 261 203 z "},"…":{"ha":500,"x_min":0,"x_max":0,"o":"m 28 56 b 83 0 28 22 50 0 b 139 56 117 0 139 22 b 83 111 139 89 117 111 b 28 56 50 111 28 89 z m 194 56 b 250 0 194 22 217 0 b 306 56 283 0 306 22 b 250 111 306 89 283 111 b 194 56 217 111 194 89 z m 361 56 b 417 0 361 22 383 0 b 472 56 450 0 472 22 b 417 111 472 89 450 111 b 361 56 383 111 361 89 z "},"‰":{"ha":831,"x_min":0,"x_max":0,"o":"m 106 0 l 475 846 l 454 846 b 75 776 379 758 189 875 b 46 746 64 768 54 760 l 46 744 b 28 674 33 724 28 700 b 149 547 28 597 76 547 b 269 674 221 547 269 597 b 151 800 269 747 222 799 b 439 813 233 819 365 758 l 85 0 z m 75 674 b 88 743 75 700 79 724 b 149 792 96 769 119 792 b 222 674 193 792 222 744 b 149 556 222 603 193 556 b 75 674 104 556 75 603 z m 532 172 b 411 299 532 249 483 299 b 290 172 339 299 290 249 b 411 46 290 97 339 46 b 532 172 483 46 532 97 z m 803 172 b 682 299 803 249 754 299 b 561 172 610 299 561 249 b 682 46 561 97 610 46 b 803 172 754 46 803 97 z m 485 172 b 411 54 485 101 456 54 b 338 172 367 54 338 101 b 411 290 338 243 367 290 b 485 172 456 290 485 243 z m 756 172 b 682 54 756 101 726 54 b 608 172 638 54 608 101 b 682 290 608 243 638 290 b 756 172 726 290 756 243 z "},"‹":{"ha":367,"x_min":0,"x_max":0,"o":"m 28 272 l 265 -3 l 339 -3 l 103 272 l 101 272 l 339 547 l 264 547 z "},"›":{"ha":367,"x_min":0,"x_max":0,"o":"m 339 272 l 103 547 l 28 547 l 265 272 l 264 272 l 28 -3 l 101 -3 z "},"⁄":{"ha":546,"x_min":0,"x_max":0,"o":"m 28 0 l 149 0 l 518 846 l 397 846 z "},"₣":{"ha":707,"x_min":0,"x_max":0,"o":"m 583 825 b 672 776 625 825 653 803 l 672 776 l 679 776 l 658 846 l 28 846 l 28 839 l 28 839 b 78 750 54 819 78 783 l 78 301 l 28 301 l 28 246 l 78 246 l 78 96 b 28 7 78 63 54 26 l 28 7 l 28 0 l 239 0 l 239 7 l 239 7 b 189 96 213 26 189 63 l 189 246 l 338 246 l 338 301 l 189 301 l 189 414 l 456 414 b 538 365 497 414 518 392 l 538 365 l 544 365 l 544 483 l 538 483 l 538 483 b 456 435 518 457 497 435 l 189 435 l 189 769 b 244 825 189 803 211 825 z "},"₤":{"ha":629,"x_min":0,"x_max":0,"o":"m 167 111 b 192 246 183 156 190 200 l 338 246 l 338 301 l 192 301 b 183 400 190 333 188 367 l 338 400 l 338 456 l 176 456 b 163 657 169 518 163 586 b 306 846 163 775 231 846 b 497 625 379 846 461 779 l 497 736 b 294 867 458 826 376 865 b 56 657 175 867 53 785 b 72 456 57 588 65 519 l 28 456 l 28 400 l 78 400 b 85 301 81 367 83 333 l 28 301 l 28 246 l 83 246 b 56 111 81 200 74 154 l 56 0 l 551 0 l 601 160 l 594 160 l 594 160 b 506 111 575 133 547 111 z "},"₧":{"ha":1597,"x_min":0,"x_max":0,"o":"m 440 297 b 754 578 651 297 757 439 b 451 846 751 717 653 846 l 28 846 l 28 839 l 28 839 b 78 750 54 819 78 783 l 78 96 b 28 7 78 63 54 26 l 28 7 l 28 0 l 239 0 l 239 7 l 239 7 b 189 96 213 26 189 63 l 189 297 z m 424 825 b 642 578 568 825 642 703 b 415 318 642 449 568 318 l 189 318 l 189 769 b 244 825 189 803 211 825 z m 936 721 b 776 547 933 576 904 547 l 776 526 l 846 526 l 846 115 b 978 -21 846 24 907 -22 b 1118 44 1025 -21 1076 1 b 1335 -21 1178 6 1258 -21 b 1568 150 1479 -21 1572 47 b 1224 449 1561 340 1224 313 b 1336 547 1224 517 1279 547 b 1525 411 1397 547 1472 507 l 1525 522 b 1338 568 1482 550 1408 568 b 1118 406 1226 568 1118 525 b 1464 104 1118 225 1464 247 b 1344 0 1464 42 1417 0 b 1118 156 1254 0 1169 81 b 1003 0 1071 43 1046 0 b 957 58 976 0 957 25 l 957 526 l 1096 526 l 1096 547 l 957 547 l 957 721 z "},"€":{"ha":908,"x_min":0,"x_max":0,"o":"m 593 -21 b 881 63 711 -21 825 33 l 881 174 b 593 0 847 94 722 0 b 275 301 428 0 311 117 l 422 301 l 422 357 l 267 357 b 264 451 264 389 264 419 l 422 451 l 422 507 l 269 507 b 593 846 296 713 417 846 b 881 672 722 846 847 751 l 881 783 b 593 867 824 817 711 867 b 158 507 356 867 192 725 l 28 507 l 28 451 l 153 451 b 157 357 153 419 153 389 l 28 357 l 28 301 l 167 301 b 593 -21 213 104 369 -21 z "},"ℓ":{"ha":440,"x_min":0,"x_max":0,"o":"m 404 151 b 292 21 361 67 338 21 b 226 108 251 21 226 53 l 226 446 b 413 700 361 500 413 610 b 307 846 413 788 375 846 l 276 846 l 115 867 l 115 438 b 28 432 89 433 60 432 l 28 411 b 115 417 60 411 89 413 l 115 208 b 289 0 115 64 203 0 b 404 40 331 0 372 14 z m 307 825 b 392 700 357 825 392 785 b 226 467 392 618 347 518 l 226 750 b 276 825 226 783 243 811 z "},"™":{"ha":850,"x_min":0,"x_max":0,"o":"m 603 518 l 442 846 l 39 846 l 28 813 l 32 813 l 32 813 b 74 836 42 825 54 836 l 200 836 l 200 488 b 176 444 200 471 189 454 l 176 444 l 176 442 l 276 442 l 276 444 l 276 444 b 253 488 264 454 253 471 l 253 836 l 358 836 b 399 814 386 836 392 828 l 404 800 l 386 488 b 363 444 386 471 375 454 l 363 444 l 363 442 l 421 442 l 421 444 l 421 444 b 397 488 408 454 396 471 l 414 782 l 582 442 l 582 442 l 582 442 l 582 442 l 729 785 l 746 488 b 722 444 747 471 735 454 l 722 444 l 722 442 l 822 442 l 822 444 l 822 444 b 799 488 810 454 800 471 l 782 800 b 806 842 781 815 793 833 l 806 842 l 806 846 l 744 846 z "},"Ω":{"ha":978,"x_min":0,"x_max":0,"o":"m 489 867 b 29 454 179 867 31 657 b 250 110 28 307 103 165 l 125 110 b 36 158 92 110 56 132 l 29 158 l 29 -53 l 36 -53 b 126 0 56 -26 93 -1 l 336 0 l 336 110 b 140 454 208 150 139 300 b 489 846 140 647 249 846 b 838 454 729 846 838 647 b 642 110 839 300 769 150 l 642 0 l 851 0 b 942 -53 885 -1 922 -26 l 949 -53 l 949 158 l 942 158 b 853 110 922 132 886 110 l 728 110 b 949 454 875 165 950 307 b 489 867 947 657 799 867 z "},"℮":{"ha":563,"x_min":0,"x_max":0,"o":"m 338 0 b 131 272 232 0 131 90 b 136 339 131 296 133 318 l 542 339 b 306 568 542 489 447 568 b 21 272 168 568 21 474 b 331 -21 21 64 182 -21 b 542 58 415 -21 500 11 l 542 169 b 338 0 510 57 424 0 z m 514 400 b 478 360 519 376 503 360 l 139 360 b 338 542 167 486 253 542 b 514 400 418 542 494 489 z "},"∂":{"ha":440,"x_min":0,"x_max":0,"o":"m 325 0 l 325 429 b 413 435 351 433 381 435 l 413 456 b 325 450 381 456 351 454 l 325 658 b 151 867 325 803 238 867 b 36 826 110 867 68 853 l 36 715 b 149 846 79 800 103 846 b 214 758 189 846 214 814 l 214 421 b 28 167 79 367 28 257 b 133 21 28 79 65 21 l 164 21 z m 133 42 b 49 167 83 42 49 82 b 214 400 49 249 93 349 l 214 117 b 164 42 214 83 197 56 z "},"∆":{"ha":814,"x_min":0,"x_max":0,"o":"m 28 0 l 786 0 l 407 846 z m 160 21 l 407 575 l 654 21 z "},"∏":{"ha":901,"x_min":0,"x_max":0,"o":"m 576 96 b 526 7 576 63 553 26 l 526 7 l 526 0 l 738 0 l 738 7 l 738 7 b 688 96 711 26 688 63 l 688 846 l 161 846 l 161 96 b 111 7 161 63 138 26 l 111 7 l 111 0 l 322 0 l 322 7 l 322 7 b 272 96 296 26 272 63 l 272 783 b 314 825 272 808 289 825 l 535 825 b 576 783 560 825 576 808 z "},"∑":{"ha":642,"x_min":0,"x_max":0,"o":"m 593 0 l 614 160 l 607 160 l 607 160 b 518 111 588 133 560 111 l 125 111 l 386 504 l 174 825 l 518 825 b 607 776 560 825 588 803 l 607 776 l 614 776 l 593 846 l 28 846 l 306 424 l 28 0 z "},"−":{"ha":556,"x_min":0,"x_max":0,"o":"m 28 246 l 528 246 l 528 301 l 28 301 z "},"∕":{"ha":546,"x_min":0,"x_max":0,"o":"m 28 0 l 149 0 l 518 846 l 397 846 z "},"∙":{"ha":278,"x_min":0,"x_max":0,"o":"m 28 481 b 139 369 28 414 72 369 b 250 481 206 369 250 414 b 139 593 250 549 206 593 b 28 481 72 593 28 549 z "},"√":{"ha":782,"x_min":0,"x_max":0,"o":"m 375 0 l 754 846 l 632 846 l 315 135 l 157 488 l 28 488 l 28 467 l 144 467 l 354 0 z "},"∞":{"ha":1060,"x_min":0,"x_max":0,"o":"m 21 244 b 304 -21 21 86 135 -21 b 531 76 403 -21 482 15 b 758 -21 581 15 660 -21 b 1039 244 926 -21 1039 86 b 758 511 1039 404 926 511 b 531 414 660 511 581 475 b 304 511 482 475 403 511 b 21 244 135 511 21 404 z m 132 244 b 304 493 132 393 199 493 b 475 244 408 493 475 393 b 304 -1 475 96 408 -1 b 132 244 199 -1 132 96 z m 586 244 b 758 493 586 393 653 493 b 928 244 861 493 928 393 b 758 -1 928 96 861 -1 b 586 244 653 -1 586 96 z "},"∫":{"ha":524,"x_min":0,"x_max":0,"o":"m 318 738 b 383 825 318 793 343 825 b 496 694 429 825 453 779 l 496 806 b 381 846 464 832 422 846 b 207 638 294 846 207 782 l 206 108 b 140 21 206 53 181 21 b 28 151 94 21 71 67 l 28 40 b 143 0 60 14 101 0 b 317 208 229 0 317 64 z "},"≈":{"ha":583,"x_min":0,"x_max":0,"o":"m 49 196 b 286 226 76 276 181 247 b 556 349 394 204 503 182 l 535 349 b 306 313 503 261 407 293 b 28 196 192 333 82 363 z "},"≠":{"ha":546,"x_min":0,"x_max":0,"o":"m 471 525 l 378 525 l 518 846 l 397 846 l 257 525 l 76 525 l 76 469 l 233 469 l 192 375 l 76 375 l 76 319 l 167 319 l 28 0 l 149 0 l 288 319 l 471 319 l 471 375 l 313 375 l 354 469 l 471 469 z "},"≤":{"ha":446,"x_min":0,"x_max":0,"o":"m 28 482 l 344 113 l 418 113 l 103 482 l 101 482 l 418 846 l 343 846 z m 28 0 l 418 0 l 418 56 l 28 56 z "},"≥":{"ha":446,"x_min":0,"x_max":0,"o":"m 418 482 l 103 846 l 28 846 l 344 482 l 343 482 l 28 113 l 101 113 z m 418 0 l 418 56 l 28 56 l 28 0 z "},"◊":{"ha":578,"x_min":0,"x_max":0,"o":"m 289 0 l 550 422 l 289 846 l 28 422 z m 93 422 l 289 740 l 485 422 l 289 106 z "},"":{"ha":207,"x_min":0,"x_max":0,"o":"m 46 -250 l 179 -147 l 86 -85 l 28 -239 z "},"":{"ha":390,"x_min":0,"x_max":0,"o":"m 181 721 b 21 547 178 576 149 547 l 21 526 l 90 526 l 90 131 b 243 -11 90 38 164 -11 b 363 25 285 -11 328 0 l 363 136 b 257 10 335 42 292 10 b 201 74 226 10 201 38 l 201 526 l 340 526 l 340 547 l 201 547 l 201 721 z m 138 -250 l 271 -147 l 178 -85 l 119 -239 z "},"":{"ha":883,"x_min":0,"x_max":0,"o":"m 49 846 l 28 776 l 35 776 l 35 776 b 124 825 54 803 82 825 l 386 825 l 386 96 b 336 7 386 63 363 26 l 336 7 l 336 0 l 547 0 l 547 7 l 547 7 b 497 96 521 26 497 63 l 497 825 l 760 825 b 849 776 801 825 829 803 l 849 776 l 856 776 l 835 846 z m 385 -250 l 518 -147 l 425 -85 l 367 -239 z "},"":{"ha":340,"x_min":0,"x_max":0,"o":"m 28 954 b 83 899 28 921 50 899 b 139 954 117 899 139 921 b 83 1010 139 988 117 1010 b 28 954 50 1010 28 988 z m 201 954 b 257 899 201 921 224 899 b 313 954 290 899 313 921 b 257 1010 313 988 290 1010 b 201 954 224 1010 201 988 z "},"":{"ha":199,"x_min":0,"x_max":0,"o":"m 150 899 l 171 899 l 139 1064 l 28 1064 z "},"":{"ha":406,"x_min":0,"x_max":0,"o":"m 28 899 l 378 899 l 378 954 l 28 954 z "},"":{"ha":489,"x_min":0,"x_max":0,"o":"m 28 899 l 49 899 l 244 1058 l 440 899 l 461 899 l 317 1118 l 172 1118 z "},"":{"ha":199,"x_min":0,"x_max":0,"o":"m 49 899 l 171 1064 l 60 1064 l 28 899 z "},"":{"ha":489,"x_min":0,"x_max":0,"o":"m 28 1118 l 172 899 l 317 899 l 461 1118 l 440 1118 l 244 958 l 49 1118 z "},"":{"ha":489,"x_min":0,"x_max":0,"o":"m 331 982 b 158 982 279 954 210 954 l 49 1040 l 28 1040 l 132 938 b 228 899 156 914 194 899 l 261 899 b 357 938 294 899 333 914 l 461 1040 l 440 1040 z "},"":{"ha":167,"x_min":0,"x_max":0,"o":"m 28 954 b 83 899 28 921 50 899 b 139 954 117 899 139 921 b 83 1010 139 988 117 1010 b 28 954 50 1010 28 988 z "},"":{"ha":289,"x_min":0,"x_max":0,"o":"m 261 1015 b 144 1132 261 1085 214 1132 b 28 1015 75 1132 28 1085 b 144 899 28 946 75 899 b 261 1015 214 899 261 946 z m 200 1015 b 144 960 200 982 178 960 b 89 1015 111 960 89 982 b 144 1071 89 1049 111 1071 b 200 1015 178 1071 200 1049 z "},"":{"ha":583,"x_min":0,"x_max":0,"o":"m 49 899 b 286 929 76 979 181 950 b 556 1051 394 907 503 885 l 535 1051 b 306 1015 503 964 407 996 b 28 899 192 1036 82 1065 z "},"":{"ha":397,"x_min":0,"x_max":0,"o":"m 49 900 l 171 1065 l 60 1065 l 28 900 z m 247 900 l 369 1065 l 258 1065 l 226 900 z "},"":{"ha":489,"x_min":0,"x_max":0,"o":"m 28 1118 l 172 899 l 317 899 l 461 1118 l 440 1118 l 244 958 l 49 1118 z "},"":{"ha":986,"x_min":0,"x_max":0,"o":"m 763 67 b 740 7 772 47 772 15 l 740 7 l 740 0 l 957 0 l 957 6 l 957 6 b 888 67 925 13 901 36 l 799 243 b 957 371 879 251 946 282 b 942 406 958 388 951 404 l 942 406 b 775 290 928 329 843 299 l 494 846 l 233 333 b 74 294 165 336 114 326 b 29 211 49 276 33 249 b 44 176 28 194 35 178 l 44 176 b 214 294 63 261 138 286 l 99 67 b 29 6 85 36 61 13 l 29 6 l 29 0 l 144 0 l 144 7 l 144 7 b 122 67 113 15 113 47 l 239 296 b 467 281 304 300 385 296 b 672 247 544 267 613 254 z m 443 699 l 653 283 b 472 301 597 285 536 290 b 257 332 389 315 317 328 z "},"":{"ha":671,"x_min":0,"x_max":0,"o":"m 308 547 b 440 379 400 547 440 469 b 21 -217 440 65 21 56 b 331 -479 21 -390 175 -479 b 650 -207 557 -479 650 -335 b 425 -39 650 -50 500 17 b 431 -51 419 -43 422 -51 b 593 -237 535 -60 593 -146 b 358 -456 593 -343 521 -456 b 131 -246 244 -456 131 -385 b 549 339 131 -18 549 19 b 400 556 549 436 501 524 b 551 614 465 567 517 589 l 551 725 b 308 568 518 618 429 568 b 50 328 142 568 51 450 b 224 88 50 232 106 132 b 246 93 233 83 243 86 b 242 104 247 97 246 100 b 164 328 190 147 163 238 b 308 547 164 440 210 547 z "},"":{"ha":1165,"x_min":0,"x_max":0,"o":"m 908 568 b 638 375 775 568 675 492 l 746 375 b 940 542 774 474 850 542 b 1117 400 1021 542 1097 489 b 1081 360 1122 376 1106 360 l 922 360 b 382 360 836 360 490 353 b 346 542 265 367 253 511 b 440 375 404 524 440 463 l 546 375 b 415 547 535 456 486 517 l 500 547 b 642 681 585 547 642 600 b 531 681 642 756 531 756 b 567 628 531 654 544 635 b 500 568 567 592 540 568 l 382 568 b 351 565 371 568 361 567 b 308 568 338 567 324 568 b 50 328 142 568 51 450 b 224 88 50 232 106 132 b 246 93 233 83 243 86 b 242 104 247 97 246 100 b 164 328 190 147 163 238 b 308 547 164 440 210 547 b 308 547 308 547 308 547 b 394 339 226 490 253 339 b 438 339 407 339 421 339 b 21 -217 404 64 21 43 b 331 -479 21 -390 175 -479 b 650 -207 557 -479 650 -335 b 425 -39 650 -50 500 17 b 431 -51 419 -43 422 -51 b 593 -237 535 -60 593 -146 b 358 -456 593 -343 521 -456 b 131 -246 244 -456 131 -385 b 549 339 131 -18 549 19 b 628 339 575 339 601 339 b 624 272 625 322 624 301 b 933 -21 624 96 747 -21 b 1144 58 1018 -21 1103 11 l 1144 169 b 940 0 1113 57 1026 0 b 733 272 817 0 733 110 b 739 339 733 294 738 319 b 922 339 819 339 889 339 l 1144 339 b 908 568 1144 489 1050 568 z "},"":{"ha":463,"x_min":0,"x_max":0,"o":""},"ﬀ":{"ha":751,"x_min":0,"x_max":0,"o":"m 435 96 b 385 7 435 63 411 26 l 385 0 l 596 0 l 596 7 b 546 96 569 26 546 63 l 546 526 l 711 526 l 711 547 l 546 547 l 546 758 b 611 846 546 814 571 846 b 724 715 657 846 681 800 l 724 826 b 608 867 692 853 650 867 b 435 658 522 867 435 803 l 435 547 l 217 547 l 217 758 b 282 846 217 814 242 846 b 394 715 328 846 351 800 l 394 826 b 279 867 363 853 321 867 b 106 658 193 867 106 803 l 106 547 l 28 547 l 28 526 l 106 526 l 106 96 b 56 7 106 63 82 26 l 56 0 l 267 0 l 267 7 b 217 96 240 26 217 63 l 217 485 b 258 526 217 510 233 526 l 393 526 b 435 485 418 526 435 510 z "},"ﬁ":{"ha":583,"x_min":0,"x_max":0,"o":"m 353 526 b 394 485 378 526 394 510 l 394 96 b 344 7 394 63 371 26 l 344 7 l 344 0 l 556 0 l 556 7 l 556 7 b 506 96 529 26 506 63 l 506 547 l 217 547 l 217 706 b 353 846 217 799 285 846 b 478 754 407 846 460 815 b 450 761 469 758 461 761 b 394 706 417 761 394 739 b 450 650 394 672 417 650 b 506 706 483 650 506 672 b 313 879 506 821 411 879 b 106 671 211 879 106 810 l 106 547 l 28 547 l 28 526 l 106 526 l 106 96 b 56 7 106 63 82 26 l 56 0 l 267 0 l 267 7 b 217 96 240 26 217 63 l 217 485 b 258 526 217 510 233 526 z "},"ﬂ":{"ha":689,"x_min":0,"x_max":0,"o":"m 293 526 l 293 547 l 217 547 l 217 758 b 282 846 217 814 242 846 b 394 715 328 846 351 794 l 394 96 b 344 7 394 63 371 26 l 344 7 l 344 0 l 556 0 l 556 7 l 556 7 b 506 96 529 26 506 63 l 506 867 l 361 849 b 279 867 336 861 307 867 b 106 658 193 867 106 803 l 106 547 l 28 547 l 28 526 l 106 526 l 106 96 b 56 7 106 63 82 26 l 56 0 l 267 0 l 267 7 b 217 96 240 26 217 63 l 217 526 z "},"ﬃ":{"ha":889,"x_min":0,"x_max":0,"o":"m 411 96 b 361 7 411 63 388 26 l 361 0 l 572 0 l 572 7 b 522 96 546 26 522 63 l 522 485 b 564 526 522 510 539 526 l 658 526 b 700 485 683 526 700 510 l 700 96 b 650 7 700 63 676 26 l 650 7 l 650 0 l 861 0 l 861 7 l 861 7 b 811 96 835 26 811 63 l 811 547 l 522 547 l 522 706 b 658 846 522 799 590 846 b 783 754 713 846 765 815 b 756 761 775 758 767 761 b 700 706 722 761 700 739 b 756 650 700 672 722 650 b 811 706 789 650 811 672 b 618 879 811 821 717 879 b 411 671 517 879 411 810 l 411 547 l 217 547 l 217 758 b 282 846 217 814 242 846 b 394 715 328 846 351 800 l 394 826 b 279 867 363 853 321 867 b 106 658 193 867 106 803 l 106 547 l 28 547 l 28 526 l 106 526 l 106 96 b 56 7 106 63 82 26 l 56 0 l 267 0 l 267 7 b 217 96 240 26 217 63 l 217 485 b 258 526 217 510 233 526 l 369 526 b 411 485 394 526 411 510 z "},"ﬄ":{"ha":947,"x_min":0,"x_max":0,"o":"m 742 835 b 618 867 704 851 654 867 b 435 658 532 867 435 803 l 435 547 l 217 547 l 217 758 b 282 846 217 814 242 846 b 394 715 328 846 351 800 l 394 826 b 279 867 363 853 321 867 b 106 658 193 867 106 803 l 106 547 l 28 547 l 28 526 l 106 526 l 106 96 b 56 7 106 63 82 26 l 56 0 l 267 0 l 267 7 b 217 96 240 26 217 63 l 217 485 b 258 526 217 510 233 526 l 393 526 b 435 485 418 526 435 510 l 435 96 b 385 7 435 63 411 26 l 385 0 l 596 0 l 596 7 b 546 96 569 26 546 63 l 546 526 l 711 526 l 711 547 l 546 547 l 546 758 b 621 846 546 814 581 846 b 758 715 667 846 715 800 l 758 96 b 708 7 758 63 735 26 l 708 7 l 708 0 l 919 0 l 919 7 l 919 7 b 869 96 893 26 869 63 l 869 867 z "},"ﬅ":{"ha":635,"x_min":0,"x_max":0,"o":"m 446 832 b 304 867 403 854 353 867 b 78 658 189 868 78 806 l 78 96 b 28 7 78 63 54 26 l 28 7 l 28 0 l 239 0 l 239 7 l 239 7 b 189 96 213 26 189 63 l 189 721 b 307 846 189 804 247 846 b 425 721 365 846 425 804 b 265 547 422 576 393 547 l 265 526 l 335 526 l 335 131 b 488 -11 335 38 408 -11 b 607 25 529 -11 572 0 l 607 136 b 501 10 579 42 536 10 b 446 74 471 10 446 38 l 446 526 l 585 526 l 585 547 l 446 547 z "}}}
